<?xml version="1.0" encoding="UTF-8" standalone="no"?>
<!-- Created with Inkscape (http://www.inkscape.org/) -->

<svg
   xmlns:dc="http://purl.org/dc/elements/1.1/"
   xmlns:cc="http://creativecommons.org/ns#"
   xmlns:rdf="http://www.w3.org/1999/02/22-rdf-syntax-ns#"
   xmlns:svg="http://www.w3.org/2000/svg"
   xmlns="http://www.w3.org/2000/svg"
   xmlns:xlink="http://www.w3.org/1999/xlink"
   xmlns:sodipodi="http://sodipodi.sourceforge.net/DTD/sodipodi-0.dtd"
   xmlns:inkscape="http://www.inkscape.org/namespaces/inkscape"
   id="svg3020"
   version="1.1"
   inkscape:version="0.91 r13725"
   width="210mm"
   height="297mm"
   sodipodi:docname="2016-01-04-voilier.svg">
  <metadata
     id="metadata3026">
    <rdf:RDF>
      <cc:Work
         rdf:about="">
        <dc:format>image/svg+xml</dc:format>
        <dc:type
           rdf:resource="http://purl.org/dc/dcmitype/StillImage" />
        <dc:title></dc:title>
      </cc:Work>
    </rdf:RDF>
  </metadata>
  <defs
     id="defs3024" />
  <sodipodi:namedview
     pagecolor="#ffffff"
     bordercolor="#666666"
     borderopacity="1"
     objecttolerance="10"
     gridtolerance="10"
     guidetolerance="10"
     inkscape:pageopacity="0"
     inkscape:pageshadow="2"
     inkscape:window-width="1920"
     inkscape:window-height="1062"
     id="namedview3022"
     showgrid="false"
     inkscape:zoom="0.61123942"
     inkscape:cx="476.27951"
     inkscape:cy="487.72706"
     inkscape:window-x="0"
     inkscape:window-y="0"
     inkscape:window-maximized="1"
     inkscape:current-layer="layer3"
     showguides="true"
     inkscape:guide-bbox="true"
     units="mm" />
  <g
     inkscape:groupmode="layer"
     id="layer4"
     inkscape:label="Bois"
     style="display:none"
     sodipodi:insensitive="true">
    <image
       sodipodi:absref="/home/nthiery/FabLab/AlcoveArt/2015-12-16-bois2.jpg"
       xlink:href="2015-12-16-bois2.jpg"
       style="display:inline"
       y="2.2341039"
       x="3.8070946"
       id="image10-2"
       preserveAspectRatio="none"
       height="1051.2"
       width="734.40002" />
  </g>
  <g
     inkscape:groupmode="layer"
     id="layer1"
     inkscape:label="Blueprints"
     transform="translate(0,892.36221)"
     style="display:none"
     sodipodi:insensitive="true">
    <path
       sodipodi:nodetypes="cccccccccc"
       style="fill:#000000;fill-opacity:1;stroke:#000000;stroke-width:0.70866144;stroke-linecap:butt;stroke-linejoin:miter;stroke-miterlimit:4;stroke-dasharray:none;stroke-opacity:1"
       d="m 127.50281,-563.72454 c -13.69454,-2.12928 -63.27092,-61.27925 -65.55883,-76.87429 45.91041,23.74911 140.87792,38.78736 198.55721,40.87751 10.37756,-0.41952 24.82515,-0.54482 34.45549,-4.09903 -9.73812,10.92465 -27.87956,30.64198 -39.96433,37.07386 -13.51562,8.35719 -34.98455,3.70474 -42.28003,-9.63732 -5.54912,1.4482 -10.50299,12.39004 -17.68558,15.48575 -7.49271,3.82953 -16.91964,3.7062 -24.83258,1.12794 -12.48088,-4.91511 -29.81619,-25.44046 -23.77192,-26.98455 -11.57889,7.32353 -17.77344,14.9311 -18.91943,23.03013 z"
       id="path3143"
       inkscape:connector-curvature="0" />
    <path
       style="fill:#000000;fill-opacity:1;stroke:#000000;stroke-width:0.70866144;stroke-linecap:butt;stroke-linejoin:miter;stroke-miterlimit:4;stroke-dasharray:none;stroke-opacity:1"
       d="m 220.26313,-603.75919 c -23.03002,-11.42069 -119.81567,-30.85519 -136.01989,-44.9525 30.9687,-55.07591 88.38275,-80.10091 136.76514,-107.72655 -23.19208,47.29447 -42.72201,101.80705 -0.74525,152.67905 z"
       id="path3131"
       inkscape:connector-curvature="0"
       sodipodi:nodetypes="cccc" />
    <path
       style="fill:#000000;fill-opacity:1;stroke:#000000;stroke-width:0.70866144;stroke-linecap:butt;stroke-linejoin:miter;stroke-miterlimit:4;stroke-dasharray:none;stroke-opacity:1"
       d="m 226.66538,-599.79429 c 21.23269,-9.2578 44.20229,1.27866 64.3571,-5.90408 -40.91596,-23.21003 -57.46092,-96.16355 -71.61496,-146.90301 -4.22703,56.87431 -5.48626,103.66912 7.25786,152.80709 z"
       id="path3194"
       inkscape:connector-curvature="0"
       sodipodi:nodetypes="cccc" />
    <path
       style="color:#000000;font-style:normal;font-variant:normal;font-weight:normal;font-stretch:normal;font-size:medium;line-height:normal;font-family:Sans;-inkscape-font-specification:Sans;text-indent:0;text-align:start;text-decoration:none;text-decoration-line:none;letter-spacing:normal;word-spacing:normal;text-transform:none;direction:ltr;block-progression:tb;writing-mode:lr-tb;baseline-shift:baseline;text-anchor:start;display:inline;overflow:visible;visibility:visible;fill:#000000;fill-opacity:1;stroke:#000000;stroke-width:0.70866144;stroke-miterlimit:4;stroke-dasharray:none;stroke-opacity:1;marker:none;enable-background:accumulate"
       d="m 216.39288,-751.34506 c -9.19233,50.97197 -18.93236,102.30908 -24.28125,150.71876 l 6.6875,1.96875 c 7.87847,-62.10537 15.52029,-106.15571 22.78125,-157.71876 z"
       id="path3309"
       inkscape:connector-curvature="0"
       sodipodi:nodetypes="ccccc" />
    <path
       style="fill:#000000;fill-opacity:1;stroke:#000000;stroke-opacity:1"
       d="m 209.80558,-105.57412 c -1.77386,0.52897 -3.10457,1.47065 -4.15625,2.65625 -16.47141,8.89609 -41.88735,31.76122 -54.0625,42.93751 -7.18817,7.80188 -13.80249,16.03107 -18.1875,26.34375 -9.53719,19.72727 -16.41058,41.3403397 -14.125,63.53125 0.54338,4.01605 0.95652,22.37391 5.84375,16.25 6.2751,-12.05633 23.41555,1.67229 30.9375,7.125 7.0014,5.52133 -0.35028,3.76082 -4.59375,6.8125 -5.38287,10.23992 -12.95752,3.35974 -21.09375,0.46875 -13.87901,-6.32848 -28.19145,-11.73457 -40.843755,-20.46875 -2.66994,-0.8068 -8.2433,-2.44377 -12.25,-3.625 a 1.4820633,1.5002062 0 0 0 -1.46875,-1.1875 1.4820633,1.5002062 0 0 0 -1,0.4375 c -0.38168,-0.11243 -2.15625,-0.625 -2.15625,-0.625 0,0 1.18374,0.74177 1.8125,1.15625 0.005,0.003 -0.005,0.0279 0,0.0312 a 1.4820633,1.5002062 0 0 0 -0.0937,0.65625 c 3.06762,34.00039 25.57116,63.74772 54.218755,80.3125 l 0,-0.0312 c 17.24524,10.28284 37.86768,15.74825 57.9375,14.34375 10.7812,-0.75448 21.40073,-3.483 31.25,-8.53125 0.0121,-0.006 0.0192,-0.025 0.0312,-0.0312 0.008,-0.004 0.023,0.004 0.0312,0 12.5982,-5.59731 21.7894,-19.27263 19.84375,-33.5625 -0.10515,-0.73482 -0.26248,-1.46699 -0.4375,-2.1875 0.002,-0.01 -0.002,-0.0216 0,-0.0312 -0.002,-0.01 0.002,-0.0215 0,-0.0312 0.40386,-2.00363 -1.41884,-5.0068 -6.09375,-9.28125 -8.93329,-20.19428 -15.75401,-41.29668 -20.5625,-62.84395 -8.02496,-39.46352 -13.98421,-81.57485 -0.78125,-120.62501 z m -5.78125,5.0625 c -3.09021,6.00719 -2.76842,15.27208 -8.875,19.28125 -13.45867,31.62948 -21.98254,65.52829 -23.4375,99.93751 -1.00374,14.60652 0.25852,29.11815 2.59375,43.53125 1.42246,14.25999 -7.3617,-6.16355 -12.9375,-8.65625 -10.06184,-12.0105 -27.55099,-10.85283 -39.125,-20.4375 -1.42884,-15.88014 1.02851,-31.9579303 6.28125,-46.96875 10.32646,-31.55283 49.45187,-64.45226 75.5,-86.68751 z m -6.75,21.1875 c 1.18956,-0.004 0.28943,8.88542 -1.5625,12.40625 -6.57177,13.84944 -6.8201,29.42875 -11.25,43.90626 -0.81011,3.14822 -1.57548,6.3101 -2.34375,9.46875 -1.48789,3.8877397 -5.15746,26.86776 -5.8125,16.3749997 2.18676,-26.4426497 9.09873,-52.4700397 18.53125,-77.2187597 1.17182,-3.57094 1.97201,-4.93597 2.4375,-4.9375 z m 2.15625,13.75 c 0.30216,-0.008 0.64176,0.0477 1,0.1875 0.0142,40.07393 4.18518,80.6734 17.78125,118.59376 -0.33877,3.41874 6.17671,10.3312 3,12.9375 -7.18664,-8.43731 -17.18114,-4.90168 -26.71875,-5.25 -6.24997,-10.27071 -2.19034,-25.92586 -3.78125,-38.3125 0.55948,-22.55374032 -2.25262,-45.40992 3.3125,-67.5625 2.33771,-4.66163 0.87391,-20.4775 5.40625,-20.59376 z m -9.78125,36.15626 c -1.00149,13.40895 -1.8362,26.8352497 -2.09375,40.28125 0.31859,19.73781 -0.55034,39.89353 4.125,59.21875 3.27145,15.13585 2.6347,-6.13414 9.375,-7.9375 11.73415,1.39956 26.36729,10.53937 29.78125,22.96875 -6.53186,0.93173 -12.95823,-1.11788 -19.40625,-1.75 -14.21948,-0.62999 -35.75934,-1.91598 -33.15625,-21.34375 -0.98651,-13.51554 -6.96644,-27.20679 -2.5,-40.625 6.35232,-16.4519303 8.96682,-33.95604 13.875,-50.8125 z m -112.187505,67.625 c 6.63279,4.34286 17.74698,11.56399 16.625,10.28125 11.086795,5.63675 22.383865,10.91584 33.843755,15.75 17.92507,8.12132 91.93856,30.7939 106.75,25.34375 0.0149,0.0953 0.0488,0.18574 0.0625,0.28125 1.73882,12.77083 -6.70837,25.33521 -18.1875,30.40625 a 1.4820633,1.5002062 0 0 0 -0.0625,0.0312 c -8.00296,4.11115 -16.55235,6.62189 -25.3125,7.75 -20.90744,2.69241 -42.93597,-2.57929 -61.09375,-13.40625 a 1.4820633,1.5002062 0 0 0 -0.0312,-0.0312 C 102.59087,98.73256 80.957045,70.40337 77.461875,38.20714 Z m 79.937505,24.03125 c 7.26977,-0.36473 19.03666,7.86194 19.78125,15.15625 -8.78211,-1.03334 -18.98021,-1.52426 -25.4375,-8.4375 -0.006,-4.62024 2.35181,-6.55297 5.65625,-6.71875 z m 78.125,9.4375 c -0.46767,-0.12448 -1.10198,0.74352 -1.53125,3.46875 l 0.65625,1.5 c 1.96466,-1.78579 1.65445,-4.76128 0.875,-4.96875 z"
       id="path3030"
       inkscape:connector-curvature="0" />
  </g>
  <g
     inkscape:groupmode="layer"
     id="layer3"
     inkscape:label="Coupe">
    <path
       style="fill:none;fill-opacity:1;stroke:#ff0000;stroke-width:0.81131315;stroke-linecap:butt;stroke-linejoin:miter;stroke-miterlimit:4;stroke-dasharray:none;stroke-opacity:1"
       d="m 609.24824,363.26734 c -61.53263,16.79731 -132.33505,28.13005 -182.4086,80.3359 10.64541,15.47734 72.45076,47.81619 111.00444,70.81647 -0.97967,2.48419 -1.94604,4.96424 -2.9019,7.44012 -51.68775,-21.42899 -102.63406,-49.89624 -131.86992,-76.04459 -4.67812,16.10451 17.00941,76.82761 44.98068,101.09627 5.73635,-7.59547 15.21745,-14.94013 28.80928,-17.6716 -3.4426,6.67178 8.28552,29.1487 19.84207,37.53018 8.03537,5.11994 18.44995,7.95197 27.85092,5.84811 8.84745,-1.37908 17.46681,-12.09396 24.03247,-12.11339 4.2744,16.87624 26.7445,28.1692 44.11657,22.76737 15.23553,-3.6764 40.98335,-20.35009 54.9015,-29.67787 -11.69206,1.18764 -27.7442,-2.80201 -39.36869,-5.30299 -9.72527,-2.88673 -20.34406,-6.36741 -31.50157,-10.3269 23.66654,-0.91374 44.52977,14.45728 67.04594,12.42483 -37.77959,-36.51085 -36.32452,-118.71621 -37.33435,-178.70215 1.14,-2.73564 2.26772,-5.41266 3.41556,-8.18748 l -1.55594,0.88505 c 0.31492,-0.36931 0.62631,-0.74925 0.94154,-1.11733 z m -10.22902,12.26839 c -15.831,34.38745 -31.81992,68.82918 -46.30741,102.7479 0.8356,-38.81103 21.98309,-72.67651 46.30741,-102.7479 z m -0.25989,14.48765 c -16.51372,51.05958 -27.66848,96.09564 -27.99486,145.78966 -9.22226,-3.35644 -18.75951,-7.01604 -28.43891,-10.92972 0.84624,-2.11363 1.67841,-4.17444 2.51405,-6.24929 8.7209,5.3601 15.74713,10.05473 19.94312,13.68096 -5.78493,-12.36598 -9.29533,-24.2866 -10.95153,-35.79368 16.02785,-39.00697 30.38715,-72.05974 44.92813,-106.49793 z"
       id="path3143-2"
       inkscape:connector-curvature="0"
       sodipodi:nodetypes="ccccccccccccccccccccccccccccc" />
  </g>
</svg>
