<?xml version="1.0" encoding="UTF-8" standalone="no"?>
<!-- Created with Inkscape (http://www.inkscape.org/) -->

<svg
   xmlns:dc="http://purl.org/dc/elements/1.1/"
   xmlns:cc="http://creativecommons.org/ns#"
   xmlns:rdf="http://www.w3.org/1999/02/22-rdf-syntax-ns#"
   xmlns:svg="http://www.w3.org/2000/svg"
   xmlns="http://www.w3.org/2000/svg"
   xmlns:sodipodi="http://sodipodi.sourceforge.net/DTD/sodipodi-0.dtd"
   xmlns:inkscape="http://www.inkscape.org/namespaces/inkscape"
   id="svg3020"
   version="1.1"
   inkscape:version="0.48.4 r9939"
   width="196"
   height="160"
   sodipodi:docname="bateau2.svg">
  <metadata
     id="metadata3026">
    <rdf:RDF>
      <cc:Work
         rdf:about="">
        <dc:format>image/svg+xml</dc:format>
        <dc:type
           rdf:resource="http://purl.org/dc/dcmitype/StillImage" />
        <dc:title />
      </cc:Work>
    </rdf:RDF>
  </metadata>
  <defs
     id="defs3024" />
  <sodipodi:namedview
     pagecolor="#ffffff"
     bordercolor="#666666"
     borderopacity="1"
     objecttolerance="10"
     gridtolerance="10"
     guidetolerance="10"
     inkscape:pageopacity="0"
     inkscape:pageshadow="2"
     inkscape:window-width="1600"
     inkscape:window-height="798"
     id="namedview3022"
     showgrid="false"
     inkscape:zoom="2"
     inkscape:cx="-371.82343"
     inkscape:cy="275.85336"
     inkscape:window-x="0"
     inkscape:window-y="31"
     inkscape:window-maximized="1"
     inkscape:current-layer="g4261"
     showguides="true"
     inkscape:guide-bbox="true" />
  <path
     style="fill:#000000;fill-opacity:1;stroke:#000000;stroke-opacity:1"
     d="m 427.29167,-266.37501 c -1.77386,0.52897 -3.10457,1.47065 -4.15625,2.65625 -16.47141,8.89609 -41.88735,31.76122 -54.0625,42.93751 -7.18817,7.80188 -13.80249,16.03107 -18.1875,26.34375 -9.53719,19.72727 -16.41058,41.34034 -14.125,63.53125 0.54338,4.01605 0.95652,22.37391 5.84375,16.25 6.2751,-12.05633 23.41555,1.67229 30.9375,7.125 7.0014,5.52133 -0.35028,3.76082 -4.59375,6.8125 -5.38287,10.239915 -12.95752,3.359738 -21.09375,0.46875 -13.87901,-6.32848 -28.19145,-11.73457 -40.84375,-20.46875 -2.66994,-0.8068 -8.2433,-2.44377 -12.25,-3.625 a 1.4820633,1.5002062 0 0 0 -1.46875,-1.1875 1.4820633,1.5002062 0 0 0 -1,0.4375 c -0.38168,-0.11243 -2.15625,-0.625 -2.15625,-0.625 0,0 1.18374,0.74177 1.8125,1.15625 0.005,0.003 -0.005,0.0279 0,0.0312 a 1.4820633,1.5002062 0 0 0 -0.0937,0.65625 c 3.06762,34.000388 25.57116,63.747722 54.21875,80.312499 l 0,-0.03125 c 17.24524,10.282841 37.86768,15.748252 57.9375,14.34375 10.7812,-0.754478 21.40073,-3.483003 31.25,-8.53125 0.0121,-0.0062 0.0192,-0.02503 0.0312,-0.03125 0.008,-0.0037 0.023,0.0037 0.0312,0 12.5982,-5.597307 21.7894,-19.272633 19.84375,-33.5625 -0.10515,-0.734823 -0.26248,-1.466989 -0.4375,-2.1875 0.002,-0.0096 -0.002,-0.0216 0,-0.03125 -0.002,-0.0098 0.002,-0.02146 0,-0.03125 0.40386,-2.003628 -1.41884,-5.006799 -6.09375,-9.28125 -8.93329,-20.194079 -15.75401,-41.296479 -20.5625,-62.843749 -8.02496,-39.46352 -13.98421,-81.57485 -0.78125,-120.62501 z m -5.78125,5.0625 c -3.09021,6.00719 -2.76842,15.27208 -8.875,19.28125 -13.45867,31.62948 -21.98254,65.52829 -23.4375,99.93751 -1.00374,14.60652 0.25852,29.11815 2.59375,43.531249 1.42246,14.259994 -7.3617,-6.163549 -12.9375,-8.656249 -10.06184,-12.0105 -27.55099,-10.85283 -39.125,-20.4375 -1.42884,-15.88014 1.02851,-31.95793 6.28125,-46.96875 10.32646,-31.55283 49.45187,-64.45226 75.5,-86.68751 z m -6.75,21.1875 c 1.18956,-0.004 0.28943,8.88542 -1.5625,12.40625 -6.57177,13.84944 -6.8201,29.42875 -11.25,43.90626 -0.81011,3.14822 -1.57548,6.3101 -2.34375,9.46875 -1.48789,3.88774 -5.15746,26.86776 -5.8125,16.375 2.18676,-26.44265 9.09873,-52.47004 18.53125,-77.21876 1.17182,-3.57094 1.97201,-4.93597 2.4375,-4.9375 z m 2.15625,13.75 c 0.30216,-0.008 0.64176,0.0477 1,0.1875 0.0142,40.07393 4.18518,80.6734 17.78125,118.59376 -0.33877,3.41874 6.17671,10.331201 3,12.937499 -7.18664,-8.437309 -17.18114,-4.901684 -26.71875,-5.25 -6.24997,-10.270709 -2.19034,-25.925859 -3.78125,-38.312499 0.55948,-22.55374 -2.25262,-45.40992 3.3125,-67.5625 2.33771,-4.66163 0.87391,-20.4775 5.40625,-20.59376 z m -9.78125,36.15626 c -1.00149,13.40895 -1.8362,26.83525 -2.09375,40.28125 0.31859,19.73781 -0.55034,39.89353 4.125,59.218749 3.27145,15.135851 2.6347,-6.134139 9.375,-7.9375 11.73415,1.399563 26.36729,10.539374 29.78125,22.96875 -6.53186,0.931732 -12.95823,-1.117876 -19.40625,-1.75 -14.21948,-0.629985 -35.75934,-1.915983 -33.15625,-21.34375 -0.98651,-13.515539 -6.96644,-27.206789 -2.5,-40.624999 6.35232,-16.45193 8.96682,-33.95604 13.875,-50.8125 z m -112.1875,67.625 c 6.63279,4.34286 17.74698,11.56399 16.625,10.28125 11.08679,5.63675 22.38386,10.91584 33.84375,15.749999 17.92507,8.12132 91.93856,30.793897 106.75,25.34375 0.0149,0.09532 0.0488,0.185745 0.0625,0.28125 1.73882,12.770833 -6.70837,25.335211 -18.1875,30.40625 a 1.4820633,1.5002062 0 0 0 -0.0625,0.03125 c -8.00296,4.111151 -16.55235,6.621888 -25.3125,7.75 -20.90744,2.692413 -42.93597,-2.579286 -61.09375,-13.40625 a 1.4820633,1.5002062 0 0 0 -0.0312,-0.03125 c -27.46476,-15.880833 -49.09858,-44.210024 -52.59375,-76.406249 z m 79.9375,24.031249 c 7.26977,-0.364726 19.03666,7.861938 19.78125,15.15625 -8.78211,-1.033343 -18.98021,-1.524257 -25.4375,-8.4375 -0.006,-4.620238 2.35181,-6.552966 5.65625,-6.71875 z m 78.125,9.4375 c -0.46767,-0.124482 -1.10198,0.743516 -1.53125,3.46875 l 0.65625,1.5 c 1.96466,-1.785788 1.65445,-4.761279 0.875,-4.96875 z"
     id="path3030"
     inkscape:connector-curvature="0" />
  <g
     id="g4261"
     transform="translate(-254.31312,3.212013)">
    <path
       inkscape:connector-curvature="0"
       id="path3143"
       d="m -164.21299,13.797595 c -13.69454,-2.129284 -63.27092,-61.279247 -65.55883,-76.874286 45.91041,23.749104 140.877916,38.787356 198.557207,40.877501 10.377563,-0.419516 24.8251506,-0.544814 34.4554939,-4.099029 -9.7381234,10.924651 -27.8795579,30.6419791 -39.9643339,37.073868 -13.515617,8.357186 -34.984551,3.704736 -42.28003,-9.6373221 -5.549119,1.4481939 -10.502992,12.3900371 -17.685574,15.4857511 -7.492713,3.829526 -16.919643,3.7062 -24.832583,1.127933 -12.48088,-4.915104 -29.81619,-25.4404582 -23.77192,-26.9845441 -11.57889,7.3235249 -17.77344,14.9310943 -18.91943,23.0301281 z"
       style="fill:#000000;fill-opacity:1;stroke:#000000;stroke-width:0.70866144;stroke-linecap:butt;stroke-linejoin:miter;stroke-miterlimit:4;stroke-opacity:1;stroke-dasharray:none"
       sodipodi:nodetypes="cccccccccc" />
    <g
       transform="matrix(0.78704069,0.61690109,-0.61690109,0.78704069,-77.235635,25.079667)"
       id="g3244"
       style="fill:#000000;fill-opacity:1;stroke-width:0.70866142;stroke-miterlimit:4;stroke-dasharray:none">
      <path
         style="fill:#000000;fill-opacity:1;stroke:#000000;stroke-width:0.70866144;stroke-linecap:butt;stroke-linejoin:miter;stroke-miterlimit:4;stroke-opacity:1;stroke-dasharray:none"
         d="m -27.105911,-43.955869 c -25.170995,5.218696 -113.334409,49.6301298 -134.784429,48.5313681 -9.60276,-62.4516021 20.14648,-117.5660891 41.1831,-169.1557391 10.9229,51.5299 29.180923,106.481542 93.601329,120.624371 z"
         id="path3131"
         inkscape:connector-curvature="0"
         sodipodi:nodetypes="cccc" />
      <path
         style="fill:#000000;fill-opacity:1;stroke:#000000;stroke-width:0.70866144;stroke-linecap:butt;stroke-linejoin:miter;stroke-miterlimit:4;stroke-opacity:1;stroke-dasharray:none"
         d="m -19.62113,-44.784886 c 10.9998464,-20.38474 35.577813,-26.262087 47.009426,-44.348717 -46.520815,6.97386 -104.547481,-40.236917 -146.988516,-71.439297 31.758984,47.37006 59.635685,84.976287 99.97909,115.788014 z"
         id="path3194"
         inkscape:connector-curvature="0"
         sodipodi:nodetypes="cccc" />
    </g>
    <path
       sodipodi:nodetypes="ccccc"
       inkscape:connector-curvature="0"
       id="path3309"
       d="m -75.322917,-173.82292 c -9.192334,50.97197 -18.932366,102.309079 -24.28125,150.718753 l 6.6875,1.96875 c 7.878471,-62.105362 15.520291,-106.155703 22.78125,-157.718753 z"
       style="font-size:medium;font-style:normal;font-variant:normal;font-weight:normal;font-stretch:normal;text-indent:0;text-align:start;text-decoration:none;line-height:normal;letter-spacing:normal;word-spacing:normal;text-transform:none;direction:ltr;block-progression:tb;writing-mode:lr-tb;text-anchor:start;baseline-shift:baseline;color:#000000;fill:#000000;fill-opacity:1;stroke:#000000;stroke-width:0.70866144;stroke-miterlimit:4;stroke-opacity:1;stroke-dasharray:none;marker:none;visibility:visible;display:inline;overflow:visible;enable-background:accumulate;font-family:Sans;-inkscape-font-specification:Sans" />
  </g>
</svg>
