<?xml version="1.0" encoding="UTF-8" standalone="no"?>
<!-- Created with matplotlib (http://matplotlib.org/) -->

<svg
   xmlns:dc="http://purl.org/dc/elements/1.1/"
   xmlns:cc="http://creativecommons.org/ns#"
   xmlns:rdf="http://www.w3.org/1999/02/22-rdf-syntax-ns#"
   xmlns:svg="http://www.w3.org/2000/svg"
   xmlns="http://www.w3.org/2000/svg"
   xmlns:xlink="http://www.w3.org/1999/xlink"
   xmlns:sodipodi="http://sodipodi.sourceforge.net/DTD/sodipodi-0.dtd"
   xmlns:inkscape="http://www.inkscape.org/namespaces/inkscape"
   height="466pt"
   version="1.1"
   viewBox="0 0 501 466"
   width="501pt"
   id="svg2"
   inkscape:version="0.91 r13725"
   sodipodi:docname="alcove.svg">
  <metadata
     id="metadata1069">
    <rdf:RDF>
      <cc:Work
         rdf:about="">
        <dc:format>image/svg+xml</dc:format>
        <dc:type
           rdf:resource="http://purl.org/dc/dcmitype/StillImage" />
      </cc:Work>
    </rdf:RDF>
  </metadata>
  <sodipodi:namedview
     pagecolor="#ffffff"
     bordercolor="#666666"
     borderopacity="1"
     objecttolerance="10"
     gridtolerance="10"
     guidetolerance="10"
     inkscape:pageopacity="0"
     inkscape:pageshadow="2"
     inkscape:window-width="1920"
     inkscape:window-height="1062"
     id="namedview1067"
     showgrid="false"
     inkscape:zoom="1.3927039"
     inkscape:cx="68.149839"
     inkscape:cy="291.25"
     inkscape:window-x="0"
     inkscape:window-y="0"
     inkscape:window-maximized="1"
     inkscape:current-layer="svg2" />
  <defs
     id="defs4">
    <style
       type="text/css"
       id="style6">
*{stroke-linecap:butt;stroke-linejoin:round;}
  </style>
    <defs
       id="defs971">
      <path
         style="stroke-linecap:butt;stroke-linejoin:round"
         inkscape:connector-curvature="0"
         id="Cmmi10-ae"
         d="m 20.125,-1.125 q -4.75,0 -8.4375,2.25 Q 8.01562,3.375 6,7.17188 4,10.9844 4,15.8281 4,22.6094 7.78125,29.25 11.5781,35.8906 17.8438,40.0312 24.125,44.1875 31,44.1875 q 5.0781,0 8.9375,-2.6563 3.8594,-2.6562 5.8594,-7.0781 2,-4.4219 2,-9.4531 l 0.1093,-6.6875 q 3.4063,4.7344 5.7813,9.8281 2.375,5.1094 3.6406,10.5782 0.1875,0.5937 0.7813,0.5937 l 1.1718,0 q 0.9219,0 0.9219,-0.9375 0,-0.0938 -0.0937,-0.2812 -1.1719,-4.5938 -2.9375,-8.8282 -1.75,-4.2187 -4.125,-8.1718 -2.3594,-3.9532 -5.1407,-7.1719 0,-12.40628 2.875,-12.40628 1.8594,0 3.0469,1.09376 1.2031,1.10937 2.1094,2.71874 0.9063,1.60938 1.1406,1.65626 l 1.2188,0 q 0.7812,0 0.7812,-0.98438 0,-2.48438 -2.8593,-4.8125 -2.8438,-2.3125 -5.625,-2.3125 -3.625,0 -6.0157,2.34375 -2.3906,2.34375 -3.2656,6.10937 -4.6875,-4 -10.1563,-6.23437 Q 25.6875,-1.125 20.125,-1.125 m 0.1875,2.64062 q 10.6875,0 20.5156,8.78128 -0.0625,0.5937 -0.1562,1.4375 -0.0938,0.8594 -0.0938,0.9687 l 0,10.7813 q 0,18.125 -9.7656,18.125 -5.8594,0 -10.2656,-5.0156 -4.3907,-5 -6.6094,-11.9688 -2.2187,-6.9531 -2.2187,-12.7031 0,-4.3594 2.2187,-7.39065 2.2187,-3.01563 6.375,-3.01563" />
      <path
         style="stroke-linecap:butt;stroke-linejoin:round"
         inkscape:connector-curvature="0"
         id="Cmr10-30"
         d="m 25,-2.20312 q -12.25,0 -16.67188,10.07812 -4.42187,10.0938 -4.42187,24.0156 0,8.6875 1.57813,16.3438 Q 7.07812,55.9062 11.7812,61.25 16.5,66.6094 25,66.6094 q 6.5938,0 10.7812,-3.2344 4.2032,-3.2188 6.4063,-8.3281 2.2031,-5.0938 3,-10.9375 Q 46,38.2812 46,31.8906 46,23.2969 44.4062,15.7969 42.8281,8.29688 38.1875,3.04688 33.5469,-2.20312 25,-2.20312 m 0,2.593745 q 5.5625,0 8.2969,5.703125 2.7343,5.71875 3.375,12.65625 0.6406,6.9375 0.6406,14.75 0,7.5156 -0.6406,13.8594 -0.6407,6.3594 -3.3594,11.5 -2.7031,5.1562 -8.3125,5.1562 -5.6562,0 -8.3906,-5.1875 -2.7344,-5.1719 -3.375,-11.5 -0.6406,-6.3125 -0.6406,-13.8281 0,-5.5625 0.2656,-10.5 0.2812,-4.9375 1.4531,-10.1875 1.1719,-5.25 3.7813,-8.84375 Q 20.7031,0.390625 25,0.390625" />
    </defs>
    <defs
       id="defs982">
      <path
         style="stroke-linecap:butt;stroke-linejoin:round"
         inkscape:connector-curvature="0"
         id="Cmr10-31"
         d="m 9.28125,0 0,3.51562 q 12.49995,0 12.49995,3.17188 l 0,52.5 q -5.1718,-2.5 -13.0937,-2.5 l 0,3.5156 q 12.2656,0 18.5156,6.4063 l 1.4063,0 q 0.3437,0 0.6562,-0.2813 0.3282,-0.2656 0.3282,-0.6093 l 0,-59.0313 q 0,-3.17188 12.5,-3.17188 L 42.0938,0 Z" />
    </defs>
    <defs
       id="defs992">
      <path
         style="stroke-linecap:butt;stroke-linejoin:round"
         inkscape:connector-curvature="0"
         id="Cmr10-32"
         d="m 4.98438,0 0,2.6875 q 0,0.25 0.1875,0.53125 L 20.7031,20.4062 q 3.5157,3.8126 5.7031,6.3907 2.2032,2.5937 4.3438,5.9687 2.1562,3.375 3.4062,6.8594 1.25,3.4844 1.25,7.3906 0,4.1094 -1.5156,7.8438 -1.5156,3.7344 -4.5156,5.9844 -3,2.25 -7.25,2.25 -4.3438,0 -7.8125,-2.625 -3.4687,-2.6094 -4.89062,-6.75 0.39062,0.0937 1.07812,0.0937 2.25,0 3.8281,-1.5156 1.5938,-1.5157 1.5938,-3.9063 0,-2.2968 -1.5938,-3.8906 Q 12.75,42.9219 10.5,42.9219 q -2.34375,0 -3.9375,1.625 -1.57812,1.6406 -1.57812,3.8437 0,3.7656 1.40624,7.0469 1.42188,3.2969 4.07818,5.8594 2.6718,2.5781 6.0156,3.9375 3.3437,1.375 7.0937,1.375 5.7188,0 10.6407,-2.4219 4.9374,-2.4219 7.8124,-6.8437 2.8907,-4.4063 2.8907,-10.3282 0,-4.3437 -1.9063,-8.25 -1.9062,-3.9062 -4.8906,-7.1094 -2.9688,-3.1874 -7.6094,-7.25 Q 25.875,20.3594 24.4219,19 L 13.0938,8.10938 l 9.6093,0 q 7.0781,0 11.8438,0.10937 4.7656,0.125 5.0469,0.375 Q 40.7656,9.85938 42,17.8281 l 2.9219,0 L 42.0938,0 Z" />
    </defs>
    <defs
       id="defs1002">
      <path
         style="stroke-linecap:butt;stroke-linejoin:round"
         inkscape:connector-curvature="0"
         id="Cmr10-a4"
         d="m 3.21875,0 0,3.51562 q 7.81245,0 9.76565,5.90626 L 32.5156,70.5156 q 0.3438,1.0625 1.4688,1.0625 l 1.3125,0 q 0.5469,0 0.9531,-0.2969 Q 36.6719,71 36.8125,70.5156 L 57.1719,6.6875 q 0.8906,-2.14062 3.125,-2.65625 2.25,-0.51563 5.8125,-0.51563 l 0,-3.51562 -27.0938,0 0,3.51562 q 8.5,0 8.5,2.6875 0,0.29688 -0.1094,0.48438 L 31.5938,56.2969 16.7031,9.42188 Q 16.5,8.73438 16.5,8.40625 q 0,-2.5 2.4688,-3.70313 2.4687,-1.1875 5.25,-1.1875 L 24.2188,0 Z" />
    </defs>
    <defs
       id="defs1026">
      <path
         style="stroke-linecap:butt;stroke-linejoin:round"
         inkscape:connector-curvature="0"
         id="Cmsy10-5f"
         d="M 31.5,-0.984375 5.8125,57.0781 q -0.20312,0.25 -0.20312,0.7344 0,0.7344 0.57812,1.3594 0.59375,0.6406 1.4375,0.6406 1.10938,0 1.89062,-1.2187 L 33.2969,4.6875 57.1719,58.5938 q 0.5937,1.2187 1.8125,1.2187 0.8281,0 1.4062,-0.5937 0.5938,-0.5782 0.5938,-1.4063 0,-0.4844 -0.0938,-0.7344 L 35.2031,-0.984375 q -0.625,-1.218745 -1.9062,-1.218745 -1.3125,0 -1.7969,1.218745" />
      <path
         style="stroke-linecap:butt;stroke-linejoin:round"
         inkscape:connector-curvature="0"
         id="Cmmi10-48"
         d="m 4.6875,0 q -0.96875,0 -0.96875,1.3125 0.04687,0.25 0.1875,0.85938 0.14063,0.60937 0.40625,0.96874 0.28125,0.375 0.67188,0.375 6.09372,0 8.50002,0.6875 1.3125,0.4375 1.8906,2.6875 L 29.1094,61.8125 q 0.1875,0.9844 0.1875,1.375 0,1.0781 -1.2188,1.2187 -1.8593,0.3907 -7.1719,0.3907 -0.9843,0 -0.9843,1.3125 0.3437,1.2812 0.5312,1.7344 0.2031,0.4687 1.125,0.4687 l 26.9063,0 q 1.0312,0 1.0312,-1.3125 -0.0468,-0.25 -0.2031,-0.8438 -0.1406,-0.5781 -0.3906,-0.9687 -0.2344,-0.3906 -0.7344,-0.3906 -6.0937,0 -8.4844,-0.6875 Q 38.375,63.625 37.7969,61.375 l -6.0157,-24.0625 30.0313,0 6.1094,24.5 q 0.1875,0.9844 0.1875,1.375 0,1.0781 -1.2188,1.2187 -1.9062,0.3907 -7.1718,0.3907 -1.0313,0 -1.0313,1.3125 0.3437,1.2812 0.5313,1.7344 0.2031,0.4687 1.1874,0.4687 l 26.9063,0 q 0.9687,0 0.9687,-1.3125 -0.0468,-0.25 -0.2031,-0.8594 -0.1406,-0.6094 -0.4062,-0.9844 -0.2657,-0.3593 -0.6563,-0.3593 -6.1094,0 -8.5,-0.6875 -1.3125,-0.4375 -1.9062,-2.7344 L 62.8906,6.5 q -0.1875,-0.98438 -0.1875,-1.42188 0,-1.03124 1.2188,-1.17187 1.9062,-0.39063 7.1719,-0.39063 1.0312,0 1.0312,-1.3125 Q 71.8281,1.03125 71.5312,0.515625 71.2344,0 70.4062,0 L 43.5,0 q -1.0156,0 -1.0156,1.3125 0.1875,0.73438 0.2812,1.07812 0.1094,0.34376 0.375,0.73438 0.2656,0.39062 0.6563,0.39062 6.1093,0 8.5,0.6875 1.3125,0.4375 1.9062,2.6875 l 6.6875,26.90628 -29.9844,0 L 24.125,6.5 q -0.25,-1.21875 -0.25,-1.42188 0,-1.03124 1.2188,-1.17187 Q 27,3.51562 32.3281,3.51562 q 0.9688,0 0.9688,-1.3125 Q 32.9531,0.875 32.7344,0.4375 32.5156,0 31.5938,0 Z" />
    </defs>
  </defs>
  <path
     style="color:#000000;font-style:normal;font-variant:normal;font-weight:normal;font-stretch:normal;font-size:medium;line-height:normal;font-family:sans-serif;text-indent:0;text-align:start;text-decoration:none;text-decoration-line:none;text-decoration-style:solid;text-decoration-color:#000000;letter-spacing:normal;word-spacing:normal;text-transform:none;direction:ltr;block-progression:tb;writing-mode:lr-tb;baseline-shift:baseline;text-anchor:start;white-space:normal;clip-rule:nonzero;display:inline;overflow:visible;visibility:visible;opacity:1;isolation:auto;mix-blend-mode:normal;color-interpolation:sRGB;color-interpolation-filters:linearRGB;solid-color:#000000;solid-opacity:1;fill:none;fill-opacity:1;fill-rule:nonzero;stroke:#ff0000;stroke-width:0.16;stroke-linecap:round;stroke-linejoin:round;stroke-miterlimit:4;stroke-dasharray:none;stroke-dashoffset:0;stroke-opacity:1;color-rendering:auto;image-rendering:auto;shape-rendering:auto;text-rendering:auto;enable-background:accumulate"
     d="M 204.80111,47.824649 192.07767,69.859025 179.39954,47.899649 a 178.34143,178.34143 0 0 0 -2.15781,0.260936 l 13.10469,22.69844 -40.90782,0 11.87031,-20.562496 a 178.34143,178.34143 0 0 0 -2.65156,0.595312 l -10.95,18.967184 -8.09218,-14.017184 a 178.34143,178.34143 0 0 0 -1.93906,0.643744 l 8.29843,14.37344 -40.6,0 a 178.34143,178.34143 0 0 0 -3.90781,2.242192 l -20.314057,35.184363 -0.002,0 -8.04532,-13.934367 a 178.34143,178.34143 0 0 0 -1.53281,1.34688 l 7.84531,13.587487 -20.91094,0 a 178.34143,178.34143 0 0 0 -1.76406,2 l 22.67657,0 -20.45469,35.425 -12.58282,-21.79374 a 178.34143,178.34143 0 0 0 -1.18906,1.93749 l 12.04219,20.85625 -23.83906,0 a 178.34143,178.34143 0 0 0 -0.96719,2 l 24.80625,0 -20.45313,35.42657 -11.05624,-19.14688 a 178.34143,178.34143 0 0 0 -0.89376,2.45157 l 10.21719,17.69531 -15.225,0 a 178.34143,178.34143 0 0 0 -0.51094,2 l 15.73594,0 -19.6375,34.0125 a 178.34143,178.34143 0 0 0 -0.17344,3.45468 178.34143,178.34143 0 0 0 0.11563,3.27656 l 19.69531,34.10938 -15.62812,0 a 178.34143,178.34143 0 0 0 0.45,2 l 15.17812,0 -10.20312,17.67188 a 178.34143,178.34143 0 0 0 0.84218,2.53906 l 11.09375,-19.21094 20.45313,35.42657 -24.86875,0 a 178.34143,178.34143 0 0 0 0.89531,2 l 23.97344,0 -12.05469,20.87969 a 178.34143,178.34143 0 0 0 1.275,1.78593 l 12.50938,-21.66562 20.45469,35.425 -22.57188,0 a 178.34143,178.34143 0 0 0 1.75781,2 l 20.81407,0 -7.82657,13.55469 a 178.34143,178.34143 0 0 0 1.50313,1.4 l 8.05625,-13.95469 20.343747,35.23593 a 178.34143,178.34143 0 0 0 3.57031,2.18907 l 40.90781,0 -8.37969,14.51562 a 178.34143,178.34143 0 0 0 1.90782,0.69687 l 8.20468,-14.20937 11.09688,19.21875 a 178.34143,178.34143 0 0 0 2.53125,0.38282 l -11.89688,-20.60469 40.90782,0 -13.19688,22.85625 a 178.34143,178.34143 0 0 0 2.24375,0.11249 l 12.68282,-21.96874 12.86249,22.27656 a 178.34143,178.34143 0 0 0 2.21563,-0.15938 l -13.34532,-23.11718 40.90782,0 -12.275,21.26093 a 178.34143,178.34143 0 0 0 2.55469,-0.425 l 11.45156,-19.83281 8.61562,14.92188 a 178.34143,178.34143 0 0 0 1.93907,-0.64375 l -8.82188,-15.28125 40.90626,0 -1.40782,2.43905 a 178.34143,178.34143 0 0 0 7.73438,-4.43749 l -2.86407,0 20.45469,-35.42813 9.0875,15.74062 a 178.34143,178.34143 0 0 0 1.53125,-1.34374 l -8.88906,-15.39531 23.99531,0 a 178.34143,178.34143 0 0 0 1.75157,-2 l -25.74688,0 20.45469,-35.425 13.90937,24.08905 a 178.34143,178.34143 0 0 0 1.31251,-1.72812 l -13.49063,-23.36093 26.88437,0 a 178.34143,178.34143 0 0 0 0.96563,-2 l -27.85,0 20.45625,-35.42657 12.9125,22.36562 a 178.34143,178.34143 0 0 0 0.89375,-2.44843 l -12.07656,-20.91719 18.25156,0 a 178.34143,178.34143 0 0 0 0.51093,-2 l -18.76249,0 20.45312,-35.425 2.08437,3.60938 a 178.34143,178.34143 0 0 0 0.18438,-3.68438 l -0.53594,-0.92656 0.58125,0 a 178.34143,178.34143 0 0 0 0.0484,-0.95938 178.34143,178.34143 0 0 0 -0.0375,-1.04062 l -0.59219,0 0.55781,-0.96718 a 178.34143,178.34143 0 0 0 -0.13281,-3.77032 l -2.15781,3.7375 -20.45312,-35.42656 18.61406,0 a 178.34143,178.34143 0 0 0 -0.44844,-2 l -18.16562,0 12.09374,-20.94844 a 178.34143,178.34143 0 0 0 -0.84374,-2.53594 l -12.97969,22.48438 -20.45625,-35.42657 27.8375,0 a 178.34143,178.34143 0 0 0 -0.89375,-2 l -26.94375,0 13.37343,-23.15781 a 178.34143,178.34143 0 0 0 -1.27812,-1.7875 l -13.82656,23.94531 -9.725,-16.84531 c 0.72958,-0.42118 1.51259,-0.87533 2.22656,-1.2875 l 1,1.73281 a 1.0001,1.0001 0 0 0 1.7,0.0516 l 3.64688,-5.52188 a 1.0001,1.0001 0 0 0 -0.95,-1.61874 l -6.59063,0.39531 a 1.0001,1.0001 0 0 0 -0.80625,1.49843 l 1,1.73126 c -0.71397,0.41216 -1.49698,0.86474 -2.22656,1.28593 l -9.72969,-16.84688 25.50625,0 a 178.34143,178.34143 0 0 0 -1.75625,-2 l -23.74687,0 8.84687,-15.321867 a 178.34143,178.34143 0 0 0 -1.50469,-1.40156 l -9.075,15.723427 -20.45469,-35.426555 2.67188,0 a 178.34143,178.34143 0 0 0 -7.54531,-4.443752 l 1.41094,2.443752 -40.90626,0 8.86406,-15.353128 a 178.34143,178.34143 0 0 0 -1.97187,-0.587496 l -8.625,14.940624 -11.33281,-19.629688 a 178.34143,178.34143 0 0 0 -2.53126,-0.382808 l 12.13282,21.012496 -40.90782,0 13.23438,-22.921872 a 178.34143,178.34143 0 0 0 -2.24218,-0.112504 z m -99.73438,25.034376 40.90781,0 -20.45468,35.426555 -20.45313,-35.426555 z m 44.37187,0 40.90782,0 -20.45625,35.426555 -20.45157,-35.426555 z m 44.37031,0 40.90782,0 -9.72656,16.848438 c -3.40559,-1.96619 -6.49173,-3.74837 -10.22657,-5.904686 a 1.0003279,1.0003279 0 0 0 -1,1.732806 c 3.734,2.15584 6.82011,3.93578 10.225,5.90157 l -9.72656,16.848427 -9.72656,-16.848427 c 0.72975,-0.4213 1.514,-0.8721 2.22812,-1.28438 l 1,1.73125 a 1.0001,1.0001 0 0 0 1.70157,0.0516 l 3.64374,-5.52187 a 1.0001,1.0001 0 0 0 -0.94843,-1.618752 l -6.59062,0.396882 a 1.0001,1.0001 0 0 0 -0.80626,1.49843 l 1,1.72969 c -0.71434,0.41241 -1.49812,0.86606 -2.22812,1.2875 l -9.72657,-16.848438 z m 44.37188,0 40.90626,0 -9.72813,16.848438 c -3.40576,-1.96619 -6.49139,-3.74836 -10.22657,-5.904686 a 1.0003279,1.0003279 0 0 0 -1,1.732806 c 3.73519,2.15632 6.82082,3.93694 10.22657,5.90313 l -9.72657,16.848437 -9.725,-16.849997 c 0.72976,-0.4213 1.51399,-0.8721 2.22813,-1.28438 l 1,1.73125 a 1.0001,1.0001 0 0 0 1.70156,0.0516 l 3.64375,-5.52187 a 1.0001,1.0001 0 0 0 -0.94844,-1.618752 l -6.59062,0.396882 a 1.0001,1.0001 0 0 0 -0.80625,1.49843 l 1,1.72969 c -0.71438,0.41241 -1.49812,0.86606 -2.22813,1.2875 l -9.72656,-16.848438 z m -134.84375,0.99844 20.45156,35.428115 -40.906247,0 20.454687,-35.428115 z m 44.37031,0.0016 20.45313,35.426555 -40.90781,0 20.45468,-35.426555 z m 44.37032,0 9.72812,16.848438 c -3.40585,1.96624 -6.4944,3.7483 -10.22968,5.90469 a 1.0001,1.0001 0 1 0 1,1.72969 c 3.7349,-2.15616 6.82102,-3.93863 10.22656,-5.90469 l 9.72968,16.848427 -19.45624,0 0,-2.57187 2,0 a 1.0001,1.0001 0 0 0 0.89531,-1.44844 l -2.95625,-5.909377 a 1.0001,1.0001 0 0 0 -1.87657,-0.006 1.0001,1.0001 0 0 0 -0.002,0.006 l -2.95469,5.909377 a 1.0001,1.0001 0 0 0 0.89376,1.44844 l 2,0 0,2.57187 -19.45313,0 20.45469,-35.426555 z m 44.37187,0 9.72657,16.848438 c -3.40587,1.96625 -6.49317,3.7483 -10.22813,5.90469 a 1.0001,1.0001 0 1 0 1,1.72969 c 3.73457,-2.15616 6.82103,-3.93864 10.22656,-5.90469 l 9.72813,16.848427 -40.90782,0 9.72657,-16.845307 c 0.72977,0.42134 1.51397,0.87206 2.22812,1.28438 l -1,1.73281 a 1.0001,1.0001 0 0 0 0.80469,1.49843 l 6.61406,0.39532 a 1.0001,1.0001 0 0 0 0.925,-1.62188 l -3.64375,-5.52031 a 1.0001,1.0001 0 0 0 -1.7,0.0516 l -1,1.73126 c -0.71368,-0.41204 -1.49727,-0.86334 -2.22656,-1.28438 l 9.72656,-16.848438 z m 44.36875,0 20.45625,35.426555 -19.45625,0 0,-11.809367 a 1.0001,1.0001 0 1 0 -2,0 l 0,11.809367 -19.45469,0 9.72657,-16.845307 c 0.73029,0.42162 1.51506,0.87181 2.22969,1.28438 l -1,1.73281 a 1.0001,1.0001 0 0 0 0.80625,1.49843 l 6.6125,0.39532 a 1.0001,1.0001 0 0 0 0.925,-1.62188 l -3.64375,-5.52031 a 1.0001,1.0001 0 0 0 -1.7,0.0516 l -1,1.73126 c -0.71416,-0.41231 -1.49833,-0.86306 -2.22813,-1.28438 l 9.72656,-16.848438 z m -72.66094,13.179688 c -0.20658,0.11927 -0.45297,0.26119 -0.66093,0.38125 l -0.19063,-0.32969 0.85156,-0.0516 z m 44.37032,0 c -0.2066,0.11927 -0.45142,0.26119 -0.65938,0.38125 l -0.19218,-0.32969 0.85156,-0.0516 z m -43.36876,1.73125 -0.47031,0.71406 -0.19218,-0.33125 c 0.20869,-0.12048 0.45519,-0.26313 0.66249,-0.38281 z m 44.37032,0 -0.47032,0.7125 -0.19062,-0.32969 c 0.2087,-0.12048 0.45361,-0.26313 0.66094,-0.38281 z m -22.65781,3.89219 0.46875,0.71094 c -0.20615,-0.11903 -0.4503,-0.26145 -0.65782,-0.38125 l 0.18907,-0.32969 z m 44.37187,0 0.47032,0.7125 c -0.2066,-0.11928 -0.45296,-0.25962 -0.66094,-0.37969 l 0.19062,-0.33281 z m -45.56094,2.0625 c 0.20871,0.12048 0.45519,0.26312 0.6625,0.38281 l -0.85468,-0.05 0.19218,-0.33281 z m 44.37032,0.002 c 0.20798,0.12007 0.45434,0.26197 0.66094,0.38125 l -0.85156,-0.05 0.19062,-0.33125 z m -82.97656,9.223437 0,0.76406 -0.38126,0 0.38126,-0.76406 z m 2,0 0.38124,0.76406 -0.38124,0 0,-0.76406 z m -110.193757,7.33593 40.906247,0 -20.45156,35.42813 -20.454687,-35.42813 z m 44.370317,0 40.90781,0 -9.72657,16.84688 c -3.40558,-1.96619 -6.49172,-3.74681 -10.22656,-5.90313 a 1.0001642,1.0001642 0 1 0 -1,1.73125 c 3.734,2.15583 6.8201,3.93734 10.225,5.90313 l -9.725,16.84687 -9.72656,-16.84531 c 0.72956,-0.42118 1.51262,-0.87533 2.22656,-1.2875 l 1,1.73281 a 1.0001,1.0001 0 0 0 1.70156,0.0516 l 3.6422,-5.51875 a 1.0001,1.0001 0 0 0 -0.94688,-1.62187 l -6.59063,0.39531 a 1.0001,1.0001 0 0 0 -0.80625,1.49843 l 1,1.73126 c -0.71394,0.41216 -1.497,0.86474 -2.22656,1.28593 l -9.72812,-16.84688 z m 44.37031,0 19.45313,0 0,11.80782 a 1.0001,1.0001 0 1 0 2,0 l 0,-11.80782 19.45624,0 -9.72656,16.84688 c -0.73,-0.42144 -1.51532,-0.87353 -2.22968,-1.28593 l 1,-1.73126 a 1.0001,1.0001 0 0 0 -0.80625,-1.49843 l -6.60313,-0.39531 a 1.0001,1.0001 0 0 0 -0.92813,1.62968 l 3.63751,5.51094 a 1.0001,1.0001 0 0 0 1.7,-0.0516 l 1,-1.73281 c 0.71388,0.41214 1.49704,0.86636 2.22656,1.2875 l -9.725,16.84531 -20.45469,-35.425 z m 44.37187,0 40.90782,0 -20.45313,35.425 -20.45469,-35.425 z m 44.36875,0 19.45469,0 0,2.57344 -2,0 a 1.0001,1.0001 0 0 0 -0.89375,1.44844 l 2.95469,5.91094 a 1.0001,1.0001 0 0 0 1.87657,0.003 l 2.95781,-5.91407 a 1.0001,1.0001 0 0 0 -0.89532,-1.44844 l -2,0 0,-2.57344 19.45313,0 -6.08281,10.53907 -3.64376,6.30781 c -3.40576,-1.96619 -6.49137,-3.7468 -10.22656,-5.90313 a 1.0001642,1.0001642 0 1 0 -1,1.73125 c 3.73517,2.15632 6.8208,3.93851 10.22656,5.90469 l -9.72656,16.84531 -20.45469,-35.425 z m -1.73125,0.99844 20.4547,35.42656 -40.90626,0 20.45156,-35.42656 z m -133.11249,0.002 9.72812,16.84688 c -3.40563,1.96611 -6.49155,3.74846 -10.22656,5.90469 a 1.0003288,1.0003288 0 0 0 1,1.73281 c 3.73503,-2.15623 6.82092,-3.93857 10.22656,-5.90469 l 9.72656,16.84531 -19.45312,0 0,-2.57187 2,0 a 1.0001,1.0001 0 0 0 0.89531,-1.44687 l -2.96094,-5.92344 a 1.0001,1.0001 0 0 0 -1.87188,0.008 1.0001,1.0001 0 0 0 -0.002,0.006 l -2.95468,5.90938 a 1.0001,1.0001 0 0 0 0.89375,1.44687 l 2,0 0,2.57344 -19.45469,0 20.45313,-35.42657 z m 44.37031,0 20.45625,35.425 -19.45313,0 0,-11.80781 a 1.0001,1.0001 0 1 0 -2,0 l 0,11.80781 -19.45469,0 9.725,-16.84531 c 0.72979,0.42134 1.51554,0.87363 2.22969,1.28594 l -1,1.73125 a 1.0001,1.0001 0 0 0 0.80625,1.49843 l 6.60313,0.39688 a 1.0001,1.0001 0 0 0 0.92812,-1.63124 l -3.63594,-5.51095 a 1.0001,1.0001 0 0 0 -1.70156,0.0516 l -1,1.73125 c -0.71368,-0.41204 -1.49727,-0.8649 -2.22656,-1.28594 l 9.72344,-16.84688 z m 44.37187,0 20.45469,35.425 -19.45313,0 0,-2.57187 2,0 a 1.0001,1.0001 0 0 0 0.89375,-1.44687 l -2.95624,-5.91095 a 1.0001,1.0001 0 0 0 -1.875,-0.005 1.0001,1.0001 0 0 0 -0.002,0.005 l -2.95468,5.91095 a 1.0001,1.0001 0 0 0 0.89374,1.44687 l 2,0 0,2.57187 -19.45469,0 9.72657,-16.84531 c 3.40586,1.96624 6.49283,3.7483 10.22812,5.90469 a 1.0003288,1.0003288 0 0 0 1,-1.73281 c -3.73528,-2.15639 -6.82227,-3.93845 -10.22812,-5.90469 l 9.72656,-16.84688 z m 88.74219,0 9.72657,16.84688 c -3.40566,1.96612 -6.49187,3.74845 -10.22657,5.90469 a 1.0003288,1.0003288 0 0 0 1,1.73281 c 3.73467,-2.15623 6.82094,-3.93858 10.22657,-5.90469 l 9.72656,16.84531 -40.90625,0 9.72656,-16.84531 c 0.72932,0.42106 1.51286,0.87391 2.22656,1.28594 l -1,1.73125 a 1.0001,1.0001 0 0 0 0.80626,1.49843 l 6.60156,0.39688 a 1.0001,1.0001 0 0 0 0.92968,-1.63124 l -3.63593,-5.51095 a 1.0001,1.0001 0 0 0 -1.70157,0.0516 l -1,1.73125 c -0.7137,-0.41204 -1.49724,-0.86489 -2.22656,-1.28594 l 9.72656,-16.84688 z m -221.853117,0.002 20.453117,35.42343 -40.906247,0 20.45313,-35.42343 z m 198.287497,3.57187 0.37968,0 0,0.76407 -0.37968,-0.76407 z m 2.37968,0 0.38125,0 -0.38125,0.76407 0,-0.76407 z m -140.21875,9.60625 c -0.2066,0.11928 -0.4514,0.26119 -0.65937,0.38126 l -0.19219,-0.33126 0.85156,-0.05 z m 56.58594,0 0.85,0.05 -0.19063,0.33126 c -0.20749,-0.1198 -0.45325,-0.26226 -0.65937,-0.38126 z m 120.89688,0 c -0.20661,0.11928 -0.45295,0.26118 -0.66094,0.38126 l -0.19062,-0.33126 0.85156,-0.05 z m -176.47813,1.72969 -0.47344,0.71562 -0.19062,-0.33281 c 0.20916,-0.12075 0.45629,-0.26286 0.66406,-0.38281 z m 54.57812,0 c 0.20731,0.11968 0.45382,0.26234 0.6625,0.38281 l -0.19218,0.33281 -0.47032,-0.71562 z m 122.90157,0 -0.47031,0.71562 -0.19219,-0.33281 c 0.20871,-0.12048 0.45517,-0.26312 0.6625,-0.38281 z m -155.76719,3.89375 0.46875,0.71094 c -0.2066,-0.11928 -0.45141,-0.26118 -0.65937,-0.38125 l 0.19062,-0.32969 z m 133.11094,0 0.47187,0.7125 c -0.20733,-0.11969 -0.45378,-0.26232 -0.66249,-0.38281 l 0.19062,-0.32969 z m -134.30156,2.0625 c 0.20869,0.12049 0.45361,0.26312 0.66093,0.38281 l -0.85313,-0.0516 0.1922,-0.33125 z m 133.11094,0 c 0.20869,0.12049 0.45516,0.26312 0.66249,0.38281 l -0.85469,-0.0516 0.1922,-0.33125 z m -82.97345,9.22032 0,0.76718 -0.38437,0 0.38437,-0.76718 z m -88.74218,0.003 0,0.76406 -0.38125,0 0.38125,-0.76406 z m 2,0 0.38125,0.76406 -0.38125,0 0,-0.76406 z m 88.74218,0 0.38125,0.76406 -0.38125,0 0,-0.76406 z m -154.565617,7.33593 40.907807,0 -20.453117,35.42657 -20.45469,-35.42657 z m 44.370307,0 19.45313,0 0,11.81095 a 1.0001,1.0001 0 1 0 2,0 l 0,-11.81095 19.45312,0 -20.45468,35.42657 -9.72501,-16.84531 c 0.73006,-0.42147 1.51528,-0.87507 2.22969,-1.28751 l 1,1.73282 a 1.0001,1.0001 0 0 0 1.69844,0.05 l 3.64688,-5.52188 a 1.0001,1.0001 0 0 0 -0.93751,-1.61874 1.0001,1.0001 0 0 0 -0.003,0 l -6.60156,0.39687 a 1.0001,1.0001 0 0 0 -0.80469,1.49844 l 1,1.72969 c -0.71443,0.41244 -1.49806,0.86601 -2.22813,1.28749 l -9.72656,-16.84844 z m 44.37031,0 19.45469,0 0,2.575 -2,0 a 1.0001,1.0001 0 0 0 -0.89531,1.44688 l 2.95469,5.9125 a 1.0001,1.0001 0 0 0 1.87812,0.002 l 2.95625,-5.91407 a 1.0001,1.0001 0 0 0 -0.89375,-1.44688 l -2,0 0,-2.575 19.45313,0 -9.72656,16.84844 c -3.40576,-1.96619 -6.49139,-3.74836 -10.22657,-5.90469 a 1.0003331,1.0003331 0 1 0 -1,1.73282 c 3.73433,2.15582 6.81993,3.93578 10.225,5.90156 l -9.72812,16.84844 -20.45157,-35.42657 z m 44.37031,0 19.45469,0 0,11.81095 a 1.0001,1.0001 0 1 0 2,0 l 0,-11.81095 19.45313,0 -20.45469,35.42657 -9.725,-16.84531 c 0.72951,-0.42115 1.51267,-0.87536 2.22656,-1.28751 l 1,1.73282 a 1.0001,1.0001 0 0 0 1.70157,0.05 l 3.64218,-5.51719 a 1.0001,1.0001 0 0 0 -0.93124,-1.62343 1.0001,1.0001 0 0 0 -0.005,0 l -6.60156,0.39687 a 1.0001,1.0001 0 0 0 -0.80626,1.49844 l 1,1.73125 c -0.71365,0.412 -1.4973,0.86492 -2.22656,1.28593 l -9.72813,-16.84844 z m 44.37188,0 40.90626,0 -20.4547,35.42813 -20.45156,-35.42813 z m 44.36875,0 40.90782,0 -20.45313,35.42813 -20.45469,-35.42813 z m -223.584367,1 20.45469,35.42657 -40.90782,0 20.45313,-35.42657 z m 88.742177,0 20.45313,35.42657 -40.90781,0 20.45468,-35.42657 z m 44.37032,0 9.72812,16.84844 c -3.40598,1.96631 -6.49424,3.74822 -10.22968,5.90469 a 1.0001599,1.0001599 0 1 0 1,1.73125 c 3.73528,-2.15638 6.82382,-3.93687 10.22968,-5.90312 l 9.72656,16.84531 -40.90937,0 9.72656,-16.84531 c 0.7298,0.42133 1.51396,0.87207 2.22813,1.28437 l -1,1.73281 a 1.0001,1.0001 0 0 0 0.80781,1.49844 l 6.60312,0.39531 a 1.0001,1.0001 0 0 0 0.92813,-1.62968 l -3.6375,-5.51094 a 1.0001,1.0001 0 0 0 -1.70156,0.0516 l -1,1.72969 c -0.7137,-0.41203 -1.49724,-0.86333 -2.22656,-1.28438 l 9.72656,-16.84844 z m 44.37187,0 20.45313,35.42657 -40.90782,0 20.45469,-35.42657 z m 88.73907,0 20.45468,35.42657 -40.90937,0 20.45469,-35.42657 z m -221.85157,0.002 9.72656,16.84687 c -3.40576,1.96619 -6.49139,3.74837 -10.22656,5.90469 a 1.0001599,1.0001599 0 1 0 1,1.73125 c 3.73502,-2.15623 6.82092,-3.937 10.22656,-5.90312 l 9.725,16.84531 -19.45156,0 0,-2.57188 2,0 a 1.0001,1.0001 0 0 0 0.89375,-1.44843 l -2.96093,-5.92344 a 1.0001,1.0001 0 0 0 -1.87032,0.0109 l -2.957807,5.91407 a 1.0001,1.0001 0 0 0 0.895307,1.44687 l 2,0 0,2.57188 -19.454687,0 20.454687,-35.425 z m 177.48125,0.002 20.45625,35.42344 -40.90937,0 20.45312,-35.42344 z m -112.30625,3.57187 0.38125,0 0,0.76407 -0.38125,-0.76407 z m 2.38125,0 0.38125,0 -0.38125,0.76407 0,-0.76407 z m -51.47656,9.60469 c -0.20732,0.1197 -0.4538,0.26231 -0.6625,0.38282 l -0.19063,-0.33125 0.85313,-0.0516 z m 88.74218,0 c -0.2073,0.1197 -0.4538,0.26233 -0.66249,0.38282 l -0.19063,-0.33125 0.85312,-0.0516 z m -87.74062,1.73126 -0.47344,0.71405 -0.19062,-0.33125 c 0.20916,-0.12075 0.45628,-0.26286 0.66406,-0.3828 z m 88.74062,0 -0.47031,0.71405 -0.19218,-0.33125 c 0.20869,-0.12047 0.4552,-0.26312 0.66249,-0.3828 z m -22.65624,3.89218 0.46875,0.71094 c -0.20661,-0.11928 -0.45296,-0.26118 -0.66094,-0.38125 l 0.19219,-0.32969 z m -1.19219,2.0625 c 0.2087,0.12049 0.45518,0.26312 0.6625,0.38281 l -0.85312,-0.0516 0.19062,-0.33125 z m -82.97344,9.225 0,0.7625 -0.38437,0 0.38437,-0.7625 z m 2,0 0.38282,0.7625 -0.38282,0 0,-0.7625 z m -65.824997,7.33594 40.90782,0 -20.45469,35.42656 -20.45313,-35.42656 z m 44.37031,0 19.454687,0 0,11.80938 a 1.0001,1.0001 0 1 0 2,0 l 0,-11.80938 19.45156,0 -9.725,16.84687 c -0.72977,-0.42129 -1.51553,-0.8721 -2.22969,-1.28437 l 1,-1.73281 a 1.0001,1.0001 0 0 0 -0.80468,-1.49844 l -6.60469,-0.39687 a 1.0001,1.0001 0 0 0 -0.92812,1.63124 l 3.63906,5.51094 a 1.0001,1.0001 0 0 0 1.69843,-0.0516 l 1,-1.73126 c 0.71416,0.41228 1.49993,0.86465 2.22969,1.28595 l -9.72656,16.85 -20.454687,-35.42969 z m 44.370317,0 40.90781,0 -9.72813,16.84687 c -0.72926,-0.42101 -1.51292,-0.87237 -2.22656,-1.28437 l 1,-1.73281 a 1.0001,1.0001 0 0 0 -0.80625,-1.49844 l -6.60469,-0.39687 a 1.0001,1.0001 0 0 0 -0.92656,1.63124 l 3.63594,5.51094 a 1.0001,1.0001 0 0 0 1.70156,-0.0516 l 1,-1.73126 c 0.71364,0.412 1.4973,0.86493 2.22656,1.28595 l -9.725,16.84687 -9.72656,-16.84687 c 3.40553,-1.96606 6.49167,-3.74853 10.22656,-5.90469 a 1.0003331,1.0003331 0 1 0 -1,-1.73282 c -3.73475,2.15608 -6.82115,3.93872 -10.22656,5.90469 l -9.72812,-16.84687 z m 44.37031,0 40.90937,0 -20.45468,35.42656 -20.45469,-35.42656 z m 44.37187,0 40.90782,0 -0.7625,1.31562 -19.69219,34.11094 -20.45313,-35.42656 z m 44.36875,0 40.91094,0 -20.45625,35.42656 -20.45469,-35.42656 z m 44.37032,0 40.90937,0 -20.45468,35.42656 -20.45469,-35.42656 z m -1.72969,0.99687 20.45313,35.42969 -40.90782,0 20.45469,-35.42969 z m -266.221877,0.003 20.45313,35.42812 -40.90937,0 20.45624,-35.42812 z m 44.37032,0 20.453117,35.42812 -40.907807,0 20.45469,-35.42812 z m 44.367187,0 9.72812,16.84687 c -0.73,0.42144 -1.51376,0.87509 -2.22812,1.28751 l -1,-1.73282 a 1.0001,1.0001 0 0 0 -1.70157,-0.05 l -3.64218,5.51718 a 1.0001,1.0001 0 0 0 0.93593,1.62344 l 0.002,0 6.6,-0.39531 a 1.0001,1.0001 0 0 0 0.80626,-1.49687 l -1,-1.73438 c 0.71365,-0.412 1.49729,-0.86492 2.22656,-1.28593 l 0.002,0 9.72656,16.84843 -40.90781,0 9.72656,-16.84843 c 3.40597,1.9663 6.49304,3.74821 10.22813,5.90469 a 1.0003331,1.0003331 0 1 0 1,-1.73282 c -3.73511,-2.15648 -6.82214,-3.93837 -10.22813,-5.90469 l 9.72657,-16.84687 z m 44.37031,0 20.45625,35.42812 -19.45313,0 0,-2.57343 2,0 a 1.0001,1.0001 0 0 0 0.89375,-1.44688 l -2.96093,-5.92343 a 1.0001,1.0001 0 0 0 -1.87032,0.008 1.0001,1.0001 0 0 0 -0.003,0.006 l -2.95469,5.90938 a 1.0001,1.0001 0 0 0 0.89531,1.44688 l 2,0 0,2.57343 -19.45625,0 9.72656,-16.84843 c 3.40599,1.96632 6.49424,3.74821 10.22969,5.90469 a 1.0003331,1.0003331 0 1 0 1,-1.73282 c -3.73544,-2.15647 -6.8237,-3.93837 -10.22969,-5.90469 l 9.72657,-16.84687 z m 44.37187,0 20.45469,35.42812 -40.90782,0 20.45313,-35.42812 z m 44.37031,0 20.4547,35.42812 -40.90626,0 4.74375,-8.21718 15.70781,-27.21094 z m 88.74376,0 20.45156,35.42812 -40.90781,0 20.45625,-35.42812 z m -237.93594,13.17969 0.85468,0.05 -0.19062,0.33281 c -0.20917,-0.12076 -0.45628,-0.26287 -0.66406,-0.38281 z m 44.37031,0 0.85312,0.05 -0.19062,0.33281 c -0.20869,-0.12049 -0.45519,-0.26312 -0.6625,-0.38281 z m -45.36875,1.73437 c 0.20706,0.11953 0.45406,0.26092 0.6625,0.38125 l -0.19219,0.32969 -0.47031,-0.71094 z m 44.37187,0 c 0.20659,0.11927 0.45142,0.26119 0.65938,0.38125 l -0.19063,0.32969 -0.46875,-0.71094 z m -21.71718,3.89063 0.19062,0.32969 c -0.20796,0.12005 -0.45278,0.26198 -0.65937,0.38124 l 0.46875,-0.71093 z m 1.19062,2.05937 0,0.002 0.19219,0.33125 -0.85625,0.0531 c 0.20802,-0.1201 0.45464,-0.26504 0.66406,-0.38594 z m 36.60625,9.22812 0,0.76251 -0.38125,0 0.38125,-0.76251 z m 2,0 0.38125,0.76251 -0.38125,0 0,-0.76251 z m -154.567177,7.33594 40.90937,0 -20.45313,35.425 -20.45624,-35.425 z m 44.37187,0 40.907807,0 -20.453117,35.425 -20.45469,-35.425 z m 44.368747,0 40.90781,0 -20.45468,35.425 -20.45313,-35.425 z m 44.37344,0 19.45312,0 0,11.80782 a 1.0001,1.0001 0 1 0 2,0 l 0,-11.80782 19.45313,0 -9.72813,16.84688 c -0.72959,-0.42122 -1.51414,-0.87531 -2.22812,-1.2875 l 1,-1.73125 a 1.0001,1.0001 0 0 0 -0.80626,-1.49844 l -6.60312,-0.39687 a 1.0001,1.0001 0 0 0 -0.92812,1.63124 l 3.6375,5.51094 a 1.0001,1.0001 0 0 0 1.7,-0.0516 l 1,-1.73125 c 0.71373,0.41205 1.49879,0.86486 2.22812,1.28594 l -9.725,16.84687 -0.003,0 -20.45,-35.425 z m 44.36874,0 40.90626,0 -20.45313,35.425 -20.45313,-35.425 z m 44.37188,0 40.90626,0 -20.4547,35.42657 -20.45156,-35.42657 z m 44.36875,0 40.90782,0 -20.45313,35.42657 -20.45469,-35.42657 z m 44.37032,0 40.90781,0 -20.45156,35.425 -20.45625,-35.425 z m -223.58282,0.99688 20.45156,35.42812 -40.906247,0 20.454687,-35.42812 z m -44.371867,0.003 20.45469,35.425 -40.90782,0 20.45313,-35.425 z m 88.742177,0 20.45313,35.425 -40.90781,0 20.45468,-35.425 z m 44.37032,0 20.45468,35.425 -19.45624,0 0,-2.57187 2,0 a 1.0001,1.0001 0 0 0 0.89531,-1.44687 l -2.95625,-5.91095 a 1.0001,1.0001 0 0 0 -1.87657,-0.006 1.0001,1.0001 0 0 0 -0.002,0.006 l -2.95469,5.91095 a 1.0001,1.0001 0 0 0 0.89376,1.44687 l 2,0 0,2.57187 -19.45313,0 9.72656,-16.84687 c 3.40574,1.96633 6.49174,3.74647 10.22657,5.90313 a 1.0001,1.0001 0 1 0 1,-1.72969 c -3.73471,-2.15658 -6.82092,-3.9384 -10.22657,-5.90469 l 9.72813,-16.84688 z m 44.37031,0 0.002,0 20.45313,35.425 -40.90782,0 20.45313,-35.425 z m 44.37031,0 20.45625,35.425 -40.91094,0 20.45469,-35.425 z m 44.37032,0 20.45468,35.425 -40.90937,0 20.45469,-35.425 z m -149.19376,13.17657 0.85469,0.0516 -0.19063,0.33125 c -0.20916,-0.12076 -0.45627,-0.26287 -0.66406,-0.38281 z m -0.99687,1.73437 c 0.20662,0.11928 0.45295,0.26118 0.66093,0.38125 l -0.19218,0.32969 -0.46875,-0.71094 z m 16.07813,15.17812 0,0.76407 -0.38126,0 0.38126,-0.76407 z m 2,0 0.38124,0.76407 -0.38124,0 0,-0.76407 z m -154.564067,7.33594 40.90782,0 -20.45469,35.42657 -20.45313,-35.42657 z m 44.37031,0 40.906247,0 -20.45156,35.42813 -20.454687,-35.42813 z m 52.126557,0 33.15157,0 -9.72657,16.84531 c -8.12397,-4.69041 -16.4744,-9.50973 -24.41405,-14.09374 l 1,-1.73126 a 1.0001,1.0001 0 0 0 -0.011,-1.02031 z m 36.61563,0 0.002,0 19.45,0 0,11.80938 a 1.0001,1.0001 0 1 0 2,0 l 0,-11.80938 19.45312,0 -0.13281,0.23282 -5.40157,3.56562 a 1.0001,1.0001 0 0 0 0.05,1.7 l 1.73282,1 c -5.36944,9.3003 -10.8602,18.81631 -16.69844,28.92813 l -0.003,0 -2.46251,-4.27031 c -0.98773,-1.71086 -1.88537,-3.26608 -2.85937,-4.95313 l -11.37969,-19.70469 1.73281,-1 a 1.0001,1.0001 0 0 0 0.0516,-1.7 l -5.40156,-3.56562 -0.13281,-0.23282 z m 44.37031,0 33.15469,0 a 1.0001,1.0001 0 0 0 -0.0141,1.02031 l 1,1.73126 c -7.9397,4.5839 -16.29013,9.40344 -24.41406,14.09374 l -9.72657,-16.84531 z m 44.36875,0 40.91094,0 -20.45625,35.42657 -20.45469,-35.42657 z m 44.37032,0 40.90937,0 -20.45468,35.42657 -20.45469,-35.42657 z m -46.10157,0.99844 20.4547,35.42813 -40.90626,0 20.45156,-35.42813 z m 44.37188,0 20.45313,35.42813 -40.90782,0 20.45469,-35.42813 z m -221.851557,0.002 20.453117,35.42657 -40.907807,0 20.45469,-35.42657 z m 44.367187,0 20.45468,35.42657 -40.90781,0 20.45313,-35.42657 z m 44.37187,0 0.002,0 0.13282,0.23282 0.38906,6.45937 a 1.0001,1.0001 0 0 0 1.49687,0.80625 l 1.73125,-1 0.002,0 11.37657,19.70469 4.32343,7.49062 c -9.98834,-5.76675 -19.45306,-11.23052 -29.17812,-16.84531 l 9.725,-16.84844 z m 44.37031,0 9.72656,16.84531 c -9.72497,5.61466 -19.19002,11.08026 -29.17812,16.84688 l 15.7,-27.19375 0.002,0 1.73125,1 a 1.0001,1.0001 0 0 0 1.49688,-0.80625 l 0.38906,-6.45937 0.13281,-0.23282 z m -82.63593,0.36875 0.85312,0.0516 -0.19219,0.33126 c -0.21505,-0.12418 -0.44603,-0.25873 -0.66093,-0.38282 z m 120.90312,0 c -0.21492,0.12408 -0.44589,0.25866 -0.66094,0.38282 l -0.19218,-0.33126 0.85312,-0.0516 z m -121.9,1.73438 c 0.21369,0.12337 0.44398,0.25779 0.65781,0.38125 l -0.19062,0.32812 -0.46719,-0.70937 z m 122.89688,0 -0.4672,0.70937 -0.19062,-0.32812 c 0.21382,-0.12345 0.44412,-0.25788 0.65782,-0.38125 z m -79.53126,1.00313 0.71094,0.46874 -0.32968,0.19062 -0.38126,-0.65936 z m 36.16406,0.002 c -0.12136,0.21021 -0.25964,0.44718 -0.38124,0.6578 l -0.32969,-0.18905 0.71093,-0.46875 z m -77.13905,0.37656 c 7.93965,4.58402 16.29008,9.40334 24.41405,14.09375 l -9.72656,16.84844 -16.57812,-28.71407 a 1.0001,1.0001 0 0 0 0.89063,-0.49688 l 1,-1.73124 z m 118.11562,0 1,1.73124 a 1.0001,1.0001 0 0 0 0.89063,0.5 l -16.57657,28.71095 -9.72812,-16.84844 c 8.12392,-4.69031 16.47436,-9.50983 24.41406,-14.09375 z m -78.87344,0.62188 0.38125,0.65936 -0.32969,0.1922 -0.0516,-0.85156 z m 39.63125,0 -0.0516,0.85156 -0.32969,-0.1922 0.38125,-0.65936 z m -52.72969,14.47187 c 9.72629,5.61551 19.19318,11.08093 29.18282,16.84844 l -38.90782,0 9.725,-16.84844 z m 65.825,0 9.72813,16.84844 -38.90938,0 c 9.98944,-5.76739 19.45503,-11.23307 29.18125,-16.84844 z m -164.290617,18.84844 40.907807,0 -20.453117,35.425 -20.45469,-35.425 z m 44.368747,0 40.90781,0 -20.45468,35.425 -20.45313,-35.425 z m 44.37031,0 0.002,0 40.90782,0 -20.45313,35.425 -0.003,0 -20.45313,-35.425 z m 44.37187,0 40.90782,0 -20.45469,35.425 -20.45313,-35.425 z m 44.37188,0 40.90626,0 -20.4547,35.42656 -20.45156,-35.42656 z m 44.36875,0 40.90782,0 -20.45313,35.42656 -20.45469,-35.42656 z m -179.2125,0.99687 20.45156,35.42813 -40.906247,0 20.454687,-35.42813 z m 44.37031,0.003 20.45313,35.425 -40.90781,0 20.45468,-35.425 z m 88.74219,0 20.45313,35.425 -40.90782,0 20.45469,-35.425 z m 44.36875,0 20.45625,35.425 -40.91094,0 20.45469,-35.425 z m -87.74218,1.72969 19.45312,33.69531 -19.45312,0 0,-33.69531 z m -2,0.005 0,33.69063 -19.45,0 19.45,-33.69063 z m -108.193757,35.69063 40.906247,0 -20.45156,35.42812 -20.454687,-35.42812 z m 44.370317,0 40.90781,0 -20.45313,35.42656 -20.45468,-35.42656 z m 44.37031,0 19.45313,0 0,28.18905 -2,0 a 1.0001,1.0001 0 0 0 -0.875,0.52188 l -16.57813,-28.71093 z m 21.45313,0 19.45624,0 -16.57968,28.71249 a 1.0001,1.0001 0 0 0 -0.87656,-0.52344 l -2,0 0,-28.18905 z m 22.91874,0 40.90782,0 -20.45313,35.42656 -0.002,0 -20.45313,-35.42656 z m 44.36875,0 40.91094,0 -20.45625,35.42656 -20.45469,-35.42656 z m -1.73125,0.99843 20.4547,35.42813 -40.90626,0 20.45156,-35.42813 z m -133.11249,0.002 20.45468,35.42656 -40.90781,0 20.45313,-35.42656 z m 44.37343,0 20.45313,35.42656 -40.90625,0 20.45312,-35.42656 z m 44.36875,0 20.45313,35.42656 -40.90626,0 20.45313,-35.42656 z m -23.56719,29.18905 0.38126,0 0,0.76407 -0.38126,-0.76407 z m 2.38126,0 0.38124,0 -0.38124,0.76407 0,-0.76407 z"
     id="path966"
     inkscape:connector-curvature="0" />
  <use
     transform="matrix(0.15,0,0,-0.15,413.67697,303.97507)"
     xlink:href="#Cmmi10-48"
     id="use1032"
     style="stroke-linecap:butt;stroke-linejoin:round"
     x="0"
     y="0"
     width="100%"
     height="100%" />
  <use
     transform="matrix(0.105,0,0,-0.105,426.14279,307.80147)"
     xlink:href="#Cmmi10-ae"
     id="use1034"
     style="stroke-linecap:butt;stroke-linejoin:round"
     x="0"
     y="0"
     width="100%"
     height="100%" />
  <use
     transform="matrix(0.0735,0,0,-0.0735,435.4302,303.33733)"
     xlink:href="#Cmsy10-5f"
     id="use1036"
     style="stroke-linecap:butt;stroke-linejoin:round"
     x="0"
     y="0"
     width="100%"
     height="100%" />
  <use
     transform="matrix(0.0735,0,0,-0.0735,432.85397,310.47996)"
     xlink:href="#Cmr10-30"
     id="use1038"
     style="stroke-linecap:butt;stroke-linejoin:round"
     x="0"
     y="0"
     width="100%"
     height="100%" />
  <defs
     id="defs1062">
    <clipPath
       id="p17b7a33516">
      <rect
         height="406.08"
         width="425.691818182"
         x="7.2"
         y="53.5580769231"
         id="rect1065" />
    </clipPath>
  </defs>
</svg>
