<?xml version="1.0" encoding="UTF-8" standalone="no"?>
<!-- Created with matplotlib (http://matplotlib.org/) -->

<svg
   xmlns:dc="http://purl.org/dc/elements/1.1/"
   xmlns:cc="http://creativecommons.org/ns#"
   xmlns:rdf="http://www.w3.org/1999/02/22-rdf-syntax-ns#"
   xmlns:svg="http://www.w3.org/2000/svg"
   xmlns="http://www.w3.org/2000/svg"
   xmlns:sodipodi="http://sodipodi.sourceforge.net/DTD/sodipodi-0.dtd"
   xmlns:inkscape="http://www.inkscape.org/namespaces/inkscape"
   height="420pt"
   version="1.1"
   viewBox="0 0 444 420"
   width="444pt"
   id="svg2"
   inkscape:version="0.91 r13725"
   sodipodi:docname="alcove-sans-fond.svg">
  <metadata
     id="metadata977">
    <rdf:RDF>
      <cc:Work
         rdf:about="">
        <dc:format>image/svg+xml</dc:format>
        <dc:type
           rdf:resource="http://purl.org/dc/dcmitype/StillImage" />
      </cc:Work>
    </rdf:RDF>
  </metadata>
  <sodipodi:namedview
     pagecolor="#ffffff"
     bordercolor="#666666"
     borderopacity="1"
     objecttolerance="10"
     gridtolerance="10"
     guidetolerance="10"
     inkscape:pageopacity="0"
     inkscape:pageshadow="2"
     inkscape:window-width="1920"
     inkscape:window-height="1062"
     id="namedview975"
     showgrid="false"
     inkscape:zoom="1.5548843"
     inkscape:cx="195.11392"
     inkscape:cy="254.73949"
     inkscape:window-x="0"
     inkscape:window-y="0"
     inkscape:window-maximized="1"
     inkscape:current-layer="svg2" />
  <defs
     id="defs4">
    <style
       type="text/css"
       id="style6">
*{stroke-linecap:butt;stroke-linejoin:round;}
  </style>
  </defs>
  <path
     style="color:#000000;font-style:normal;font-variant:normal;font-weight:normal;font-stretch:normal;font-size:medium;line-height:normal;font-family:sans-serif;text-indent:0;text-align:start;text-decoration:none;text-decoration-line:none;text-decoration-style:solid;text-decoration-color:#000000;letter-spacing:normal;word-spacing:normal;text-transform:none;direction:ltr;block-progression:tb;writing-mode:lr-tb;baseline-shift:baseline;text-anchor:start;white-space:normal;clip-rule:nonzero;display:inline;overflow:visible;visibility:visible;opacity:1;isolation:auto;mix-blend-mode:normal;color-interpolation:sRGB;color-interpolation-filters:linearRGB;solid-color:#000000;solid-opacity:1;fill:#000000;fill-opacity:1;fill-rule:nonzero;stroke:none;stroke-width:0.08;stroke-linecap:round;stroke-linejoin:round;stroke-miterlimit:4;stroke-dasharray:none;stroke-dashoffset:0;stroke-opacity:1;color-rendering:auto;image-rendering:auto;shape-rendering:auto;text-rendering:auto;enable-background:accumulate"
     d="m 59.771484,13.996094 a 1.0001,1.0001 0 0 0 -0.880859,0.513672 L 38.4375,49.935547 17.984375,14.509766 a 1.0001607,1.0001607 0 1 0 -1.732422,1 l 20.453125,35.425781 -21.236328,0 a 1.0001,1.0001 0 1 0 0,2 l 21.236328,0 L 14.6875,91.074219 a 1.0001,1.0001 0 0 0 -0.06641,0.0918 1.0001,1.0001 0 0 0 -0.04492,0.07422 1.0001,1.0001 0 0 0 -0.01367,0.0293 1.0001,1.0001 0 0 0 -0.01367,0.02734 1.0001,1.0001 0 0 0 -0.0332,0.08203 1.0001,1.0001 0 0 0 0.0098,0.705078 1.0001,1.0001 0 0 0 0.04101,0.0918 1.0001,1.0001 0 0 0 0.03516,0.0625 1.0001,1.0001 0 0 0 0.03516,0.05469 1.0001,1.0001 0 0 0 0,0.002 1.0001,1.0001 0 0 0 0.04883,0.06641 L 36.705078,130.5 l -21.236328,0 a 1.0001,1.0001 0 1 0 0,2 l 21.236328,0 -22.023437,38.14453 0,0.002 a 1.0001,1.0001 0 0 0 -0.002,0.002 1.0001,1.0001 0 0 0 -0.05859,0.082 1.0001,1.0001 0 0 0 -0.04492,0.0742 1.0001,1.0001 0 0 0 -0.01367,0.0293 1.0001,1.0001 0 0 0 -0.01367,0.0274 1.0001,1.0001 0 0 0 -0.02344,0.78711 1.0001,1.0001 0 0 0 0.04101,0.0918 1.0001,1.0001 0 0 0 0.03516,0.0625 1.0001,1.0001 0 0 0 0.03516,0.0547 1.0001,1.0001 0 0 0 0,0.002 1.0001,1.0001 0 0 0 0.05273,0.0703 l 22.015625,38.13476 -21.236328,0 a 1.0001,1.0001 0 1 0 0,2 l 21.236328,0 -22.017578,38.13867 a 1.0001,1.0001 0 0 0 -0.06445,0.0898 1.0001,1.0001 0 0 0 -0.0039,0.004 1.0001,1.0001 0 0 0 -0.03711,0.0645 1.0001,1.0001 0 0 0 -0.02148,0.041 1.0001,1.0001 0 0 0 -0.01172,0.0234 1.0001,1.0001 0 0 0 -0.0332,0.082 1.0001,1.0001 0 0 0 -0.05859,0.25391 1.0001,1.0001 0 0 0 -0.002,0.0996 1.0001,1.0001 0 0 0 0.0059,0.0996 1.0001,1.0001 0 0 0 0.06445,0.25195 1.0001,1.0001 0 0 0 0.04101,0.0918 1.0001,1.0001 0 0 0 0.03516,0.0625 1.0001,1.0001 0 0 0 0.03516,0.0547 1.0001,1.0001 0 0 0 0,0.002 1.0001,1.0001 0 0 0 0.04883,0.0684 l 22.019531,38.13672 -21.236328,0 a 1.0001,1.0001 0 1 0 0,2 l 21.236328,0 -22.023437,38.14453 0,0.002 a 1.0001,1.0001 0 0 0 -0.002,0.002 1.0001,1.0001 0 0 0 -0.05859,0.082 1.0001,1.0001 0 0 0 -0.04492,0.0742 1.0001,1.0001 0 0 0 -0.01367,0.0293 1.0001,1.0001 0 0 0 -0.01367,0.0273 1.0001,1.0001 0 0 0 -0.02344,0.78711 1.0001,1.0001 0 0 0 0.04101,0.0918 1.0001,1.0001 0 0 0 0.03516,0.0625 1.0001,1.0001 0 0 0 0.03516,0.0547 1.0001,1.0001 0 0 0 0,0.002 1.0001,1.0001 0 0 0 0.05273,0.0703 l 22.015625,38.13477 -21.236328,0 a 1.0001,1.0001 0 1 0 0,2 l 21.236328,0 -19.501953,33.77734 a 1.0001607,1.0001607 0 1 0 1.732422,1 l 19.501953,-33.77734 19.5,33.77734 a 1.0001607,1.0001607 0 1 0 1.732422,-1 l -19.501953,-33.77734 42.474609,0 -19.501953,33.77734 a 1.0001607,1.0001607 0 1 0 1.732422,1 L 84.375,372.19336 l 19.5,33.77734 a 1.0001599,1.0001599 0 0 0 1.73242,-1 l -19.501951,-33.77734 42.472651,0 -19.50195,33.77734 a 1.0001599,1.0001599 0 1 0 1.73242,1 l 19.5,-33.77734 19.50196,33.77734 a 1.0001599,1.0001599 0 1 0 1.73242,-1 l -19.50195,-33.77734 42.4746,0 -19.50195,33.77734 a 1.0001,1.0001 0 0 0 -0.0469,0.0879 1.0001,1.0001 0 0 0 -0.0664,0.18946 1.0001,1.0001 0 0 0 -0.0273,0.19726 1.0001,1.0001 0 0 0 0.002,0.0996 1.0001,1.0001 0 0 0 0.0117,0.0996 1.0001,1.0001 0 0 0 0.0195,0.0977 1.0001,1.0001 0 0 0 0.0312,0.0957 1.0001,1.0001 0 0 0 0.0898,0.17773 1.0001,1.0001 0 0 0 0.27344,0.28907 1.0001,1.0001 0 0 0 0.17578,0.0957 1.0001,1.0001 0 0 0 0.0918,0.0352 1.0001,1.0001 0 0 0 0.19531,0.041 1.0001,1.0001 0 0 0 0.39649,-0.0351 1.0001,1.0001 0 0 0 0.0937,-0.0332 1.0001,1.0001 0 0 0 0.33007,-0.22265 1.0001,1.0001 0 0 0 0.0664,-0.0742 1.0001,1.0001 0 0 0 0.0586,-0.0801 1.0001,1.0001 0 0 0 0.0371,-0.0605 l 19.5,-33.77734 0.002,0 19.5,33.77734 a 1.0001599,1.0001599 0 1 0 1.73242,-1 l -19.50195,-33.77734 42.4746,0 -19.5039,33.77734 a 1.0001599,1.0001599 0 1 0 1.73242,1 l 19.50195,-33.77734 19.50196,33.77734 a 1.0001599,1.0001599 0 1 0 1.73242,-1 l -19.50195,-33.77734 42.47265,0 -19.50195,33.77734 a 1.0001599,1.0001599 0 1 0 1.73242,1 l 19.5,-33.77734 0.002,0 19.5,33.77734 a 1.0001,1.0001 0 0 0 0.0527,0.0859 1.0001,1.0001 0 0 0 0.0605,0.0781 1.0001,1.0001 0 0 0 0.40624,0.2832 1.0001,1.0001 0 0 0 0.19336,0.0527 1.0001,1.0001 0 0 0 0.0996,0.0117 1.0001,1.0001 0 0 0 0.19922,-0.008 1.0001,1.0001 0 0 0 0.19336,-0.0488 1.0001,1.0001 0 0 0 0.3418,-0.20312 1.0001,1.0001 0 0 0 0.1875,-0.23243 1.0001,1.0001 0 0 0 0.0469,-0.0879 1.0001,1.0001 0 0 0 0.0371,-0.0937 1.0001,1.0001 0 0 0 0.0469,-0.19336 1.0001,1.0001 0 0 0 0.008,-0.0996 1.0001,1.0001 0 0 0 -0.002,-0.0996 1.0001,1.0001 0 0 0 -0.0117,-0.0996 1.0001,1.0001 0 0 0 -0.0215,-0.0977 1.0001,1.0001 0 0 0 -0.0312,-0.0957 1.0001,1.0001 0 0 0 -0.0742,-0.15235 l -19.50196,-33.77734 42.47461,0 -19.50195,33.77734 a 1.0001599,1.0001599 0 1 0 1.73242,1 l 19.50195,-33.77734 19.5,33.77734 a 1.0001,1.0001 0 1 0 1.73047,-1 l -19.5,-33.77734 42.47266,0 -19.50195,33.77734 a 1.0001599,1.0001599 0 0 0 1.73242,1 l 19.5,-33.77734 19.50195,33.77734 a 1.0001599,1.0001599 0 1 0 1.73242,-1 l -19.50195,-33.77734 42.47461,0 -19.50195,33.77734 a 1.0001599,1.0001599 0 0 0 1.73242,1 l 19.5,-33.77734 19.50195,33.77734 a 1.0001,1.0001 0 1 0 1.73047,-1 l -19.5,-33.77734 21.23633,0 a 1.0001,1.0001 0 1 0 0,-2 l -21.23633,0 22.02148,-38.14258 0.002,-0.006 0.002,-0.002 a 1.0001,1.0001 0 0 0 0.0586,-0.0801 1.0001,1.0001 0 0 0 0.0391,-0.0645 1.0001,1.0001 0 0 0 0.0273,-0.0566 1.0001,1.0001 0 0 0 -0.0117,-0.88868 1.0001,1.0001 0 0 0 -0.0312,-0.0547 1.0001,1.0001 0 0 0 -0.041,-0.0645 1.0001,1.0001 0 0 0 -0.0449,-0.0605 l -22.02148,-38.14453 21.23633,0 a 1.0001,1.0001 0 1 0 0,-2 l -21.23633,0 22.02148,-38.14453 a 1.0001,1.0001 0 0 0 0.002,-0.002 l 0.002,-0.002 a 1.0001,1.0001 0 0 0 0.002,-0.004 1.0001,1.0001 0 0 0 0.0566,-0.0781 1.0001,1.0001 0 0 0 0.0391,-0.0645 1.0001,1.0001 0 0 0 0.0117,-0.0215 1.0001,1.0001 0 0 0 0.0156,-0.0352 1.0001,1.0001 0 0 0 0.0586,-0.14843 1.0001,1.0001 0 0 0 0.0371,-0.19727 1.0001,1.0001 0 0 0 -0.0449,-0.39453 1.0001,1.0001 0 0 0 -0.0625,-0.14844 1.0001,1.0001 0 0 0 -0.0176,-0.0351 1.0001,1.0001 0 0 0 -0.0137,-0.0195 1.0001,1.0001 0 0 0 -0.041,-0.0644 1.0001,1.0001 0 0 0 -0.0449,-0.0606 l -22.02148,-38.14453 21.23633,0 a 1.0001,1.0001 0 1 0 0,-2 l -21.23633,0 22.02148,-38.14257 0.002,-0.006 0.002,-0.002 a 1.0001,1.0001 0 0 0 0.0566,-0.0781 1.0001,1.0001 0 0 0 0.002,-0.002 1.0001,1.0001 0 0 0 0.002,-0.002 1.0001,1.0001 0 0 0 0.0312,-0.0547 1.0001,1.0001 0 0 0 0.0332,-0.0645 1.0001,1.0001 0 0 0 -0.0117,-0.88867 1.0001,1.0001 0 0 0 -0.0312,-0.0547 1.0001,1.0001 0 0 0 -0.041,-0.0644 1.0001,1.0001 0 0 0 -0.0449,-0.0606 L 407.66211,132.5 l 21.23633,0 a 1.0001,1.0001 0 1 0 0,-2 l -21.23633,0 22.02539,-38.148438 0,-0.002 a 1.0001,1.0001 0 0 0 0.004,-0.0039 1.0001,1.0001 0 0 0 0.0547,-0.07617 1.0001,1.0001 0 0 0 0.0391,-0.06445 1.0001,1.0001 0 0 0 0.0273,-0.05664 1.0001,1.0001 0 0 0 -0.0117,-0.888672 1.0001,1.0001 0 0 0 -0.0312,-0.05469 1.0001,1.0001 0 0 0 -0.041,-0.06445 1.0001,1.0001 0 0 0 -0.0469,-0.06445 l -22.01953,-38.140625 21.23633,0 a 1.0001,1.0001 0 1 0 0,-2 l -21.23633,0 20.45312,-35.425781 a 1.0001,1.0001 0 1 0 -1.73046,-1 L 405.92969,49.935547 385.47656,14.509766 a 1.0001599,1.0001599 0 0 0 -1.73242,1 l 20.45508,35.425781 -42.47266,0 20.45313,-35.425781 a 1.0001,1.0001 0 0 0 0.0469,-0.08984 1.0001,1.0001 0 0 0 0.0371,-0.0918 1.0001,1.0001 0 0 0 0.0293,-0.0957 1.0001,1.0001 0 0 0 0.0176,-0.09766 1.0001,1.0001 0 0 0 0.01,-0.09961 1.0001,1.0001 0 0 0 -0.002,-0.09961 1.0001,1.0001 0 0 0 -0.10352,-0.384766 1.0001,1.0001 0 0 0 -0.0488,-0.08789 1.0001,1.0001 0 0 0 -0.12305,-0.15625 1.0001,1.0001 0 0 0 -0.0723,-0.06836 1.0001,1.0001 0 0 0 -0.16406,-0.115234 1.0001,1.0001 0 0 0 -0.18359,-0.07813 1.0001,1.0001 0 0 0 -0.0957,-0.02734 1.0001,1.0001 0 0 0 -0.0996,-0.01563 1.0001,1.0001 0 0 0 -0.29882,0.01367 1.0001,1.0001 0 0 0 -0.28125,0.09961 1.0001,1.0001 0 0 0 -0.16602,0.111328 1.0001,1.0001 0 0 0 -0.19922,0.222657 1.0001,1.0001 0 0 0 -0.0351,0.06055 l -20.45313,35.425781 -0.002,0 -20.45313,-35.425781 a 1.0001,1.0001 0 1 0 -1.73047,1 l 20.45313,35.425781 -42.47266,0 20.45313,-35.425781 a 1.0001599,1.0001599 0 1 0 -1.73242,-1 L 314.05664,49.935547 293.60352,14.509766 a 1.0001642,1.0001642 0 1 0 -1.73243,1 l 20.45508,35.425781 -42.47461,0 20.45508,-35.425781 a 1.0001599,1.0001599 0 0 0 -1.73242,-1 L 268.12109,49.935547 247.66797,14.509766 a 1.0001599,1.0001599 0 1 0 -1.73242,1 l 20.45312,35.425781 -42.47265,0 20.45312,-35.425781 a 1.0001599,1.0001599 0 1 0 -1.73242,-1 L 222.18359,49.935547 201.73047,14.509766 a 1.0001599,1.0001599 0 1 0 -1.73242,1 l 20.45507,35.425781 -42.4746,0 20.45312,-35.425781 a 1.0001599,1.0001599 0 1 0 -1.73242,-1 L 176.24609,49.935547 155.79297,14.509766 a 1.0001599,1.0001599 0 1 0 -1.73242,1 l 20.45507,35.425781 -42.4746,0 20.45507,-35.425781 a 1.0001599,1.0001599 0 1 0 -1.73242,-1 L 130.31055,49.935547 109.85742,14.509766 a 1.0001599,1.0001599 0 1 0 -1.73242,1 l 20.45312,35.425781 -42.472651,0 20.453121,-35.425781 a 1.0001599,1.0001599 0 1 0 -1.73242,-1 L 84.373047,49.935547 63.919922,14.509766 a 1.0001,1.0001 0 0 0 -0.257813,-0.302735 1.0001,1.0001 0 0 0 -0.08203,-0.05664 1.0001,1.0001 0 0 0 -0.08789,-0.04883 1.0001,1.0001 0 0 0 -0.285157,-0.0918 1.0001,1.0001 0 0 0 -0.298828,-0.0039 1.0001,1.0001 0 0 0 -0.09766,0.01953 1.0001,1.0001 0 0 0 -0.0957,0.02734 1.0001,1.0001 0 0 0 -0.181641,0.08594 1.0001,1.0001 0 0 0 -0.160156,0.11914 1.0001,1.0001 0 0 0 -0.234375,0.320313 1.0001,1.0001 0 0 0 -0.08398,0.287109 1.0001,1.0001 0 0 0 0.09961,0.582032 1.0001,1.0001 0 0 0 0.0332,0.0625 l 20.453125,35.425781 -42.472656,0 20.455078,-35.425781 a 1.0001,1.0001 0 0 0 -0.851563,-1.513672 z m -19.603515,38.939453 42.474609,0 L 61.40625,89.71875 40.167969,52.935547 Z m 45.9375,0 42.472651,0 L 107.3418,89.71875 86.105469,52.935547 Z m 45.935551,0 42.4746,0 -21.23828,36.783203 -21.23632,-36.783203 z m 45.9375,0 42.4746,0 -21.23828,36.785156 -21.23632,-36.785156 z m 45.9375,0 42.47265,0 -10.11914,17.525391 c -3.53616,-2.041581 -6.75207,-3.899298 -10.61719,-6.13086 a 1.0001607,1.0001607 0 0 0 -1,1.732422 c 3.86513,2.231566 7.08102,4.089274 10.61719,6.130859 L 245.15234,89.71875 235.0332,72.191406 c 0.85895,-0.495937 1.78022,-1.027339 2.61914,-1.511718 l 1,1.732421 a 1.0001,1.0001 0 0 0 1.70118,0.05078 l 3.64257,-5.517579 a 1.0001,1.0001 0 0 0 -0.94531,-1.623046 l -6.5918,0.396484 a 1.0001,1.0001 0 0 0 -0.80664,1.498047 l 1,1.732422 c -0.83845,0.484107 -1.75873,1.016066 -2.61718,1.511719 L 223.91602,52.935547 Z m 45.93554,0 42.47461,0 -10.11914,17.525391 c -3.53622,-2.041714 -6.7518,-3.899139 -10.61719,-6.13086 a 1.0001607,1.0001607 0 0 0 -1,1.732422 c 3.86539,2.231718 7.08098,4.089149 10.61719,6.130859 L 291.08984,89.71875 280.9707,72.191406 c 0.85893,-0.495899 1.78023,-1.027375 2.61914,-1.511718 l 1,1.732421 a 1.0001,1.0001 0 0 0 1.70118,0.05078 l 3.64257,-5.517579 a 1.0001,1.0001 0 0 0 -0.94531,-1.623046 l -6.5918,0.396484 a 1.0001,1.0001 0 0 0 -0.80664,1.498047 l 1,1.732422 c -0.83891,0.484344 -1.76021,1.015818 -2.61914,1.511719 L 269.85156,52.935547 Z m 45.9375,0 42.47266,0 -21.23633,36.783203 -21.23633,-36.783203 z m 45.93555,0 42.47461,0 -21.23828,36.783203 -21.23633,-36.783203 z m -323.28711,1 21.236328,36.783203 -42.474609,0 L 38.4375,53.935547 Z m 91.87305,0 21.23633,36.783203 -42.47266,0 21.23633,-36.783203 z m 45.93554,0 21.23829,36.783203 -42.47461,0 21.23632,-36.783203 z m 45.9375,0 10.11914,17.525391 c -3.53643,2.041852 -6.75349,3.898989 -10.61914,6.130859 a 1.0001,1.0001 0 1 0 1,1.730469 c 3.86513,-2.231566 7.08119,-4.089258 10.61719,-6.13086 l 10.11914,17.527344 -20.23633,0 0,-3.025391 2,0 a 1.0001,1.0001 0 0 0 0.89453,-1.447265 l -2.95703,-5.914063 a 1.0001,1.0001 0 0 0 -1.875,-0.002 1.0001,1.0001 0 0 0 -0.002,0.0059 l -2.95508,5.910156 a 1.0001,1.0001 0 0 0 0.89453,1.447265 l 2,0 0,3.025391 -20.23828,0 21.23828,-36.783203 z m 45.9375,0 10.11719,17.525391 c -3.53638,2.041727 -6.75375,3.899141 -10.61914,6.130859 a 1.0001,1.0001 0 1 0 1,1.730469 c 3.86538,-2.231716 7.08276,-4.089135 10.61914,-6.13086 l 10.11914,17.527344 -42.47461,0 10.11914,-17.525391 c 0.859,0.495933 1.78016,1.027345 2.61914,1.511719 l -1,1.732422 a 1.0001,1.0001 0 0 0 0.80664,1.498047 l 6.61329,0.396484 a 1.0001,1.0001 0 0 0 0.92578,-1.623047 1.0001,1.0001 0 0 0 -0.002,-0.0039 l -3.64257,-5.515625 a 1.0001,1.0001 0 0 0 -1.70118,0.05078 l -1,1.732422 c -0.83897,-0.484372 -1.76014,-1.015787 -2.61914,-1.511718 l 10.11914,-17.525391 z m 45.93555,0 21.23633,36.783203 -20.23633,0 0,-12.261719 a 1.0001,1.0001 0 1 0 -2,0 l 0,12.261719 -20.23633,0 10.11914,-17.525391 c 0.859,0.495963 1.78017,1.027317 2.61914,1.511719 l -1,1.732422 a 1.0001,1.0001 0 0 0 0.80469,1.498047 l 6.61328,0.396484 a 1.0001,1.0001 0 0 0 0.93555,-1.611328 1.0001,1.0001 0 0 0 -0.01,-0.01172 l -3.64453,-5.519531 a 1.0001,1.0001 0 0 0 -1.69922,0.05078 l -1,1.732422 c -0.83897,-0.484403 -1.76014,-1.015755 -2.61914,-1.511718 l 10.11719,-17.525391 z m 91.87305,0 21.23633,36.783203 -42.47266,0 21.23633,-36.783203 z m -321.556643,0.002 21.236333,36.78125 -42.472661,0 21.236328,-36.78125 z m 275.621093,0 21.23633,36.78125 -42.47266,0 21.23633,-36.78125 z M 239.04688,67.566406 c -0.20754,0.119829 -0.4533,0.262245 -0.66211,0.382813 l -0.19141,-0.332031 0.85352,-0.05078 z m 45.9375,0 c -0.20754,0.119821 -0.4533,0.262253 -0.66211,0.382813 l -0.19141,-0.332031 0.85352,-0.05078 z m -44.9375,1.730469 -0.47071,0.714844 -0.1914,-0.332031 c 0.20881,-0.120569 0.45457,-0.262984 0.66211,-0.382813 z m 45.9375,0 -0.47071,0.714844 -0.1914,-0.332031 c 0.20881,-0.12056 0.45457,-0.262993 0.66211,-0.382813 z m -23.43946,4.34375 0.47266,0.714844 c -0.20801,-0.120091 -0.45477,-0.26198 -0.66406,-0.382813 l 0.1914,-0.332031 z m 45.93555,0 0.4707,0.714844 c -0.20755,-0.119836 -0.45328,-0.262237 -0.66211,-0.382813 l 0.19141,-0.332031 z m -47.12695,2.064453 c 0.20883,0.120567 0.45455,0.262985 0.6621,0.382813 l -0.85351,-0.05273 0.19141,-0.330078 z m 45.93554,0 c 0.20883,0.120575 0.45456,0.262977 0.66211,0.382813 l -0.85351,-0.05273 0.1914,-0.330078 z m -86.10547,9.22461 0,0.763671 -0.38281,0 0.38281,-0.763671 z m 2,0 0.38282,0.763671 -0.38282,0 0,-0.763671 z m -205.984371,7.789062 42.474609,0 L 38.4375,129.5 17.199219,92.71875 Z m 45.9375,0 42.474611,0 L 84.375,129.5 63.136719,92.71875 Z m 45.937501,0 42.47266,0 L 130.31055,129.5 109.07422,92.71875 Z m 45.93555,0 42.47461,0 -10.11915,17.52539 c -3.53638,-2.04159 -6.75376,-3.89928 -10.61914,-6.13086 a 1.0001599,1.0001599 0 1 0 -1,1.73242 c 3.86524,2.2315 7.08288,4.08739 10.61914,6.12891 L 176.24609,129.5 166.12891,111.97461 c 0.85894,-0.4959 1.78022,-1.02737 2.61914,-1.51172 l 1,1.73242 a 1.0001,1.0001 0 0 0 1.70117,0.0508 l 3.64453,-5.52148 a 1.0001,1.0001 0 0 0 -0.95117,-1.61914 L 167.55469,105.5 a 1.0001,1.0001 0 0 0 -0.80664,1.49805 l 1,1.73242 c -0.83892,0.48434 -1.7602,1.01581 -2.61914,1.51172 L 155.00977,92.71875 Z m 45.93554,0 20.23828,0 0,12.25977 a 1.0001,1.0001 0 1 0 2,0 l 0,-12.25977 20.23633,0 -10.11719,17.52344 c -0.85942,-0.49615 -1.7817,-1.02714 -2.62109,-1.51172 l 1,-1.73242 A 1.0001,1.0001 0 0 0 230.875,105.5 l -6.59766,-0.39453 a 1.0001,1.0001 0 0 0 -0.93945,1.62305 l 3.64453,5.51757 a 1.0001,1.0001 0 0 0 1.69922,-0.0508 l 1,-1.73242 c 0.83939,0.48458 1.76167,1.01557 2.62109,1.51172 L 222.18359,129.5 200.94531,92.71875 Z m 45.9375,0 42.47461,0 L 268.12109,129.5 246.88281,92.71875 Z m 45.9375,0 20.23633,0 0,3.023438 -2,0 a 1.0001,1.0001 0 0 0 -0.89453,1.447265 l 2.96094,5.923827 a 1.0001,1.0001 0 0 0 1.87109,-0.01 l 2.95703,-5.914067 a 1.0001,1.0001 0 0 0 -0.89453,-1.447265 l -2,0 0,-3.023438 20.23633,0 -10.11719,17.52539 c -3.53638,-2.04159 -6.75376,-3.89928 -10.61914,-6.13086 a 1.0001599,1.0001599 0 1 0 -1,1.73242 c 3.86523,2.2315 7.08288,4.08739 10.61914,6.12891 l -9.44922,16.36719 -0.66992,1.1582 -21.23633,-36.78125 z m 45.93555,0 42.47461,0 L 359.99219,129.5 349.875,111.97461 c 0.85899,-0.4959 1.78016,-1.02737 2.61914,-1.51172 l 1,1.73242 a 1.0001,1.0001 0 0 0 1.70117,0.0508 l 3.64063,-5.51562 a 1.0001,1.0001 0 0 0 -0.94532,-1.625 L 351.30078,105.5 a 1.0001,1.0001 0 0 0 -0.80664,1.49805 l 1,1.73242 c -0.83898,0.48435 -1.76015,1.01581 -2.61914,1.51172 L 338.75586,92.71875 Z m 45.9375,0 42.47266,0 L 405.92969,129.5 384.69336,92.71875 Z M 199.21484,93.716797 220.45312,130.5 l -20.23828,0 0,-12.26172 a 1.0001,1.0001 0 1 0 -2,0 l 0,12.26172 -20.23632,0 10.11914,-17.52539 c 0.85896,0.49589 1.78018,1.02739 2.61914,1.51172 l -1,1.73242 a 1.0001,1.0001 0 0 0 0.80664,1.49805 l 6.60351,0.39648 a 1.0001,1.0001 0 0 0 0.92774,-1.63086 l -3.63672,-5.50976 a 1.0001,1.0001 0 0 0 -1.70117,0.0508 l -1,1.73242 c -0.83939,-0.48458 -1.76168,-1.01557 -2.6211,-1.51172 L 199.21484,93.716797 Z M 61.40625,93.71875 82.642578,130.5 40.167969,130.5 61.40625,93.71875 Z m 91.87109,0 10.11914,17.52539 c -3.53573,2.04132 -6.75237,3.89766 -10.61718,6.12891 a 1.0001599,1.0001599 0 1 0 1,1.73242 c 3.86512,-2.23143 7.08119,-4.08939 10.61718,-6.13086 l 10.11914,17.52539 -20.23632,0 0,-3.02539 2,0 a 1.0001,1.0001 0 0 0 0.89453,-1.44727 l -2.96289,-5.92382 a 1.0001,1.0001 0 0 0 -1.86914,0.01 l -2.95703,5.91406 a 1.0001,1.0001 0 0 0 0.89453,1.44727 l 2,0 0,3.02539 -20.23828,0 21.23632,-36.78125 z m 91.875,0 21.23633,36.78125 -20.23633,0 0,-3.02539 2,0 a 1.0001,1.0001 0 0 0 0.89454,-1.44727 l -2.9629,-5.92382 a 1.0001,1.0001 0 0 0 -1.86914,0.01 l -2.95703,5.91406 a 1.0001,1.0001 0 0 0 0.89453,1.44727 l 2,0 0,3.02539 -20.23632,0 10.11718,-17.52539 c 3.53638,2.04159 6.75376,3.89928 10.61914,6.13086 a 1.0001599,1.0001599 0 1 0 1,-1.73242 c -3.86454,-2.2311 -7.0815,-4.08772 -10.61718,-6.12891 l 10.11718,-17.52539 z m 45.9375,0 21.23633,36.78125 -42.47461,0 21.23828,-36.78125 z m 91.8711,0 21.23828,36.78125 -42.47461,0 21.23633,-36.78125 z m -275.61914,0.002 20.5664,35.621097 0.66992,1.1582 -42.472651,0 21.236331,-36.779297 z m 229.68359,0 10.11719,17.523437 c -3.53591,2.04132 -6.75238,3.89765 -10.61719,6.12891 a 1.0001599,1.0001599 0 1 0 1,1.73242 c 3.86512,-2.23143 7.08103,-4.0894 10.61719,-6.13086 l 10.11914,17.52539 -42.47266,0 0.66992,-1.1582 9.44922,-16.36719 c 0.85897,0.49589 1.78019,1.02739 2.61914,1.51172 l -1,1.73242 a 1.0001,1.0001 0 0 0 0.80664,1.49805 l 6.60157,0.39648 a 1.0001,1.0001 0 0 0 0.93554,-1.62305 l -3.64453,-5.51757 a 1.0001,1.0001 0 0 0 -1.69922,0.0508 l -1,1.73242 c -0.83891,-0.48431 -1.76021,-1.01585 -2.61914,-1.51172 l 10.11719,-17.523437 z m -24.34961,4.021485 0.38086,0 0,0.763671 -0.38086,-0.763671 z m 2.38086,0 0.38086,0 -0.38086,0.763671 0,-0.763671 z m -144.91602,9.607422 c -0.20681,0.1194 -0.45206,0.26072 -0.66015,0.38086 l -0.18945,-0.33008 0.8496,-0.0508 z m 58.1504,0 0.84765,0.0508 -0.18945,0.33008 c -0.20763,-0.11987 -0.45184,-0.26173 -0.6582,-0.38086 z m 125.59375,0 c -0.20638,0.11914 -0.45056,0.26099 -0.65821,0.38086 l -0.18945,-0.33008 0.84766,-0.0508 z m -126.59571,1.73047 c 0.20708,0.11955 0.4518,0.26253 0.66016,0.38281 l -0.19141,0.33008 -0.46875,-0.71289 z m 127.60156,0 -0.47265,0.71484 -0.19141,-0.33203 c 0.2093,-0.12083 0.45606,-0.26273 0.66406,-0.38281 z m -183.75,0.002 -0.46874,0.71094 -0.19141,-0.33008 c 0.20809,-0.12014 0.45334,-0.26145 0.66015,-0.38086 z m 22.5,4.3418 0.47071,0.71484 c -0.20754,-0.11981 -0.45329,-0.26226 -0.66211,-0.38281 l 0.1914,-0.33203 z m 137.81055,0.002 0.46875,0.71289 c -0.20708,-0.11955 -0.4518,-0.26253 -0.66015,-0.38281 l 0.1914,-0.33008 z m -139.00195,2.06055 c 0.20883,0.12055 0.45456,0.26299 0.66211,0.38281 l -0.85352,-0.0508 0.19141,-0.33203 z m 137.81055,0 c 0.20882,0.12055 0.45456,0.26299 0.66211,0.38281 l -0.85352,-0.0508 0.19141,-0.33203 z m -177.98047,9.22461 0,0.76367 -0.38086,0 0.38086,-0.76367 z m 2,0 0.38086,0.76367 -0.38086,0 0,-0.76367 z m 89.87304,0 0,0.76367 -0.38281,0 0.38281,-0.76367 z m 2,0 0.38282,0.76367 -0.38282,0 0,-0.76367 z M 40.167969,132.5 82.642578,132.5 61.40625,169.28125 40.167969,132.5 Z m 45.9375,0 42.472651,0 L 107.3418,169.28125 86.105469,132.5 Z m 45.935551,0 20.23828,0 0,12.26172 a 1.0001,1.0001 0 1 0 2,0 l 0,-12.26172 20.23632,0 -21.23828,36.78125 -10.11718,-17.52344 c 0.85923,-0.49608 1.77993,-1.02917 2.61914,-1.51367 l 1,1.73242 a 1.0001,1.0001 0 0 0 1.70117,0.0508 l 3.64258,-5.51757 a 1.0001,1.0001 0 0 0 -0.93164,-1.62305 1.0001,1.0001 0 0 0 -0.004,0 l -6.60156,0.39648 a 1.0001,1.0001 0 0 0 -0.80664,1.49805 l 1,1.73242 c -0.83899,0.48437 -1.76015,1.01578 -2.61914,1.51172 L 132.04102,132.5 Z m 45.9375,0 20.23632,0 0,3.02539 -2,0 a 1.0001,1.0001 0 0 0 -0.89453,1.44727 l 2.96289,5.92382 a 1.0001,1.0001 0 0 0 1.86914,-0.01 l 2.95704,-5.91406 a 1.0001,1.0001 0 0 0 -0.89454,-1.44727 l -2,0 0,-3.02539 20.23828,0 -10.11914,17.52539 c -3.53661,-2.04189 -6.75348,-3.89912 -10.61914,-6.13086 a 1.0001599,1.0001599 0 1 0 -1,1.73242 c 3.86565,2.23174 7.08255,4.08898 10.61914,6.13086 L 199.21484,169.2832 177.97852,132.5 Z m 45.9375,0 20.23632,0 0,12.26172 a 1.0001,1.0001 0 1 0 2,0 l 0,-12.26172 20.23633,0 -21.23633,36.78125 -10.11718,-17.52539 c 0.85841,-0.49563 1.77877,-1.02764 2.61718,-1.51172 l 1,1.73242 a 1.0001,1.0001 0 0 0 1.70118,0.0508 l 3.64257,-5.51757 a 1.0001,1.0001 0 0 0 -0.93164,-1.62305 1.0001,1.0001 0 0 0 -0.004,0 l -6.60157,0.39648 a 1.0001,1.0001 0 0 0 -0.80664,1.49805 l 1,1.73242 c -0.83845,0.4841 -1.75873,1.01607 -2.61718,1.51172 L 223.91602,132.5 Z m 45.93554,0 42.47461,0 -0.76758,1.32812 -20.46875,35.45313 L 269.85156,132.5 Z m 45.9375,0 42.47266,0 -21.23633,36.78125 L 315.78906,132.5 Z m 45.93555,0 42.47461,0 -21.23828,36.78125 L 361.72461,132.5 Z m -323.28711,1 21.236328,36.78125 -42.474609,0 L 38.4375,133.5 Z m 45.9375,0 21.23633,36.78125 -42.474611,0 L 84.375,133.5 Z m 45.93555,0 10.11718,17.52539 c -3.53617,2.04164 -6.75205,3.89909 -10.61718,6.13086 a 1.0001599,1.0001599 0 1 0 1,1.73242 c 3.86495,-2.23167 7.08116,-4.08931 10.61718,-6.13086 l 10.11719,17.52344 -20.23437,0 0,-3.02344 2,0 a 1.0001,1.0001 0 0 0 0.89453,-1.44726 l -2.96094,-5.92383 a 1.0001,1.0001 0 0 0 -1.87109,0.01 l -2.95703,5.91407 a 1.0001,1.0001 0 0 0 0.89453,1.44726 l 2,0 0,3.02344 -20.23633,0 L 130.31055,133.5 Z m 45.93554,0 21.23829,36.78125 -42.47461,0 L 176.24609,133.5 Z m 45.9375,0 10.11914,17.52539 c -3.53644,2.04189 -6.75348,3.89878 -10.61914,6.13086 a 1.0001599,1.0001599 0 1 0 1,1.73242 c 3.86549,-2.23198 7.08284,-4.08905 10.61914,-6.13086 l 10.11719,17.52344 -42.47461,0 10.11914,-17.52344 c 0.85947,0.49623 1.78166,1.02705 2.6211,1.51172 l -1,1.73242 a 1.0001,1.0001 0 0 0 0.80468,1.49805 l 6.60157,0.39648 a 1.0001,1.0001 0 0 0 0.9375,-1.62304 l -3.64453,-5.51953 a 1.0001,1.0001 0 0 0 -1.69922,0.0508 l -1,1.73242 c -0.83944,-0.48467 -1.76162,-1.01549 -2.6211,-1.51172 L 222.18359,133.5 Z m 45.9375,0 21.23633,36.78125 -42.47461,0 L 268.12109,133.5 Z m 45.93555,0 21.23633,36.78125 -42.4707,0 20.46875,-35.45313 0.76562,-1.32812 z m 45.93555,0 21.23828,36.78125 -42.47461,0 L 359.99219,133.5 Z m 45.9375,0 21.23633,36.78125 -42.47266,0 L 405.92969,133.5 Z m -208.09766,4.02539 0.38281,0 0,0.76367 -0.38281,-0.76367 z m 2.38281,0 0.38282,0 -0.38282,0.76367 0,-0.76367 z m -53.04101,9.60547 c -0.20756,0.11982 -0.45328,0.26225 -0.66211,0.38281 l -0.19141,-0.33203 0.85352,-0.0508 z m 91.87305,0 c -0.20754,0.11982 -0.4533,0.26225 -0.66211,0.38281 l -0.19141,-0.33203 0.85352,-0.0508 z m -90.87305,1.73242 -0.47071,0.71289 -0.1914,-0.33203 c 0.20856,-0.1204 0.45483,-0.26119 0.66211,-0.38086 z m 91.87305,0 -0.47071,0.71289 -0.1914,-0.33203 c 0.20854,-0.1204 0.45484,-0.26119 0.66211,-0.38086 z m -23.4375,4.34375 0.4707,0.71289 c -0.20755,-0.11983 -0.45328,-0.26224 -0.66211,-0.38281 l 0.19141,-0.33008 z m -1.19141,2.0625 c 0.20837,0.12031 0.45306,0.26324 0.66015,0.38281 l -0.85156,-0.0508 0.19141,-0.33203 z m -86.10742,9.22461 0,0.76367 -0.38086,0 0.38086,-0.76367 z m 2,0 0.38086,0.76367 -0.38086,0 0,-0.76367 z m -114.111331,7.78711 42.474609,0 -21.236328,36.7832 -21.238281,-36.7832 z m 45.9375,0 42.474611,0 -21.23633,36.7832 -21.238281,-36.7832 z m 45.937501,0 20.23633,0 0,12.26172 a 1.0001,1.0001 0 1 0 2,0 l 0,-12.26172 20.23633,0 -10.11915,17.52539 c -0.85891,-0.4959 -1.78025,-1.02738 -2.61914,-1.51172 l 1,-1.73242 a 1.0001,1.0001 0 0 0 -0.80664,-1.49805 l -6.61133,-0.39648 a 1.0001,1.0001 0 0 0 -0.93554,1.61133 1.0001,1.0001 0 0 0 0.01,0.0117 l 3.64454,5.51953 a 1.0001,1.0001 0 0 0 1.69921,-0.0508 l 1,-1.73243 c 0.83889,0.48434 1.76023,1.01582 2.61914,1.51172 l -10.11718,17.52539 -21.23633,-36.7832 z m 45.93555,0 42.47461,0 -10.11915,17.52539 c -0.85899,-0.49594 -1.78015,-1.02735 -2.61914,-1.51172 l 1,-1.73242 a 1.0001,1.0001 0 0 0 -0.80664,-1.49805 l -6.61328,-0.39648 a 1.0001,1.0001 0 0 0 -0.93555,1.61133 1.0001,1.0001 0 0 0 0.01,0.0117 l 3.64453,5.51953 a 1.0001,1.0001 0 0 0 1.70117,-0.0508 l 1,-1.73243 c 0.83898,0.48437 1.76015,1.01579 2.61914,1.51172 l -10.11914,17.52539 -10.11718,-17.52539 c 3.53602,-2.04155 6.75223,-3.89952 10.61718,-6.13086 a 1.0001,1.0001 0 1 0 -1,-1.73047 c -3.86481,2.23126 -7.08127,4.08742 -10.61718,6.12891 l -10.11914,-17.52539 z m 45.93554,0 42.47461,0 -21.23633,36.7832 -21.23828,-36.7832 z m 45.9375,0 42.47461,0 -21.23633,36.7832 -21.23828,-36.7832 z m 45.9375,0 42.47266,0 -21.23633,36.7832 -21.23633,-36.7832 z m 45.93555,0 42.47461,0 -21.23828,36.7832 -21.23633,-36.7832 z m 45.9375,0 42.47266,0 -21.23633,36.7832 -21.23633,-36.7832 z m -185.47852,0.99805 21.23828,36.78515 -20.23828,0 0,-3.02539 2,0 a 1.0001,1.0001 0 0 0 0.89454,-1.44531 l -2.96094,-5.92383 a 1.0001,1.0001 0 0 0 -1.8711,0.008 1.0001,1.0001 0 0 0 -0.002,0.006 l -2.95508,5.91016 a 1.0001,1.0001 0 0 0 0.89453,1.44531 l 2,0 0,3.02539 -20.23632,0 10.11718,-17.52539 c 3.5366,2.04188 6.7535,3.89879 10.61914,6.13086 a 1.0001599,1.0001599 0 1 0 1,-1.73242 c -3.86566,-2.23208 -7.08252,-4.08896 -10.61914,-6.13086 l 10.11914,-17.52734 z m -137.80859,0.002 21.236328,36.7832 -42.474609,0 21.238281,-36.7832 z m 45.93555,0 21.23632,36.7832 -42.472651,0 21.236331,-36.7832 z m 137.81054,0 21.23633,36.7832 -42.47265,0 21.23632,-36.7832 z m 91.87305,0 21.23633,36.7832 -42.47266,0 21.23633,-36.7832 z m 45.93555,0 21.23828,36.7832 -42.47461,0 21.23633,-36.7832 z m -229.6836,0.002 10.11914,17.52539 c -0.85899,0.49596 -1.78016,1.02732 -2.61914,1.51172 l -1,-1.73242 a 1.0001,1.0001 0 0 0 -1.70117,-0.0508 l -3.64453,5.52148 a 1.0001,1.0001 0 0 0 0.94922,1.61914 l 6.58984,-0.39648 a 1.0001,1.0001 0 0 0 0.80664,-1.49805 l -1,-1.73047 c 0.83922,-0.48454 1.75991,-1.01757 2.61914,-1.51367 l 10.11719,17.52539 -42.47265,0 10.11914,-17.52539 c 3.53638,2.04176 6.75342,3.89894 10.61914,6.13086 a 1.0001599,1.0001599 0 1 0 1,-1.73242 c -3.86572,-2.23192 -7.08276,-4.0891 -10.61914,-6.13086 l 10.11718,-17.52344 z m 137.8125,0 21.23633,36.78125 -42.47265,0 21.23632,-36.78125 z m -154.67578,13.62891 0.85352,0.0527 -0.19141,0.33008 c -0.2088,-0.12055 -0.45458,-0.26299 -0.66211,-0.38281 z m 45.9375,0 0.85352,0.0527 -0.19141,0.33008 c -0.20883,-0.12056 -0.45455,-0.26299 -0.66211,-0.38281 z m -46.93554,1.73437 c 0.2068,0.1194 0.45207,0.26073 0.66015,0.38086 l -0.1914,0.33008 -0.46875,-0.71094 z m 45.9375,0 c 0.20683,0.11941 0.45205,0.26072 0.66015,0.38086 l -0.18945,0.33008 -0.4707,-0.71094 z m -22.5,4.3418 0.1914,0.33203 c -0.20883,0.12058 -0.45455,0.26298 -0.66211,0.38281 l 0.47071,-0.71484 z m 1.1914,2.06445 0.19141,0.33008 -0.85156,0.0508 c 0.20682,-0.11941 0.45206,-0.2607 0.66015,-0.38086 z m 38.16992,9.22266 0,0.76367 -0.38281,0 0.38281,-0.76367 z m 2,0 0.38282,0.76367 -0.38282,0 0,-0.76367 z m -160.046871,7.78906 42.474609,0 -21.236328,36.78321 -21.238281,-36.78321 z m 45.9375,0 42.472651,0 -21.23632,36.78321 -21.236331,-36.78321 z m 45.935551,0 42.4746,0 -21.23828,36.78321 -21.23632,-36.78321 z m 45.9375,0 20.23632,0 0,12.25977 a 1.0001,1.0001 0 1 0 2,0 l 0,-12.25977 20.23828,0 -10.11914,17.52539 c -0.85922,-0.49609 -1.77996,-1.02913 -2.61914,-1.51367 l 1,-1.73047 a 1.0001,1.0001 0 0 0 -0.80664,-1.49804 l -6.60351,-0.39649 a 1.0001,1.0001 0 0 0 -0.92774,1.63086 l 3.63672,5.50977 a 1.0001,1.0001 0 0 0 1.70117,-0.0508 l 1,-1.73243 c 0.83895,0.48441 1.76016,1.01577 2.61914,1.51172 l -10.11914,17.52735 -21.23632,-36.78321 z m 45.9375,0 42.47265,0 -21.23633,36.78321 -21.23632,-36.78321 z m 45.93554,0 42.47461,0 -21.23633,36.78321 -21.23828,-36.78321 z m 45.9375,0 42.47266,0 -21.23633,36.78321 -21.23633,-36.78321 z m 45.93555,0 42.47461,0 -21.23828,36.78321 -21.23633,-36.78321 z m -323.28711,1 21.236328,36.78321 -42.474609,0 21.238281,-36.78321 z m 45.9375,0 21.23633,36.78321 -42.474611,0 L 84.375,213.06445 Z m 45.93555,0 21.23633,36.78321 -42.47266,0 21.23633,-36.78321 z m 45.93554,0 21.23633,36.78321 -42.47265,0 21.23632,-36.78321 z m 45.9375,0 21.23633,36.78321 -20.23633,0 0,-3.02539 2,0 a 1.0001,1.0001 0 0 0 0.89453,-1.44727 l -2.95703,-5.91406 a 1.0001,1.0001 0 0 0 -1.875,-0.002 1.0001,1.0001 0 0 0 -0.002,0.006 l -2.95508,5.91016 a 1.0001,1.0001 0 0 0 0.89453,1.44727 l 2,0 0,3.02539 -20.23828,0 10.1211,-17.52735 c 3.53618,2.04165 6.75171,3.89942 10.61718,6.13086 a 1.0001,1.0001 0 1 0 1,-1.73047 c -3.86528,-2.23133 -7.08117,-4.08931 -10.61718,-6.13086 l 10.11718,-17.52539 z m 45.9375,0 21.23633,36.78321 -42.47265,0 21.23632,-36.78321 z m 45.93555,0 21.23633,36.78321 -42.47266,0 21.23633,-36.78321 z m 45.93555,0 21.23828,36.78321 -42.47461,0 21.23633,-36.78321 z m 45.9375,0 21.23633,36.78321 -42.47266,0 21.23633,-36.78321 z m -200.60742,13.63086 0.85156,0.0508 -0.19141,0.33008 c -0.20808,-0.12015 -0.45334,-0.26144 -0.66015,-0.38086 z m -1.00391,1.73047 c 0.208,0.1201 0.45478,0.26197 0.66406,0.38281 l -0.1914,0.33203 -0.47266,-0.71484 z m 16.86523,15.63281 0,0.76368 -0.38281,0 0.38281,-0.76368 z m 2,0 0.38282,0.76368 -0.38282,0 0,-0.76368 z m -205.984371,7.78907 42.474609,0 L 38.4375,288.62891 17.199219,251.84766 Z m 45.9375,0 42.474611,0 L 84.375,288.62891 63.136719,251.84766 Z m 45.937501,0 42.47266,0 -21.23633,36.78125 -21.23633,-36.78125 z m 53.68945,0 34.72071,0 -10.11915,17.52539 c -8.51587,-4.91658 -17.26054,-9.96568 -25.58789,-14.77344 l 1,-1.73242 a 1.0001,1.0001 0 0 0 -0.0137,-1.01953 z m 38.1836,0 20.23632,0 0,12.25976 a 1.0001,1.0001 0 1 0 2,0 l 0,-12.25976 20.23633,0 -0.13281,0.23046 -0.002,0.002 -5.40039,3.5664 a 1.0001,1.0001 0 0 0 0.0508,1.69922 l 1.73242,1 c -0.98974,1.71432 -2.07166,3.58823 -3.07617,5.32813 l -4.08789,7.08008 -10.32032,17.875 c -3.74236,-6.48147 -7.15794,-12.39959 -10.7207,-18.57032 l -6.76367,-11.71289 1.73242,-1 a 1.0001,1.0001 0 0 0 0.0508,-1.69922 l -5.40234,-3.56836 -0.13281,-0.23046 z m 45.93554,0 34.72071,0 a 1.0001,1.0001 0 0 0 -0.0137,1.01953 l 1,1.73242 c -8.32732,4.80776 -17.07213,9.85686 -25.58789,14.77344 l -10.11914,-17.52539 z m 45.9375,0 42.47266,0 -21.23633,36.78125 -21.23633,-36.78125 z m 45.93555,0 42.47461,0 -21.23828,36.78125 -21.23633,-36.78125 z m 45.9375,0 42.47266,0 -21.23633,36.78125 -21.23633,-36.78125 z m -323.28711,1 21.236328,36.78125 -42.474609,0 21.238281,-36.78125 z m 45.93555,0 21.23632,36.78125 -42.472651,0 21.236331,-36.78125 z m 45.93554,0 21.23828,36.78125 -42.4746,0 21.23632,-36.78125 z m 45.9375,0 0.13282,0.22851 0,0.002 0.38867,6.46094 a 1.0001,1.0001 0 0 0 1.49805,0.80664 l 1.73242,-1 16.48437,28.55274 C 209.06825,281.90399 199.2133,276.21436 189.0957,270.37305 l 10.11914,-17.52539 z m 45.9375,0 10.11719,17.52539 c -10.11669,5.84087 -19.97168,11.52944 -30.35351,17.52343 3.23847,-5.60924 6.21744,-10.76815 9.32031,-16.14257 l 4.08789,-7.08008 c 1.00451,-1.7399 2.08643,-3.61381 3.07617,-5.32813 l 1.73242,1 a 1.0001,1.0001 0 0 0 1.49805,-0.80664 l 0.38672,-6.45703 0,-0.002 0.13476,-0.23242 z m 45.9375,0 21.23633,36.78125 -42.47461,0 21.23828,-36.78125 z m 45.93555,0 21.23633,36.78125 -42.47266,0 21.23633,-36.78125 z m 45.93555,0 21.23828,36.78125 -42.47461,0 21.23633,-36.78125 z m -223.57813,0.36914 0.85352,0.0508 -0.19141,0.33203 c -0.21522,-0.12426 -0.44701,-0.25863 -0.66211,-0.38281 z m 125.60157,0 c -0.2151,0.12418 -0.44689,0.25855 -0.66211,0.38281 l -0.19141,-0.33203 0.85352,-0.0508 z m -126.60157,1.73047 c 0.2151,0.12418 0.44689,0.25855 0.66211,0.38281 l -0.1914,0.33203 -0.47071,-0.71484 z m 127.60157,0 -0.47071,0.71484 -0.1914,-0.33203 c 0.21522,-0.12426 0.44701,-0.25863 0.66211,-0.38281 z m -82.66602,1.00585 0.71094,0.46876 -0.33008,0.1914 c -0.12201,-0.21133 -0.25908,-0.44922 -0.38086,-0.66016 z m 37.73047,0 -0.38086,0.66016 -0.33008,-0.1914 0.71094,-0.46876 z m -80.27149,0.37696 c 8.32735,4.80776 17.07202,9.85686 25.58789,14.77344 l -10.11914,17.52539 -17.35937,-30.06836 a 1.0001,1.0001 0 0 0 0.89062,-0.49805 l 1,-1.73242 z m 122.8125,0 1,1.73242 a 1.0001,1.0001 0 0 0 0.89063,0.49805 l -17.35938,30.06836 -10.11914,-17.52539 c 8.51576,-4.91658 17.26057,-9.96568 25.58789,-14.77344 z m -82.00586,0.62304 0.38282,0.66016 -0.33008,0.19141 -0.0527,-0.85157 z m 41.19922,0 -0.0527,0.85157 -0.33008,-0.19141 0.38281,-0.66016 z m -54.68554,15.1504 c 10.11761,5.84132 19.97253,11.53093 30.35546,17.52539 l -40.4746,0 10.11914,-17.52539 z m 68.17187,0 10.11914,17.52539 -40.47461,0 c 10.38264,-5.99446 20.23801,-11.68407 30.35547,-17.52539 z m -216.101561,19.52539 42.474609,0 -21.236328,36.78125 -21.238281,-36.78125 z m 45.9375,0 42.472651,0 -21.23632,36.78125 -21.236331,-36.78125 z m 45.935551,0 42.4746,0 -21.23828,36.78125 -21.23632,-36.78125 z m 45.9375,0 42.47265,0 -11.0332,19.11328 -10.20313,17.66992 -21.23632,-36.7832 z m 45.9375,0 42.47265,0 -21.23633,36.78125 -0.002,0 -21.23437,-36.78125 z m 45.93554,0 42.47461,0 -21.23633,36.78125 -21.23828,-36.78125 z m 45.9375,0 42.47266,0 -21.23633,36.78125 -21.23633,-36.78125 z m 45.93555,0 42.47461,0 -21.23828,36.78125 -21.23633,-36.78125 z m -323.28711,1 21.236328,36.78125 -42.474609,0 21.238281,-36.78125 z m 45.9375,0 21.23633,36.78125 -42.474611,0 L 84.375,292.62891 Z m 45.93555,0 21.23633,36.78125 -42.47266,0 21.23633,-36.78125 z m 45.93554,0 21.23829,36.78125 -42.47461,0 21.23632,-36.78125 z m 91.875,0 21.23633,36.78125 -42.47461,0 21.23828,-36.78125 z m 45.93555,0 21.23633,36.78125 -42.47266,0 21.23633,-36.78125 z m 45.93555,0 21.23828,36.78125 -42.47461,0 21.23633,-36.78125 z m 45.9375,0 21.23633,36.78125 -42.47266,0 21.23633,-36.78125 z m -182.7461,1.73242 20.23438,35.04883 -20.23438,0 0,-35.04883 z m -2,0.002 0,35.04688 -20.23437,0 18.2168,-31.55274 2.01757,-3.49414 z m -203.984371,37.04688 42.474609,0 -21.236328,36.7832 -21.238281,-36.7832 z m 45.9375,0 42.474611,0 -21.23633,36.7832 -21.238281,-36.7832 z m 45.937501,0 42.47266,0 -21.23633,36.7832 -21.23633,-36.7832 z m 45.93555,0 42.47461,0 -21.23633,36.7832 -0.002,0 -21.23632,-36.7832 z m 45.93554,0 20.23828,0 0,29.54687 -2,0 a 1.0001,1.0001 0 0 0 -0.87695,0.52149 l -17.36133,-30.06836 z m 22.23828,0 20.23633,0 -17.35937,30.07031 a 1.0001,1.0001 0 0 0 -0.87696,-0.52344 l -2,0 0,-29.54687 z m 23.69922,0 42.47461,0 -21.23633,36.7832 -0.002,0 -21.23633,-36.7832 z m 45.9375,0 42.47266,0 -21.23633,36.7832 -21.23633,-36.7832 z m 45.93555,0 42.47461,0 -21.23828,36.7832 -21.23633,-36.7832 z m 45.9375,0 42.47266,0 -21.23633,36.7832 -21.23633,-36.7832 z m -323.28711,1 21.236328,36.7832 -42.474609,0 21.238281,-36.7832 z m 45.93555,0 21.23632,36.7832 -42.472651,0 21.236331,-36.7832 z m 45.93554,0 21.23828,36.7832 -42.4746,0 21.23632,-36.7832 z m 45.93946,0 21.23632,36.7832 -42.47265,0 21.23633,-36.7832 z m 45.93359,0 21.23633,36.7832 -42.4707,0 21.23437,-36.7832 z m 45.93945,0 21.23633,36.7832 -42.47461,0 21.23828,-36.7832 z m 45.93555,0 21.23633,36.7832 -42.47266,0 21.23633,-36.7832 z m 45.93555,0 21.23828,36.7832 -42.47461,0 21.23633,-36.7832 z m -162.16016,30.54687 0.38281,0 0,0.76563 -0.38281,-0.76563 z m 2.38281,0 0.38282,0 -0.38282,0.76563 0,-0.76563 z"
     id="path966"
     inkscape:connector-curvature="0" />
  <defs
     id="defs970">
    <clipPath
       id="p101b2b20a6">
      <rect
         height="406.08"
         width="429.967058824"
         x="7.2"
         y="7.2"
         id="rect973" />
    </clipPath>
  </defs>
</svg>
