<?xml version="1.0" encoding="UTF-8" standalone="no"?>
<svg
   version="1.1"
   width="299.90131"
   viewBox="0 0 299.9013 226.77165"
   height="226.77165"
   id="svg88"
   sodipodi:docname="manga-8x6.svg"
   inkscape:version="1.1.2 (0a00cf5339, 2022-02-04)"
   xmlns:inkscape="http://www.inkscape.org/namespaces/inkscape"
   xmlns:sodipodi="http://sodipodi.sourceforge.net/DTD/sodipodi-0.dtd"
   xmlns:xlink="http://www.w3.org/1999/xlink"
   xmlns="http://www.w3.org/2000/svg"
   xmlns:svg="http://www.w3.org/2000/svg"
   xmlns:inkstitch="http://inkstitch.org/namespace">
  <defs
     id="defs92">
    <symbol
       id="inkstitch_ignore_layer">
      <title
         id="title9694">Ignore entire layer when generating stitch plan</title>
      <path
         inkscape:connector-curvature="0"
         style="opacity:1;vector-effect:none;fill:#fafafa;fill-opacity:1;fill-rule:evenodd;stroke:#ff0000;stroke-width:1.06501;stroke-linecap:round;stroke-linejoin:miter;stroke-miterlimit:4;stroke-dasharray:3.19504, 3.19504;stroke-dashoffset:0;stroke-opacity:1"
         d="M 9.2465269,-4.9265995e-6 C 9.246525,5.1067241 5.1067028,9.2465451 -2.615882e-5,9.2465451 -5.1067554,9.2465451 -9.2465782,5.1067241 -9.2465801,-4.9265995e-6 -9.24658,-2.4523429 -8.2723922,-4.8042399 -6.538327,-6.5383059 c 1.7340653,-1.734065 4.0859624,-2.708252 6.53830084118,-2.708252 5.10673015882,0 9.24655285882,4.139823 9.24655305882,9.2465529734005 0,0 0,0 0,0"
         id="inkstitch_path25368-7" />
      <path
         sodipodi:nodetypes="ccccc"
         inkscape:connector-curvature="0"
         style="color:#000000;fill:#d5d5d5;fill-opacity:1;fill-rule:evenodd;stroke:#5a5a5a;stroke-width:0.6333;stroke-linecap:square;stroke-linejoin:round;stroke-miterlimit:0;stroke-opacity:1"
         d="M 4,4.452769 1.46667,1.286102 H -5.5 l 2.53333,3.166667 z"
         id="use5800" />
      <path
         sodipodi:nodetypes="ccccc"
         inkscape:connector-curvature="0"
         style="color:#000000;opacity:0.5;fill:#d5d5d5;fill-opacity:1;fill-rule:evenodd;stroke:#858585;stroke-width:0.633394;stroke-linecap:square;stroke-linejoin:round;stroke-miterlimit:0;stroke-opacity:1"
         d="M 4,2.552769 1.46667,-0.613898 H -5.5 l 2.53333,3.166667 z"
         id="use5864" />
      <g
         id="g5771">
        <path
           sodipodi:nodetypes="ccccccccc"
           inkscape:connector-curvature="0"
           style="fill:#aa0000;fill-rule:evenodd;stroke:#aa0000;stroke-width:1px"
           d="m -1.0666699,-5.0472339 h 4.4333333 l 0.6333333,0.6333333 V 0.01943274 L 3.3666634,0.65276607 H -1.0666699 L -1.7000032,0.01943274 V -4.4139006 Z"
           id="path8011" />
        <path
           inkscape:connector-curvature="0"
           id="path8023"
           d="m -0.43333658,-3.8755672 c 0,0 3.16666668,3.16666661 3.16666668,3.16666661"
           style="fill:none;stroke:#ffffff;stroke-width:1.7" />
        <path
           inkscape:connector-curvature="0"
           id="path8025"
           d="m 2.7333301,-3.8755672 c 0,0 -3.16666668,3.16666661 -3.16666668,3.16666661"
           style="fill:none;stroke:#ffffff;stroke-width:1.8;stroke-linejoin:round" />
      </g>
    </symbol>
  </defs>
  <sodipodi:namedview
     id="namedview90"
     pagecolor="#000000"
     bordercolor="#666666"
     borderopacity="1.0"
     inkscape:pageshadow="2"
     inkscape:pageopacity="0"
     inkscape:pagecheckerboard="0"
     showgrid="false"
     inkscape:zoom="1.3837043"
     inkscape:cx="338.94526"
     inkscape:cy="241.38106"
     inkscape:window-width="1920"
     inkscape:window-height="1080"
     inkscape:window-x="0"
     inkscape:window-y="0"
     inkscape:window-maximized="1"
     inkscape:current-layer="svg88"
     fit-margin-top="0"
     fit-margin-left="0"
     fit-margin-right="0"
     fit-margin-bottom="0" />
  <g
     id="g86"
     transform="matrix(0.534444 0 0 0.534444 -1.82655 -1.54465)">
    <g
       id="g10">
      <metadata
         id="metadata2">
Created by potrace 1.16, written by Peter Selinger 2001-2019
<inkstitch:collapse_len_mm />
<inkstitch:min_stitch_len_mm />
</metadata>
      <g
         transform="matrix(0.069138 0 0 -0.069138 0 430.728)"
         fill="#ff0000"
         stroke="none"
         id="g8">
        <g
           id="g6">
          <path
             d="m 5207,1165 c -12,-19 -32,-39 -45,-45 -30,-13 -115,-13 -107,0 3,6 1,10 -4,10 -6,0 -11,9 -11,20 0,34 -34,43 -78,21 -21,-11 -44,-26 -50,-33 -23,-29 17,-98 85,-146 39,-28 46,-28 58,0 6,12 22,29 36,37 36,20 111,-3 119,-37 l 5,-24 30,24 c 17,12 38,32 47,43 16,19 16,21 -2,34 -30,20 -25,41 10,41 27,0 30,3 30,30 0,17 -1,30 -2,30 -2,0 -24,7 -51,15 l -47,14 z"
             id="path4"
             inkstitch:angle="90"
             inkstitch:fill_method="0"
             inkstitch:fill_underlay="False" />
        </g>
      </g>
    </g>
    <g
       id="g84">
      <metadata
         id="metadata12">
Created by potrace 1.16, written by Peter Selinger 2001-2019
</metadata>
      <g
         transform="matrix(0.069138 0 0 -0.069138 0 430.728)"
         fill="#ffffff"
         stroke="none"
         id="g82">
        <g
           id="g16">
          <path
             d="m 3765,6178 c -273,-22 -588,-104 -839,-220 -115,-53 -313,-165 -421,-238 -22,-15 -67,-45 -100,-66 -33,-21 -113,-77 -178,-124 -65,-47 -146,-104 -180,-128 -145,-99 -200,-145 -353,-297 -88,-88 -218,-224 -288,-301 -141,-159 -321,-334 -441,-431 -94,-75 -230,-144 -297,-151 -45,-4 -59,-14 -39,-26 5,-3 66,-1 135,4 90,8 151,19 213,39 49,16 89,28 91,26 3,-3 -37,-78 -142,-270 C 890,3929 768,3691 654,3465 399,2958 358,2882 280,2775 238,2718 126,2611 81,2584 c -30,-18 -42,-44 -21,-44 24,0 214,134 270,190 33,33 60,59 60,57 0,-2 -18,-58 -39,-124 -53,-161 -74,-276 -75,-411 -1,-90 2,-115 14,-122 21,-13 25,-5 50,85 32,115 92,262 139,339 39,65 67,102 166,221 28,33 65,84 84,113 18,29 36,51 38,48 9,-9 -47,-213 -88,-322 -23,-60 -68,-167 -101,-239 -137,-297 -166,-388 -175,-556 -7,-133 7,-151 38,-47 71,243 94,295 201,455 27,40 63,102 79,136 20,41 28,52 24,32 -26,-152 -32,-264 -14,-296 7,-15 5,-45 -10,-117 -39,-190 -45,-256 -44,-467 1,-218 8,-280 33,-280 11,0 18,23 28,85 26,174 119,565 121,510 1,-8 -8,-71 -18,-140 -39,-248 -36,-689 4,-926 20,-115 53,-214 71,-214 17,0 21,21 28,135 7,113 45,267 91,364 20,41 69,127 110,192 41,65 75,122 75,127 0,5 7,16 16,23 15,13 16,9 11,-41 -20,-175 -20,-336 1,-315 4,4 10,111 14,238 4,128 9,250 12,272 5,29 -5,13 -33,-58 -46,-114 -126,-250 -211,-357 -11,-14 -20,-29 -20,-34 0,-5 -6,-3 -14,3 -10,9 -15,8 -20,-4 -3,-8 -11,-15 -18,-15 -11,0 -11,2 0,8 9,6 10,16 3,33 l -9,24 -7,-28 c -8,-29 -35,-38 -35,-11 0,8 -4,13 -9,10 -20,-13 12,93 65,212 121,274 167,379 185,427 l 19,50 -5,-60 c -3,-33 -13,-86 -21,-119 -44,-171 60,44 115,239 22,77 47,167 55,200 14,60 14,59 14,-110 1,-93 -3,-217 -8,-275 -6,-58 -12,-145 -15,-195 -4,-79 -3,-84 6,-40 13,66 49,175 57,175 4,0 5,-39 2,-87 -7,-130 3,-389 14,-338 10,51 41,229 56,322 6,40 18,77 26,84 12,10 14,-3 14,-87 0,-132 16,-292 38,-384 l 19,-75 7,80 c 22,258 105,629 136,610 5,-3 11,1 13,7 3,7 6,2 6,-11 l 1,-24 19,21 c 20,24 41,29 41,10 0,-9 4,-8 11,2 8,12 10,9 6,-12 -2,-15 -1,-25 4,-23 4,3 11,-4 14,-15 10,-30 36,-20 49,18 6,18 15,30 19,26 6,-7 22,48 17,62 -1,4 3,10 8,13 5,3 18,78 29,166 l 20,160 2,-243 c 2,-409 27,-714 72,-882 24,-88 60,-192 66,-187 2,2 -3,46 -12,98 -40,252 -39,543 2,749 8,41 18,111 21,155 7,73 8,66 14,-90 7,-196 26,-343 40,-306 5,15 13,21 24,17 9,-3 21,-6 28,-6 7,0 18,-22 24,-50 15,-65 110,-314 129,-337 14,-17 14,-17 9,2 -2,11 -21,61 -40,112 -49,125 -64,187 -77,315 -18,182 12,394 91,658 39,126 79,234 86,228 1,-2 -2,-111 -7,-243 -9,-233 -24,-368 -54,-469 -18,-58 -19,-80 -5,-71 24,15 152,224 182,298 42,103 47,73 9,-66 -16,-59 -25,-107 -21,-107 17,0 50,73 64,142 28,140 39,257 34,379 -2,68 -1,113 2,99 9,-39 17,-7 25,101 4,52 13,104 20,115 8,12 15,43 17,70 2,27 7,-9 11,-81 26,-454 60,-631 180,-943 46,-121 50,-137 39,-165 -10,-29 -10,-30 3,-13 18,23 15,26 54,-51 30,-60 51,-86 51,-63 0,6 -18,52 -39,103 -75,178 -101,314 -101,530 0,196 30,437 54,437 8,0 11,-56 12,-198 1,-298 52,-576 145,-787 64,-146 64,-127 1,100 -36,127 -36,134 -37,315 0,171 17,360 34,360 9,0 70,-134 97,-213 49,-144 94,-412 94,-558 0,-43 4,-80 9,-83 17,-11 36,181 35,367 l -1,189 24,-84 c 26,-89 80,-215 89,-206 3,3 -2,30 -10,59 -29,105 -33,299 -5,299 5,0 9,-8 9,-18 0,-37 52,-216 83,-285 38,-88 91,-179 112,-197 14,-11 15,-10 6,11 -5,13 -25,59 -44,101 -20,42 -50,123 -68,180 -17,57 -37,117 -44,133 -16,36 -18,116 -3,94 17,-24 1,111 -26,223 -31,129 -63,311 -70,403 -5,69 -5,68 15,-30 11,-55 33,-172 50,-260 50,-261 128,-473 314,-850 107,-216 179,-340 239,-410 24,-28 23,-25 -10,50 -19,44 -44,98 -56,120 -11,22 -27,58 -35,80 -52,140 -98,283 -119,365 -22,88 -88,509 -81,516 3,4 41,-143 52,-204 4,-18 14,-39 22,-48 13,-12 13,-18 4,-24 -8,-5 -9,-10 -3,-14 6,-3 19,9 29,27 20,33 103,308 103,340 0,9 6,17 13,17 7,0 27,42 46,101 18,55 35,99 37,96 6,-5 -53,-200 -105,-347 -23,-63 -41,-123 -41,-133 0,-10 -7,-29 -16,-42 -10,-15 -12,-25 -5,-25 6,0 11,5 11,10 0,6 4,10 9,10 11,0 9,-19 -3,-39 -6,-10 -5,-12 2,-7 8,5 12,-1 13,-16 0,-13 2,-72 3,-133 2,-83 12,-151 41,-280 21,-93 41,-174 46,-179 12,-13 73,121 103,226 14,48 33,138 42,200 9,62 17,114 19,116 7,8 15,-174 10,-243 -11,-148 -67,-421 -85,-410 -9,6 -29,-81 -21,-94 4,-5 11,-7 17,-3 12,8 10,4 100,261 35,102 65,178 67,170 2,-8 14,-66 26,-129 26,-131 72,-263 121,-344 19,-30 35,-54 37,-53 1,2 -4,28 -12,58 -8,30 -24,106 -35,169 -11,63 -26,141 -32,173 -6,32 -9,60 -6,62 3,3 17,-21 32,-52 56,-116 127,-229 176,-283 28,-30 44,-43 35,-29 -8,14 -22,52 -30,83 -8,32 -24,76 -34,99 -10,23 -35,89 -56,147 -45,130 -99,271 -159,415 -25,61 -58,157 -74,215 -16,58 -33,114 -37,125 -7,18 -6,18 12,-3 11,-12 25,-22 31,-22 12,0 27,38 19,47 -3,2 -1,18 3,34 6,21 2,52 -16,115 -25,87 -27,122 -4,62 53,-136 213,-420 308,-548 82,-110 299,-318 403,-387 54,-35 49,-58 -20,-98 -29,-17 -58,-39 -63,-48 -11,-21 -11,-21 43,-1 156,56 443,79 634,51 95,-14 101,-14 121,4 11,11 23,16 26,13 11,-11 137,176 142,210 1,8 5,18 8,21 6,7 108,-127 108,-143 0,-16 27,-22 38,-9 5,7 17,59 25,117 9,58 18,116 20,130 4,22 4,21 5,-5 6,-143 -96,-542 -184,-717 l -36,-73 32,30 c 38,36 88,103 135,181 19,32 35,50 35,42 0,-9 -4,-20 -10,-23 -5,-3 -10,-28 -10,-56 0,-77 -86,-378 -120,-422 -11,-13 -17,-27 -13,-30 3,-4 -2,-18 -11,-31 -18,-28 -21,-56 -7,-56 6,0 23,17 38,37 15,21 44,58 64,83 38,49 184,336 194,385 4,17 9,37 12,45 3,8 7,29 10,45 2,17 9,53 16,80 l 13,50 7,-85 c 3,-47 13,-119 21,-160 9,-41 17,-84 19,-95 4,-22 29,-82 53,-130 l 14,-30 -5,30 c -22,134 -26,191 -21,275 8,115 23,237 37,305 16,77 16,77 38,66 47,-25 101,-291 101,-501 1,-112 2,-122 14,-95 19,44 47,240 56,389 l 7,131 1,-126 c 2,-100 6,-133 21,-165 33,-68 42,-149 39,-337 -2,-97 0,-177 3,-177 19,0 42,62 57,154 l 17,102 28,-70 c 90,-221 120,-345 115,-480 -2,-64 0,-90 9,-93 17,-6 90,109 108,169 8,27 17,76 21,110 l 7,61 28,-77 c 30,-83 100,-219 134,-262 36,-46 47,-21 19,47 -61,150 -92,351 -104,684 -5,143 -12,307 -15,365 l -6,105 22,-35 c 12,-19 50,-78 84,-130 122,-186 176,-342 193,-553 5,-59 12,-110 15,-113 28,-28 67,86 94,279 11,81 16,193 16,402 1,276 -5,360 -38,576 -5,29 -3,28 10,-11 27,-77 83,-329 101,-453 14,-94 21,-117 33,-115 20,4 28,40 36,166 9,148 -9,406 -40,559 -18,87 -23,129 -15,137 17,17 10,157 -15,296 -5,27 2,19 28,-35 18,-38 64,-116 101,-172 88,-134 109,-183 175,-410 12,-40 26,-73 31,-73 15,0 12,160 -4,237 -26,120 -56,204 -137,375 -87,187 -159,377 -195,517 -13,51 -24,98 -24,103 0,6 28,-28 63,-75 34,-46 95,-125 134,-173 106,-130 168,-253 227,-454 35,-118 56,-136 68,-60 20,129 -27,393 -108,595 -4,11 26,-11 68,-50 78,-73 243,-179 261,-168 6,4 2,13 -10,22 -12,9 -44,34 -73,56 -71,55 -145,146 -218,268 -55,93 -275,524 -400,787 -67,140 -158,310 -225,423 -59,100 -81,165 -49,152 58,-25 164,-47 274,-57 71,-6 131,-9 134,-5 13,13 -9,27 -45,27 -51,0 -177,63 -279,140 -104,78 -255,220 -397,374 -264,287 -323,348 -453,470 -232,218 -431,367 -838,623 -279,177 -626,303 -971,352 -116,17 -186,20 -443,19 -168,-1 -350,-6 -405,-10 z m 692,-273 38,-15 -35,7 c -70,13 -269,4 -397,-17 -148,-25 -386,-91 -523,-145 -104,-41 -245,-109 -413,-199 -59,-32 -111,-56 -114,-53 -15,15 -159,-80 -312,-206 -25,-20 -51,-42 -58,-47 -8,-6 -14,-6 -18,1 -4,5 6,20 22,32 15,12 37,31 48,43 67,69 259,204 390,274 44,24 95,51 114,62 59,33 273,115 334,128 31,6 83,22 116,35 104,43 373,103 526,119 73,7 243,-4 282,-19 z m -12,-213 c -6,-4 -41,-33 -80,-64 -123,-99 -283,-279 -407,-458 -95,-138 -231,-393 -298,-558 -67,-166 -163,-551 -186,-746 -8,-67 -23,-155 -34,-196 -11,-41 -24,-97 -29,-125 -7,-42 -9,-30 -10,80 -2,235 59,614 122,756 13,30 38,88 55,129 89,215 165,386 195,435 7,10 36,58 65,104 29,47 50,91 48,98 -3,6 0,14 7,17 7,2 4,5 -6,5 -15,1 -15,4 -5,21 7,11 16,20 21,20 4,0 5,-5 2,-10 -4,-6 -1,-9 7,-8 13,3 48,41 48,53 0,4 -9,-3 -20,-16 -15,-19 -19,-21 -20,-7 0,16 19,37 104,118 20,19 36,37 36,41 0,4 9,11 21,14 11,4 18,9 16,12 -11,10 236,225 314,272 35,21 51,27 34,13 z m 433,-202 c 26,-42 72,-129 102,-193 34,-74 60,-117 70,-117 10,0 11,-3 3,-8 -8,-5 -4,-24 14,-67 13,-33 45,-125 69,-205 24,-80 46,-151 49,-158 3,-7 0,-10 -5,-7 -12,7 -6,-62 15,-184 25,-142 15,-133 -20,19 -42,181 -37,165 -130,405 -43,110 -79,216 -80,235 -4,59 -5,61 -17,54 -7,-4 -8,-3 -4,5 13,20 -72,216 -127,296 -17,24 -17,27 -4,16 10,-8 39,-49 65,-91 z m 250,-402 c 35,-92 35,-94 -3,-30 -30,52 -38,82 -20,82 2,0 12,-24 23,-52 z M 4056,4593 c -15,-43 -37,-141 -96,-428 -10,-50 -26,-171 -34,-270 -9,-99 -23,-214 -31,-255 -8,-41 -16,-86 -18,-100 -2,-14 -5,46 -6,133 -1,103 -4,156 -11,152 -42,-26 1,253 60,390 5,11 23,70 41,130 37,127 101,307 107,300 2,-2 -3,-26 -12,-52 z m 428,-688 c 44,-369 192,-783 385,-1080 83,-127 64,-113 -26,19 -163,241 -317,659 -368,1000 -14,95 -20,204 -11,195 3,-3 12,-63 20,-134 z m 2301,-185 c 15,-41 31,-89 36,-107 5,-18 14,-35 20,-38 5,-4 7,-11 4,-16 -4,-5 -1,-9 4,-9 6,0 11,-7 11,-16 0,-8 -5,-12 -11,-8 -7,4 -10,-3 -9,-17 1,-13 1,-40 0,-59 -1,-33 -2,-33 -10,-10 -16,49 -68,256 -75,295 -3,22 -9,49 -12,60 -13,48 17,-6 42,-75 z m -4850,-86 c -26,-55 -82,-186 -126,-292 -44,-107 -86,-206 -93,-220 -14,-27 -99,-248 -111,-289 -3,-13 -2,-23 3,-23 11,0 126,86 212,158 121,103 323,328 389,435 27,44 38,49 16,7 -87,-168 -346,-434 -567,-582 -106,-71 -118,-77 -96,-52 21,24 88,231 88,270 0,17 -5,35 -11,41 -11,11 8,106 20,98 4,-2 14,11 21,30 8,19 17,35 22,35 4,0 8,7 8,15 0,9 7,18 15,21 8,4 15,13 15,21 0,8 4,11 10,8 5,-3 58,91 117,209 110,220 151,286 68,110 z m 4328,-344 c 51,-135 87,-226 96,-241 5,-9 12,-38 16,-65 4,-27 13,-84 21,-128 8,-43 14,-86 13,-95 0,-21 -42,117 -75,249 -21,84 -68,241 -102,340 -3,8 -3,13 1,10 3,-3 17,-34 30,-70 z m -932,-380 c -7,-54 -14,-123 -16,-152 -3,-29 -16,-134 -30,-233 -28,-204 -29,-208 -15,-200 6,3 10,2 10,-3 0,-5 14,-9 30,-10 29,-1 30,1 31,41 1,38 2,39 8,12 15,-68 17,-2 4,109 -20,179 -10,163 20,-29 47,-301 50,-336 51,-564 0,-123 4,-215 8,-205 10,25 60,242 84,364 14,68 20,86 22,62 5,-45 184,-382 204,-382 3,0 11,24 17,53 l 10,52 -5,-60 c -12,-135 -70,-321 -112,-363 -21,-21 -24,-21 -97,-7 -52,10 -144,15 -286,15 h -210 l -71,57 c -119,95 -184,169 -290,333 -54,83 -102,170 -95,170 3,0 34,-51 71,-112 77,-131 102,-165 112,-156 14,15 24,181 19,348 l -5,175 15,-79 c 24,-125 101,-374 112,-362 2,2 -5,39 -16,82 -35,143 -60,287 -71,413 -6,68 -8,126 -6,129 3,2 16,-36 30,-84 87,-298 188,-553 206,-523 5,7 14,44 21,81 11,61 10,77 -15,188 -23,103 -46,253 -30,195 11,-38 67,-155 75,-155 14,0 33,154 49,405 l 9,140 -4,-165 c -4,-176 -29,-386 -71,-592 -29,-147 -34,-128 66,-268 65,-91 155,-189 164,-179 3,2 -24,49 -60,104 -61,95 -115,214 -133,296 -7,32 10,153 24,167 2,2 23,-28 48,-66 57,-88 169,-208 185,-198 23,14 12,72 -32,171 -24,55 -60,152 -81,215 -21,63 -41,119 -45,124 -5,4 -18,-38 -31,-94 -13,-57 -25,-98 -27,-92 -2,6 10,73 27,149 42,194 76,397 103,616 12,104 24,184 26,177 2,-6 -1,-55 -7,-110 z m -3321,-4 c 0,-15 -336,-164 -346,-154 -2,2 58,30 134,62 75,31 153,66 172,76 39,21 40,22 40,16 z m 5643,-83 c 55,-77 77,-110 131,-203 80,-138 114,-225 121,-306 l 5,-69 -24,65 c -46,126 -78,195 -131,275 -29,45 -59,88 -67,96 -40,41 -88,108 -88,122 0,9 8,20 17,26 10,5 15,12 12,15 -3,3 -15,-3 -27,-14 -26,-24 -30,-15 -5,12 22,25 25,23 56,-19 z M 605,2782 c -11,-9 -31,-33 -45,-52 -13,-19 -27,-37 -30,-40 -4,-3 -24,-30 -44,-60 -44,-63 -54,-75 -36,-40 28,52 99,158 124,183 14,14 26,32 26,39 0,9 3,9 13,-1 10,-10 8,-16 -8,-29 z m 415,11 c 0,4 6,2 14,-5 9,-9 11,-19 5,-30 -12,-23 -11,-71 1,-63 17,10 14,0 -21,-65 -31,-59 -116,-243 -124,-270 -4,-14 -22,-56 -40,-95 -18,-38 -35,-77 -39,-85 -23,-55 14,69 60,196 52,148 65,199 45,179 -12,-12 -91,-206 -137,-335 l -34,-95 v 60 c 0,33 5,89 10,125 9,65 14,75 154,313 37,63 86,165 86,178 0,11 2,11 10,-1 5,-8 10,-11 10,-7 z m 559,-73 c -10,-6 -28,-52 -45,-112 -15,-56 -29,-98 -31,-92 -2,5 8,47 21,93 13,46 22,89 19,96 -2,7 4,15 14,18 31,8 39,7 22,-3 z m 3485,-142 c 10,-16 16,-28 13,-28 -8,0 -101,120 -103,133 -1,7 -5,21 -9,32 -6,17 45,-54 99,-137 z m 973,-474 c 28,-50 67,-115 85,-145 19,-30 45,-72 57,-94 21,-37 21,-38 2,-15 -34,40 -147,222 -201,323 -47,87 -140,293 -140,306 1,3 34,-59 74,-139 40,-80 95,-186 123,-236 z m 213,48 c 41,-40 113,-100 159,-132 100,-71 99,-79 -2,-14 -85,55 -211,174 -274,259 l -44,60 43,-50 c 23,-27 76,-83 118,-123 z m 1132,-187 c 16,-38 50,-128 75,-200 43,-122 46,-137 50,-250 1,-66 1,-115 -2,-110 -2,6 -18,73 -34,150 -31,144 -90,356 -110,393 -6,12 -24,56 -40,99 -15,43 -31,87 -35,98 -16,43 67,-114 96,-180 z M 2183,1585 c 3,-44 9,-90 13,-102 6,-22 6,-22 -25,-7 -30,15 -32,19 -27,57 3,23 8,69 12,102 8,76 20,55 27,-50 z m 4766,-170 c 5,2 11,-129 15,-293 3,-163 9,-344 12,-402 4,-58 4,-103 1,-100 -22,20 -65,399 -73,641 -6,167 -5,186 9,192 10,4 18,14 19,24 1,10 3,-1 5,-25 2,-23 8,-40 12,-37 z m 220,-90 c 41,-103 110,-319 155,-485 l 26,-95 -18,-60 -18,-60 -7,81 c -13,149 -66,309 -153,458 -21,38 -48,85 -59,105 -11,20 -22,38 -25,41 -8,8 -30,60 -25,60 2,0 12,-8 21,-17 15,-15 17,-16 12,-2 -4,9 2,29 12,44 10,15 16,35 13,44 -5,14 -4,14 10,1 9,-8 34,-60 56,-115 z"
             id="path14"
             inkstitch:angle="90"
             inkstitch:fill_method="0"
             inkstitch:fill_underlay="False" />
        </g>
        <g
           id="g20">
          <path
             d="m 3144,1866 c -3,-9 -3,-23 0,-32 3,-9 -11,-39 -35,-75 -22,-33 -39,-65 -36,-72 2,-6 22,17 46,51 23,34 39,62 36,62 -4,0 1,7 10,16 18,18 17,55 -2,62 -7,2 -16,-3 -19,-12 z"
             id="path18"
             inkstitch:angle="90"
             inkstitch:fill_method="0"
             inkstitch:fill_underlay="False" />
        </g>
        <g
           id="g24">
          <path
             d="m 3350,1555 c 0,-108 6,-156 34,-294 19,-91 44,-213 55,-271 l 21,-105 -6,95 c -4,84 -27,280 -67,583 -21,151 -37,148 -37,-8 z"
             id="path22"
             inkstitch:angle="90"
             inkstitch:fill_method="0"
             inkstitch:fill_underlay="False" />
        </g>
        <g
           id="g28">
          <path
             d="m 4694,1597 c -2,-7 -3,-62 -2,-123 l 3,-109 23,69 c 12,38 25,85 28,106 5,32 3,39 -20,54 -21,13 -27,14 -32,3 z"
             id="path26"
             inkstitch:angle="90"
             inkstitch:fill_method="0"
             inkstitch:fill_underlay="False" />
        </g>
        <g
           id="g32">
          <path
             d="m 2270,1404 c 0,-5 37,-31 83,-58 97,-59 97,-59 97,-52 0,6 -144,104 -165,112 -8,4 -15,2 -15,-2 z"
             id="path30"
             inkstitch:angle="90"
             inkstitch:fill_method="0"
             inkstitch:fill_underlay="False" />
        </g>
        <g
           id="g36">
          <path
             d="m 3695,1166 c -38,-12 -75,-24 -81,-28 -8,-5 -5,-34 8,-100 14,-64 21,-147 24,-268 5,-248 -15,-333 -88,-364 C 3460,364 3407,347 3223,302 3111,274 2959,228 2884,200 2724,140 2472,73 2357,61 l -82,-8 84,-2 c 111,-1 262,33 509,115 107,36 257,81 334,100 172,43 348,99 394,126 22,13 45,40 60,70 22,44 25,61 23,146 -1,53 1,111 4,127 3,17 34,82 69,145 105,187 122,226 108,247 -10,16 -11,16 -6,1 3,-10 1,-18 -5,-18 -6,0 -7,-4 -4,-10 3,-5 4,-10 0,-10 -3,0 -10,10 -16,23 -7,17 -8,14 -4,-18 5,-36 4,-38 -9,-22 -13,17 -16,13 -36,-55 -26,-89 -70,-189 -80,-183 -4,2 -12,39 -19,82 -7,43 -17,104 -22,137 -6,32 -7,62 -2,66 4,3 36,15 71,25 36,11 62,24 62,32 0,16 -9,15 -95,-11 z"
             id="path34"
             inkstitch:angle="90"
             inkstitch:fill_method="0"
             inkstitch:fill_underlay="False" />
        </g>
        <g
           id="g40">
          <path
             d="m 5270,1095 c 0,-22 31,-33 68,-23 55,15 34,38 -34,38 -23,0 -34,-5 -34,-15 z"
             id="path38"
             inkstitch:angle="90"
             inkstitch:fill_method="0"
             inkstitch:fill_underlay="False" />
        </g>
        <g
           id="g44">
          <path
             d="m 5078,1021 c -14,-11 -28,-29 -31,-40 -4,-16 3,-20 41,-25 61,-8 122,9 122,34 0,22 -21,35 -70,45 -28,5 -41,2 -62,-14 z"
             id="path42"
             inkstitch:angle="90"
             inkstitch:fill_method="0"
             inkstitch:fill_underlay="False" />
        </g>
        <g
           id="g48">
          <path
             d="m 2830,1000 c 14,-10 63,-39 220,-130 36,-21 115,-67 175,-102 138,-82 179,-103 170,-89 -27,44 -516,331 -562,331 -16,0 -16,-2 -3,-10 z"
             id="path46"
             inkstitch:angle="90"
             inkstitch:fill_method="0"
             inkstitch:fill_underlay="False" />
        </g>
        <g
           id="g52">
          <path
             d="m 3980,1006 c 0,-3 -13,-41 -30,-85 -16,-45 -27,-81 -25,-81 7,0 65,127 65,141 0,6 6,7 13,3 8,-5 8,-2 -2,9 -13,17 -21,21 -21,13 z"
             id="path50"
             inkstitch:angle="90"
             inkstitch:fill_method="0"
             inkstitch:fill_underlay="False" />
        </g>
        <g
           id="g56">
          <path
             d="M 2547,878 C 2436,742 2287,543 2266,502 c -47,-90 3,-31 336,402 26,33 48,64 48,69 1,22 -27,-3 -103,-95 z"
             id="path54"
             inkstitch:angle="90"
             inkstitch:fill_method="0"
             inkstitch:fill_underlay="False" />
        </g>
        <g
           id="g60">
          <path
             d="m 1835,879 c 4,-29 13,-69 21,-88 l 13,-36 v 32 c 1,44 -18,131 -31,139 -7,4 -8,-11 -3,-47 z"
             id="path58"
             inkstitch:angle="90"
             inkstitch:fill_method="0"
             inkstitch:fill_underlay="False" />
        </g>
        <g
           id="g64">
          <path
             d="m 1875,728 c 12,-40 45,-111 49,-107 7,7 -38,129 -47,129 -5,0 -5,-10 -2,-22 z"
             id="path62"
             inkstitch:angle="90"
             inkstitch:fill_method="0"
             inkstitch:fill_underlay="False" />
        </g>
        <g
           id="g68">
          <path
             d="m 3421,667 c -15,-15 -14,-52 3,-66 29,-24 65,14 46,49 -12,23 -35,31 -49,17 z"
             id="path66"
             inkstitch:angle="90"
             inkstitch:fill_method="0"
             inkstitch:fill_underlay="False" />
        </g>
        <g
           id="g72">
          <path
             d="m 1940,554 c 0,-16 78,-242 95,-275 9,-16 19,-29 23,-29 12,0 -83,279 -101,298 -10,9 -17,12 -17,6 z"
             id="path70"
             inkstitch:angle="90"
             inkstitch:fill_method="0"
             inkstitch:fill_underlay="False" />
        </g>
        <g
           id="g76">
          <path
             d="m 2324,386 c -11,-29 0,-51 26,-51 21,0 25,5 25,30 0,24 -5,31 -23,33 -13,2 -24,-3 -28,-12 z"
             id="path74"
             inkstitch:angle="90"
             inkstitch:fill_method="0"
             inkstitch:fill_underlay="False" />
        </g>
        <g
           id="g80">
          <path
             d="m 3080,364 c -125,-39 -363,-85 -600,-115 -224,-28 -263,-28 -333,0 -32,13 -60,21 -63,18 -3,-3 -1,-22 6,-41 26,-79 147,-75 590,20 280,60 544,135 465,133 -11,-1 -40,-7 -65,-15 z"
             id="path78"
             inkstitch:angle="90"
             inkstitch:fill_method="0"
             inkstitch:fill_underlay="False" />
        </g>
      </g>
    </g>
  </g>
  <g
     id="__validation_layer__"
     inkscape:label="Résolution de problèmes"
     inkscape:groupmode="layer"
     transform="translate(-3.4176603,-2.890199)">
    <use
       id="use1"
       inkscape:label="Commande Ink/Stitch: Ignore layer (do not stitch any objects in this layer)"
       xlink:href="#inkstitch_ignore_layer"
       height="100%"
       width="100%"
       x="0"
       y="-10" />
    <g
       id="__validation_errors__"
       inkscape:label="Erreurs" />
    <g
       id="__validation_warnings__"
       inkscape:label="Avertissements">
      <path
         id="inkstitch__invalid_pointer__7"
         d="m 162.35708,405.39124 4,20 h -8 l 4,-20"
         style="fill:#ffdd00;stroke:#000000;stroke-width:0.2"
         inkscape:label="Pointeur invalide" />
      <path
         id="inkstitch__invalid_pointer__6"
         d="m 237.98275,386.95297 4,20 h -8 l 4,-20"
         style="fill:#ffdd00;stroke:#000000;stroke-width:0.2"
         inkscape:label="Pointeur invalide" />
      <path
         id="inkstitch__invalid_pointer__5"
         d="m 131.19758,383.07212 4,20 h -8 l 4,-20"
         style="fill:#ffdd00;stroke:#000000;stroke-width:0.2"
         inkscape:label="Pointeur invalide" />
      <path
         id="inkstitch__invalid_pointer__4"
         d="m 128.00139,371.99602 4,20 h -8 l 4,-20"
         style="fill:#ffdd00;stroke:#000000;stroke-width:0.2"
         inkscape:label="Pointeur invalide" />
      <path
         id="inkstitch__invalid_pointer__3"
         d="m 274.16581,365.80362 4,20 h -8 l 4,-20"
         style="fill:#ffdd00;stroke:#000000;stroke-width:0.2"
         inkscape:label="Pointeur invalide" />
      <path
         id="inkstitch__invalid_pointer__2"
         d="m 367.60967,355.3562 4,20 h -8 l 4,-20"
         style="fill:#ffdd00;stroke:#000000;stroke-width:0.2"
         inkscape:label="Pointeur invalide" />
      <path
         id="inkstitch__invalid_pointer__1"
         d="m 162.19088,336.70946 4,20 h -8 l 4,-20"
         style="fill:#ffdd00;stroke:#000000;stroke-width:0.2"
         inkscape:label="Pointeur invalide" />
      <text
         inkscape:label="Description"
         x="162.19087"
         y="366.70947"
         style="font-size:8px;text-align:center;text-anchor:middle;fill:#ffdd00;stroke:#000000;stroke-width:0.2"
         id="text463"><tspan
           id="tspan461">Petit remplissage (path30)</tspan></text>
      <text
         inkscape:label="Description"
         x="367.60968"
         y="385.3562"
         style="font-size:8px;text-align:center;text-anchor:middle;fill:#ffdd00;stroke:#000000;stroke-width:0.2"
         id="text467"><tspan
           id="tspan465">Petit remplissage (path38)</tspan></text>
      <text
         inkscape:label="Description"
         x="274.1658"
         y="395.80362"
         style="font-size:8px;text-align:center;text-anchor:middle;fill:#ffdd00;stroke:#000000;stroke-width:0.2"
         id="text471"><tspan
           id="tspan469">Petit remplissage (path50)</tspan></text>
      <text
         inkscape:label="Description"
         x="128.00139"
         y="401.99603"
         style="font-size:8px;text-align:center;text-anchor:middle;fill:#ffdd00;stroke:#000000;stroke-width:0.2"
         id="text475"><tspan
           id="tspan473">Petit remplissage (path58)</tspan></text>
      <text
         inkscape:label="Description"
         x="131.19759"
         y="413.07211"
         style="font-size:8px;text-align:center;text-anchor:middle;fill:#ffdd00;stroke:#000000;stroke-width:0.2"
         id="text479"><tspan
           id="tspan477">Petit remplissage (path62)</tspan></text>
      <text
         inkscape:label="Description"
         x="237.98274"
         y="416.95297"
         style="font-size:8px;text-align:center;text-anchor:middle;fill:#ffdd00;stroke:#000000;stroke-width:0.2"
         id="text483"><tspan
           id="tspan481">Petit remplissage (path66)</tspan></text>
      <text
         inkscape:label="Description"
         x="162.35709"
         y="435.39124"
         style="font-size:8px;text-align:center;text-anchor:middle;fill:#ffdd00;stroke:#000000;stroke-width:0.2"
         id="text487"><tspan
           id="tspan485">Petit remplissage (path74)</tspan></text>
    </g>
    <g
       id="__validation_ignored__"
       inkscape:label="Avertissements sur le type" />
    <text
       x="713.66144"
       y="5"
       style="font-size:5px;line-height:1;fill:#000000"
       id="text533"><tspan
         sodipodi:role="line"
         style="font-weight:bold;font-size:8px"
         id="tspan491"
         x="713.66144"
         y="5">Résolution de problèmes</tspan><tspan
         sodipodi:role="line"
         id="tspan493"
         x="713.66144"
         y="10.720703" /><tspan
         sodipodi:role="line"
         style="font-weight:bold;font-size:7px;text-decoration:underline;text-decoration-line:underline;fill:#ffdd00"
         id="tspan495"
         x="713.66144"
         y="17.240234">Avertissements</tspan><tspan
         sodipodi:role="line"
         id="tspan497"
         x="713.66144"
         y="22.720703" /><tspan
         sodipodi:role="line"
         style="fill:#ffdd00"
         id="tspan499"
         x="713.66144"
         y="27.720703">Ce sont des problèmes qui n'empêcheront pas la forme d'être</tspan><tspan
         sodipodi:role="line"
         style="fill:#ffdd00"
         id="tspan501"
         x="713.66144"
         y="32.720703">brodée. Vous devriez envisager de corriger l'avertissement,</tspan><tspan
         sodipodi:role="line"
         style="fill:#ffdd00"
         id="tspan503"
         x="713.66144"
         y="37.720703">mais si vous ne le faites pas, Ink/Stitch fera de son mieux</tspan><tspan
         sodipodi:role="line"
         style="fill:#ffdd00"
         id="tspan505"
         x="713.66144"
         y="42.720703">pour traiter l'objet.</tspan><tspan
         sodipodi:role="line"
         id="tspan507"
         x="713.66144"
         y="47.720703" /><tspan
         sodipodi:role="line"
         style="font-weight:bold;fill:#ffdd00"
         id="tspan509"
         x="713.66144"
         y="52.720703">Petit remplissage</tspan><tspan
         sodipodi:role="line"
         style="font-size:3px"
         id="tspan511"
         x="713.66144"
         y="57.720703">Ce remplissage est si petit qu'il serait sans doute mieux en</tspan><tspan
         sodipodi:role="line"
         style="font-size:3px"
         id="tspan513"
         x="713.66144"
         y="62.720703">point droit ou colonne satin. Pour les très petites formes,</tspan><tspan
         sodipodi:role="line"
         style="font-size:3px"
         id="tspan515"
         x="713.66144"
         y="67.720703">le remplissage n'est pas possible, et Ink/Stitch le</tspan><tspan
         sodipodi:role="line"
         style="font-size:3px"
         id="tspan517"
         x="713.66144"
         y="72.720703">remplacera par du point droit sur le contour.</tspan><tspan
         sodipodi:role="line"
         id="tspan519"
         x="713.66144"
         y="77.720703" /><tspan
         sodipodi:role="line"
         id="tspan521"
         x="713.66144"
         y="82.720703" /><tspan
         sodipodi:role="line"
         style="font-style:italic;font-size:4px"
         id="tspan523"
         x="713.66144"
         y="87.720703">Il est possible qu'un objet contienne plus d'une erreur,</tspan><tspan
         sodipodi:role="line"
         style="font-style:italic;font-size:4px"
         id="tspan525"
         x="713.66144"
         y="92.720703">même s'il n'y a qu'un conseil par objet. Relancer cette</tspan><tspan
         sodipodi:role="line"
         style="font-style:italic;font-size:4px"
         id="tspan527"
         x="713.66144"
         y="97.720703">fonction quand il y a plus d'erreurs. Enlever les conseils</tspan><tspan
         sodipodi:role="line"
         style="font-style:italic;font-size:4px"
         id="tspan529"
         x="713.66144"
         y="102.7207">en supprimant le calque &quot;Résolution de problèmes&quot; dans le</tspan><tspan
         sodipodi:role="line"
         style="font-style:italic;font-size:4px"
         id="tspan531"
         x="713.66144"
         y="107.7207">dialogue objets (Objet -&gt; Objets...).</tspan></text>
  </g>
</svg>
