<?xml version="1.0" encoding="UTF-8" standalone="no"?>
<svg
   version="1.1"
   width="401.73709"
   viewBox="0 0 401.73708 302.3622"
   height="302.36221"
   id="svg178"
   sodipodi:docname="manga-10x8.svg"
   inkscape:version="1.1.2 (0a00cf5339, 2022-02-04)"
   xmlns:inkscape="http://www.inkscape.org/namespaces/inkscape"
   xmlns:sodipodi="http://sodipodi.sourceforge.net/DTD/sodipodi-0.dtd"
   xmlns="http://www.w3.org/2000/svg"
   xmlns:svg="http://www.w3.org/2000/svg"
   xmlns:inkstitch="http://inkstitch.org/namespace">
  <defs
     id="defs182" />
  <sodipodi:namedview
     id="namedview180"
     pagecolor="#000000"
     bordercolor="#666666"
     borderopacity="1.0"
     inkscape:pageshadow="2"
     inkscape:pageopacity="0"
     inkscape:pagecheckerboard="0"
     showgrid="false"
     fit-margin-top="0"
     fit-margin-left="0"
     fit-margin-right="0"
     fit-margin-bottom="0"
     inkscape:zoom="1.3837043"
     inkscape:cx="338.94526"
     inkscape:cy="241.38106"
     inkscape:window-width="1920"
     inkscape:window-height="1080"
     inkscape:window-x="0"
     inkscape:window-y="0"
     inkscape:window-maximized="1"
     inkscape:current-layer="svg178" />
  <g
     id="g176"
     transform="matrix(0.717483 0 0 0.717483 -2.81238 -1.98316)">
    <g
       id="g10">
      <metadata
         id="metadata2">
Created by potrace 1.16, written by Peter Selinger 2001-2019
</metadata>
      <g
         transform="matrix(0.069138 0 0 -0.069138 0 430.728)"
         fill="#ff0000"
         stroke="none"
         id="g8">
        <g
           id="g6">
          <path
             d="m 5207,1165 c -24,-37 -54,-55 -92,-55 -37,0 -75,21 -75,41 0,33 -35,42 -78,20 -21,-11 -44,-26 -50,-33 -41,-50 100,-188 193,-188 62,0 128,27 169,67 41,42 43,49 16,56 -33,8 -25,37 10,37 27,0 30,3 30,30 0,17 -1,30 -2,30 -2,0 -24,7 -51,15 l -47,14 z"
             id="path4"
             inkstitch:row_spacing_mm="0.15"
             inkstitch:fill_method="0"
             inkstitch:fill_underlay="False"
             inkstitch:angle="90" />
        </g>
      </g>
    </g>
    <g
       id="g40">
      <metadata
         id="metadata12">
Created by potrace 1.16, written by Peter Selinger 2001-2019
</metadata>
      <g
         transform="matrix(0.069138 0 0 -0.069138 0 430.728)"
         fill="#ffffff"
         stroke="none"
         id="g38">
        <g
           id="g16">
          <path
             d="m 3734,6160 c -179,-18 -423,-70 -539,-114 -38,-15 -98,-36 -132,-47 -70,-22 -279,-126 -384,-191 -161,-100 -474,-311 -502,-338 -17,-17 -36,-30 -42,-30 -6,0 -25,-13 -42,-29 -17,-16 -59,-50 -92,-76 -33,-26 -58,-52 -54,-58 3,-6 1,-7 -6,-3 -7,5 -31,-9 -60,-36 -108,-99 -142,-128 -146,-128 -3,0 -9,0 -15,0 -5,0 -10,-9 -10,-20 0,-11 -4,-20 -10,-20 -5,0 -10,-8 -11,-17 0,-11 -3,-13 -6,-6 -6,16 -53,-13 -53,-33 0,-7 -9,-18 -20,-24 -11,-6 -17,-16 -14,-22 4,-6 3,-8 -3,-5 -11,7 -61,-44 -199,-200 -125,-141 -255,-266 -394,-381 -54,-44 -183,-130 -214,-141 -38,-15 -24,-31 22,-24 186,26 361,107 480,220 7,7 17,13 22,13 5,0 15,3 24,6 16,6 24,-21 8,-28 -4,-1 -51,-59 -104,-128 -105,-136 -280,-354 -303,-376 -8,-8 -22,-28 -32,-45 -10,-17 -23,-27 -31,-24 -9,3 -25,-20 -48,-69 -41,-89 -42,-96 -9,-59 l 25,28 -10,-28 c -5,-15 -19,-37 -30,-49 -19,-21 -20,-21 -21,-2 0,10 -16,-14 -35,-54 -19,-41 -31,-79 -27,-85 3,-7 3,-9 -2,-5 -7,7 -84,-136 -138,-257 -28,-64 -189,-366 -225,-423 -15,-23 -46,-69 -70,-102 -78,-109 -1,-56 116,80 17,19 33,32 37,28 3,-3 -14,-58 -39,-121 -48,-121 -59,-158 -81,-272 -19,-96 -18,-110 4,-47 10,30 29,68 42,85 12,18 30,43 39,57 9,14 26,40 39,58 12,18 19,38 15,44 -4,6 -3,8 3,5 5,-3 20,12 32,34 13,22 51,77 85,122 34,45 90,127 124,182 103,169 129,192 119,108 -8,-76 -36,-222 -53,-277 -58,-192 -102,-321 -130,-381 -17,-38 -51,-110 -74,-160 -70,-151 -139,-349 -126,-362 3,-4 34,79 56,152 7,22 19,47 26,55 7,9 20,34 28,55 14,41 108,244 128,280 7,11 32,58 56,105 92,179 127,245 132,250 3,3 13,21 23,41 10,19 41,72 70,117 29,45 70,111 92,148 22,36 48,75 59,87 10,12 30,40 43,62 14,22 47,65 72,95 26,30 60,72 75,93 36,48 49,48 26,0 -18,-38 -26,-64 -75,-248 -15,-55 -38,-123 -50,-151 -13,-28 -26,-80 -30,-115 -15,-140 -80,-402 -128,-519 -8,-19 -17,-44 -21,-55 -6,-15 -9,-17 -16,-6 -4,8 -5,24 0,36 13,33 23,145 10,117 -5,-12 -19,-32 -30,-44 -11,-12 -20,-26 -20,-30 0,-10 -53,-130 -76,-171 -9,-16 -13,-31 -10,-34 3,-3 -1,-12 -9,-19 -7,-8 -21,-37 -30,-66 -10,-29 -30,-81 -46,-116 -16,-34 -29,-66 -29,-70 0,-5 -7,-22 -15,-38 -15,-31 -33,-159 -50,-366 -9,-102 3,-258 20,-258 13,0 25,70 25,144 0,22 4,53 9,70 5,17 15,63 22,101 6,39 18,82 26,98 7,15 14,44 15,65 0,20 4,42 8,47 7,9 19,41 61,162 36,105 139,336 147,329 4,-5 -26,-111 -43,-151 -73,-170 -99,-269 -119,-440 l -6,-50 29,70 c 71,175 128,293 281,580 55,103 74,97 36,-11 -49,-139 -113,-368 -123,-439 -2,-16 25,44 62,135 36,91 79,197 95,235 16,39 47,115 68,170 22,55 48,120 60,145 33,74 34,80 12,80 -31,0 -23,25 13,42 18,8 38,28 46,44 7,16 24,49 37,74 70,131 114,233 128,300 9,41 32,116 50,165 19,50 40,108 46,130 33,107 227,526 251,540 8,5 9,1 4,-16 -5,-13 -12,-37 -16,-54 -5,-16 -24,-77 -44,-134 -19,-58 -34,-108 -33,-113 2,-4 25,34 52,85 84,161 152,257 182,257 20,0 18,-7 -20,-85 -64,-127 -106,-227 -100,-236 3,-5 -2,-9 -10,-9 -8,0 -18,-10 -21,-22 -15,-50 -89,-237 -117,-298 -17,-36 -38,-87 -48,-115 -10,-27 -36,-89 -59,-137 -36,-77 -91,-216 -91,-231 0,-3 43,26 95,65 52,38 95,76 95,84 0,8 6,14 12,14 11,0 228,214 228,225 0,2 12,17 26,32 38,42 144,204 139,213 -3,4 1,10 9,13 7,3 28,39 46,81 33,74 50,94 50,58 0,-32 -31,-125 -61,-180 -16,-30 -29,-61 -29,-69 0,-8 -4,-11 -10,-8 -5,3 -10,1 -10,-5 0,-27 -186,-250 -279,-335 -25,-22 -60,-55 -78,-72 -19,-18 -37,-33 -41,-33 -4,0 -26,-18 -50,-40 -23,-22 -46,-40 -51,-40 -6,0 -16,-8 -23,-19 -7,-10 -17,-19 -23,-19 -14,0 -65,-35 -65,-44 0,-4 8,-5 18,-2 19,7 126,47 157,59 11,5 23,7 28,7 4,-1 7,1 7,6 0,4 15,13 33,20 107,45 245,117 240,126 -3,6 -3,8 1,4 4,-3 40,15 79,42 40,26 73,44 75,39 4,-9 -54,-67 -84,-85 -10,-6 -22,-19 -28,-30 -6,-10 -14,-21 -17,-24 -24,-20 -70,-168 -94,-298 -14,-82 -42,-325 -66,-582 -16,-164 4,-715 29,-838 4,-18 7,126 7,320 0,274 4,384 18,493 49,399 162,788 317,1095 72,144 80,158 107,196 12,17 28,44 34,60 6,16 13,24 16,17 4,-11 -5,-47 -53,-208 -77,-256 -121,-491 -143,-760 -6,-71 -13,-156 -16,-187 -5,-61 9,-81 18,-25 37,243 143,598 181,605 18,4 19,-1 12,-82 -3,-47 -4,-86 -2,-86 2,0 13,44 26,98 29,130 82,311 111,377 4,11 17,49 29,85 24,77 91,219 104,220 4,0 5,-7 2,-15 -4,-11 0,-15 12,-13 15,3 17,-7 16,-87 0,-49 -6,-137 -12,-195 -12,-109 -8,-561 6,-635 6,-34 10,-20 31,110 25,166 95,451 135,560 40,105 99,235 108,235 4,0 9,-105 10,-232 3,-281 4,-333 7,-423 l 3,-70 29,115 c 16,63 32,135 35,160 4,25 10,54 14,65 4,11 11,45 14,75 9,69 34,160 44,160 4,0 7,-30 5,-67 -2,-59 -1,-63 8,-33 18,65 19,75 29,215 13,180 16,207 51,410 42,248 80,413 125,543 27,78 26,112 -2,46 -9,-21 -41,-91 -71,-154 -30,-63 -77,-173 -105,-245 -28,-71 -55,-134 -60,-139 -13,-16 -10,20 8,77 37,124 107,335 120,364 8,17 14,34 14,38 0,3 8,25 19,48 10,23 36,83 57,132 21,50 56,124 77,165 43,82 167,292 178,300 3,3 18,23 32,46 14,22 31,47 39,55 7,8 24,30 37,49 13,19 29,40 35,45 6,6 34,37 61,70 64,77 216,229 329,331 48,43 97,87 107,97 11,9 23,17 27,17 4,0 24,12 43,26 52,39 123,73 168,80 34,5 41,4 41,-10 0,-9 -8,-19 -17,-22 -43,-14 -93,-38 -110,-53 -10,-9 -37,-29 -60,-44 -35,-25 -119,-106 -260,-253 -21,-22 -30,-40 -27,-52 4,-12 3,-13 -3,-4 -10,13 -36,-17 -85,-98 -15,-25 -28,-41 -28,-35 0,27 -65,-87 -161,-285 -38,-80 -77,-158 -85,-173 -34,-60 -98,-226 -124,-322 -16,-55 -33,-116 -39,-135 -32,-100 -73,-327 -91,-495 -11,-104 -25,-228 -32,-275 -15,-97 -14,-691 1,-775 l 9,-50 1,55 c 5,249 74,630 137,763 21,44 34,47 34,10 1,-68 43,-453 65,-603 29,-192 153,-717 166,-703 11,12 56,261 79,438 36,268 39,297 39,373 1,52 4,71 12,66 21,-13 1,-369 -36,-624 -3,-28 0,-24 16,20 30,81 86,315 94,393 10,87 25,96 25,14 0,-64 15,-125 52,-206 10,-24 28,-67 39,-95 12,-28 31,-71 44,-96 13,-25 31,-66 42,-92 10,-27 21,-48 24,-48 3,0 23,-35 43,-77 21,-43 43,-87 49,-98 7,-11 33,-57 60,-102 26,-45 47,-85 47,-89 0,-3 17,-29 38,-57 37,-51 55,-78 69,-107 10,-21 30,-40 41,-40 5,0 12,-12 15,-27 4,-16 28,-50 55,-78 27,-27 54,-60 61,-72 6,-13 18,-23 25,-23 8,0 16,-6 19,-13 2,-7 33,-32 68,-56 l 64,-43 -45,44 c -25,24 -63,66 -85,93 -21,28 -42,52 -45,55 -3,3 -17,21 -30,40 -14,19 -28,40 -33,45 -53,66 -177,302 -250,475 -62,148 -128,414 -99,396 7,-4 12,-18 12,-32 0,-17 4,-23 12,-18 6,4 8,3 4,-4 -9,-14 105,-344 127,-367 13,-14 -12,500 -28,572 -3,13 -8,91 -10,175 -3,83 -7,190 -10,237 l -4,86 29,-61 c 70,-147 171,-512 201,-729 26,-183 40,-347 45,-513 6,-181 16,-241 35,-211 14,22 10,246 -7,464 -9,110 -17,324 -18,477 l -2,276 -25,39 c -14,21 -32,56 -41,78 -30,76 -68,154 -78,160 -6,4 -7,11 -4,17 4,6 2,13 -3,17 -10,6 -43,74 -43,87 0,4 -6,15 -14,23 -20,23 -43,103 -61,211 -9,52 -21,98 -28,102 -18,11 -17,499 1,505 8,3 12,-6 12,-26 0,-17 4,-31 8,-31 5,0 12,-62 15,-138 4,-77 11,-150 16,-163 5,-13 10,-18 10,-11 1,7 5,11 10,8 5,-4 7,4 4,16 -3,13 -2,20 2,16 5,-4 13,-4 20,2 8,6 14,-3 22,-33 6,-23 19,-69 28,-102 9,-33 25,-103 36,-155 24,-110 35,-131 24,-45 -20,166 -26,238 -29,326 -2,53 -6,100 -9,105 -3,6 -1,16 4,24 8,13 10,13 19,0 5,-8 10,-26 11,-40 8,-194 46,-468 89,-635 12,-44 25,-98 31,-120 6,-22 17,-50 25,-62 8,-12 14,-29 14,-38 0,-24 87,-222 131,-298 21,-38 39,-72 39,-75 0,-4 11,-19 24,-34 14,-14 22,-28 19,-32 -3,-3 2,-8 11,-12 9,-3 16,-12 16,-19 0,-8 6,-20 13,-27 6,-7 18,-26 26,-41 9,-16 20,-26 28,-22 8,2 11,1 8,-4 -3,-5 -1,-12 4,-15 17,-11 19,23 26,344 6,312 12,430 19,437 2,2 7,-78 11,-179 8,-214 3,-628 -7,-628 -5,0 -8,-37 -8,-82 0,-75 -3,-114 -25,-298 -5,-40 -4,-51 4,-40 6,8 11,26 11,40 0,15 4,30 9,35 14,16 54,261 71,440 6,61 18,148 27,195 9,47 16,122 16,168 1,45 4,77 7,71 4,-6 10,23 13,63 4,40 12,107 18,148 6,41 12,221 14,400 2,178 8,326 12,327 5,2 20,-54 33,-124 39,-202 34,-499 -14,-848 -37,-265 -38,-276 -21,-345 8,-36 26,-136 39,-223 14,-88 27,-161 29,-164 3,-2 19,58 37,134 33,145 56,233 71,271 5,13 9,36 9,52 0,44 26,38 34,-7 3,-21 9,-101 12,-178 11,-258 119,-819 144,-750 4,11 10,49 14,85 4,36 9,79 11,95 20,122 15,662 -6,649 -5,-3 -9,12 -9,33 -1,21 -8,56 -16,78 -30,81 -63,193 -88,300 -15,61 -31,128 -37,150 -12,51 -16,68 -39,195 -30,171 -32,186 -15,200 13,10 15,9 15,-9 0,-11 4,-21 10,-21 5,0 7,-6 4,-13 -2,-7 2,-44 11,-82 9,-39 25,-113 36,-165 12,-52 26,-98 31,-101 6,-4 8,-11 5,-16 -6,-10 56,-270 71,-300 6,-10 20,-49 32,-88 43,-132 157,-401 166,-392 2,1 -5,27 -16,57 -47,134 -82,262 -99,364 -23,136 -46,364 -37,373 14,15 25,-16 36,-102 32,-255 44,-296 118,-409 65,-98 74,-108 85,-93 6,8 7,6 3,-7 -5,-13 9,-40 43,-86 27,-38 54,-77 60,-89 6,-11 23,-32 36,-47 14,-15 25,-32 25,-38 0,-6 17,-29 38,-52 20,-22 46,-53 57,-67 11,-15 24,-27 29,-27 5,0 16,-8 25,-18 9,-10 39,-33 66,-52 28,-19 52,-36 55,-39 3,-3 21,-14 40,-24 37,-20 39,-22 -95,115 -12,12 -14,18 -5,14 9,-5 8,-2 -2,7 -10,8 -18,17 -18,21 0,12 -123,221 -132,224 -4,2 -8,8 -8,13 0,5 -16,42 -35,83 -19,41 -35,78 -35,82 0,3 -11,28 -24,54 -46,92 -116,351 -116,430 0,52 21,0 54,-131 18,-74 45,-163 60,-199 15,-36 36,-87 46,-113 10,-26 32,-72 49,-102 17,-30 31,-60 31,-66 0,-7 11,-26 24,-43 13,-17 33,-50 44,-73 12,-23 30,-47 39,-52 10,-6 14,-11 10,-11 -12,0 11,-38 66,-110 89,-116 120,-151 131,-147 11,4 37,237 36,330 0,26 4,47 10,47 5,0 10,-13 10,-30 0,-16 4,-39 9,-52 5,-13 17,-50 26,-83 10,-33 23,-80 30,-105 7,-25 20,-70 28,-100 9,-30 17,-68 19,-85 1,-16 6,-35 10,-41 8,-12 51,-225 72,-359 l 12,-80 9,105 c 11,135 9,297 -5,434 -6,60 -8,111 -5,114 13,14 26,-23 56,-158 27,-124 74,-258 86,-246 2,2 -1,35 -7,75 -7,39 -10,79 -8,88 6,25 39,-30 76,-126 16,-42 39,-101 51,-131 l 21,-55 -6,70 c -3,39 -19,140 -35,225 -29,155 -37,250 -20,250 17,0 114,-153 175,-278 59,-119 80,-174 136,-362 12,-41 24,-79 26,-85 5,-12 -4,179 -13,283 -3,41 -9,68 -14,61 -5,-8 -11,2 -17,27 -5,21 -17,73 -27,114 -10,41 -35,114 -56,163 -22,48 -39,93 -39,100 0,6 -8,26 -18,42 -26,43 -98,262 -89,271 4,4 21,-8 38,-27 l 30,-34 -6,55 -6,54 20,-26 c 12,-14 21,-29 21,-33 0,-3 20,-36 43,-73 55,-84 112,-181 148,-250 16,-30 33,-60 39,-66 23,-29 51,-135 61,-240 15,-153 29,-228 23,-121 -7,120 -34,306 -50,344 -17,40 -20,257 -4,263 7,2 6,15 0,38 -6,19 -13,75 -16,124 -2,49 -8,94 -13,100 -9,13 -71,182 -71,197 0,18 15,8 37,-24 12,-17 38,-50 58,-72 19,-22 35,-46 35,-52 0,-7 4,-13 9,-13 5,0 13,-9 16,-21 4,-11 9,-18 12,-16 3,3 -13,61 -35,129 -22,68 -48,159 -58,203 -10,44 -23,87 -30,95 -14,18 -46,110 -80,230 -28,100 -31,135 -10,127 12,-5 14,3 10,46 -5,50 -5,51 10,27 8,-14 15,-31 16,-38 0,-8 6,-28 14,-45 7,-18 28,-67 46,-110 38,-89 50,-102 50,-55 l 1,33 14,-25 14,-25 1,24 c 0,37 12,17 58,-97 40,-97 48,-109 131,-193 49,-49 96,-101 106,-115 25,-39 28,-23 5,31 -29,67 -11,76 35,18 41,-51 125,-133 138,-133 13,0 8,11 -21,49 -46,59 -148,224 -185,298 -19,37 -80,159 -136,271 -55,112 -101,205 -101,208 0,15 -205,416 -223,435 -12,13 -22,30 -22,39 0,8 -5,15 -12,15 -11,0 -53,47 -53,60 0,4 -19,34 -42,66 -30,40 -48,57 -60,55 -20,-5 -25,10 -6,16 12,4 -87,148 -102,148 -11,0 -82,71 -109,109 -19,26 -21,35 -11,41 14,8 72,-13 102,-38 36,-30 218,-125 218,-114 0,4 4,2 8,-3 4,-6 18,-15 32,-21 14,-6 46,-21 73,-33 26,-11 50,-21 54,-21 3,0 -34,29 -84,64 -143,102 -311,261 -488,460 -130,146 -218,235 -227,230 -5,-3 -7,-1 -6,4 5,15 -112,133 -124,126 -6,-4 -8,-3 -5,3 7,11 -124,143 -142,143 -6,0 -11,4 -11,8 0,12 -91,78 -102,74 -5,-1 -7,2 -3,8 3,6 -4,14 -17,19 -13,6 -19,10 -14,10 14,1 -35,35 -81,56 -24,11 -43,26 -43,33 0,6 -7,12 -15,12 -8,0 -15,5 -15,10 0,6 -7,10 -17,10 -9,0 -34,14 -57,31 -44,32 -154,105 -193,127 -31,18 -184,118 -201,132 -7,6 -28,18 -47,25 -18,8 -36,19 -39,24 -4,5 -20,12 -37,16 -17,4 -28,9 -25,12 8,9 -26,32 -47,33 -11,0 -30,9 -44,20 -14,11 -32,20 -40,20 -8,0 -12,4 -9,8 3,5 -32,21 -77,36 -45,15 -105,38 -132,51 -45,20 -133,43 -192,51 -12,1 -37,7 -55,13 -120,38 -477,55 -654,30 -62,-8 -79,-8 -85,3 -10,16 -191,20 -315,8 z m 689,-198 c 111,-30 165,-56 179,-86 13,-30 21,-32 41,-12 8,8 43,30 78,48 62,32 65,33 193,33 91,0 138,-4 154,-13 13,-8 22,-15 20,-18 -3,-2 -36,-10 -74,-18 -78,-15 -215,-56 -227,-67 -5,-3 40,-6 100,-6 148,2 303,-35 405,-97 31,-18 70,-38 87,-44 17,-6 41,-18 53,-27 35,-23 2,-19 -89,12 -56,19 -96,26 -143,25 -36,-1 -138,3 -227,9 -130,8 -167,7 -187,-3 l -25,-13 52,-67 c 139,-178 176,-226 202,-268 52,-83 112,-204 143,-290 17,-47 40,-109 51,-138 12,-29 21,-65 20,-80 l -1,-27 -12,28 c -7,15 -16,24 -21,20 -4,-5 -5,-2 -1,4 6,10 -58,143 -69,143 -4,0 72,-246 80,-260 26,-42 99,-659 81,-678 -3,-3 -7,1 -7,9 -1,8 -4,1 -8,-15 -7,-33 -31,-48 -31,-19 -1,29 -134,555 -180,708 -12,39 -25,84 -30,100 -43,144 -91,288 -109,327 -13,26 -24,53 -25,60 -4,23 -18,62 -39,108 -11,25 -28,65 -39,90 -35,81 -110,200 -164,258 -32,35 -49,61 -43,67 12,12 11,35 -2,35 -5,0 -7,-4 -4,-10 3,-5 0,-7 -9,-4 -8,3 -12,12 -9,20 4,10 0,12 -11,8 -11,-4 -16,-2 -14,6 2,7 -12,17 -32,22 -19,6 -40,14 -46,19 -20,16 -169,26 -275,18 -433,-34 -938,-240 -1383,-564 -68,-50 -216,-190 -292,-275 -45,-52 -172,-198 -185,-214 -98,-120 -248,-337 -278,-401 -5,-12 -17,-27 -27,-35 -16,-14 -17,-13 -11,10 6,24 5,24 -18,-5 -57,-70 -10,41 92,215 27,47 56,96 64,110 7,13 24,35 37,49 38,44 24,47 -20,6 -65,-62 -69,-65 -79,-65 -6,0 -4,6 3,14 7,8 24,29 38,47 14,18 33,40 43,48 21,19 23,39 2,21 -8,-7 -15,-8 -15,-2 0,17 551,560 632,622 15,12 27,25 25,31 -1,5 25,24 57,42 32,17 70,42 84,55 14,12 28,22 32,22 4,0 41,23 83,50 42,28 80,50 86,50 5,0 16,7 24,15 23,22 211,109 302,138 44,14 127,38 185,52 58,15 126,33 152,41 77,25 165,33 338,30 131,-2 181,-7 243,-24 z m 97,-561 c 0,-27 -40,-262 -59,-351 -6,-25 -15,-83 -21,-130 -6,-47 -16,-103 -22,-125 -6,-22 -11,-47 -13,-54 -3,-22 -20,-24 -35,-6 -13,15 -14,94 -5,235 10,151 83,496 108,512 15,9 47,-46 47,-81 z m 884,-190 c 47,-49 88,-123 136,-237 17,-43 38,-92 45,-109 7,-16 18,-48 25,-70 6,-22 15,-49 20,-60 36,-81 109,-396 139,-595 22,-153 63,-406 68,-427 4,-17 1,-23 -12,-23 -9,0 -14,4 -10,10 3,5 1,17 -4,27 -5,10 -21,77 -36,148 -15,72 -37,164 -50,205 -13,41 -33,109 -45,150 -12,41 -25,86 -30,100 -5,14 -16,54 -25,90 -16,64 -39,140 -75,250 -10,30 -30,93 -45,140 -15,47 -31,90 -35,95 -4,6 -11,26 -15,45 -4,19 -16,53 -26,75 -9,22 -29,66 -43,98 -14,32 -26,62 -26,67 0,6 -4,10 -10,10 -5,0 -10,7 -10,16 0,9 -5,12 -12,8 -6,-4 -8,-3 -5,3 4,6 0,28 -9,49 l -16,39 33,-30 c 18,-16 51,-50 73,-74 z M 3444,5051 c 6,-9 -53,-100 -122,-190 -18,-24 -43,-62 -55,-83 -12,-22 -29,-52 -37,-66 -65,-115 -92,-167 -120,-232 -56,-131 -81,-193 -105,-270 -20,-64 -37,-125 -95,-345 l -8,-30 -1,35 c 0,19 4,52 8,74 9,38 -2,39 -13,1 -12,-46 4,136 19,205 47,216 86,330 176,507 99,194 266,403 323,403 14,0 27,-4 30,-9 z m 709,-259 c 5,-8 -3,-35 -21,-70 -35,-69 -78,-200 -126,-382 -55,-209 -72,-342 -81,-618 -3,-73 -7,-138 -11,-144 -4,-6 -10,-123 -14,-260 -5,-163 -11,-253 -19,-261 -8,-8 -11,5 -11,52 0,41 -5,67 -14,77 -13,12 -15,11 -19,-8 -2,-13 -5,11 -6,52 -2,41 -5,144 -7,229 -2,84 -8,160 -13,169 -10,18 -4,195 9,267 36,203 129,549 152,565 4,3 23,49 42,103 77,213 112,271 139,229 z M 2640,4468 c 0,-11 -71,-107 -112,-152 -10,-11 -18,-23 -18,-26 0,-4 -11,-20 -25,-36 -14,-16 -42,-54 -62,-84 -21,-30 -43,-60 -49,-65 -11,-10 -98,-148 -138,-221 -19,-34 -36,-44 -36,-23 0,7 29,64 64,128 35,64 67,126 71,139 11,37 84,163 123,212 62,78 133,140 158,140 13,0 24,-5 24,-12 z m 4020,-376 c 155,-210 226,-346 268,-512 33,-126 51,-277 33,-266 -6,4 -15,24 -21,44 -5,21 -15,45 -22,55 -11,14 -13,-11 -13,-145 -1,-189 -15,-374 -30,-371 -5,2 -11,24 -12,50 -2,27 -6,82 -9,123 -6,65 -8,72 -17,50 l -11,-25 -3,30 c -2,17 -10,102 -19,190 -9,99 -20,164 -27,170 -20,16 -34,62 -52,167 -8,54 -20,109 -25,123 -7,19 -6,25 5,25 12,0 11,8 -3,48 -9,26 -21,50 -25,53 -4,3 -5,13 -2,21 4,9 2,19 -4,23 -6,3 -11,13 -11,21 0,9 -13,49 -30,91 -34,86 -34,83 -17,82 6,0 28,-21 47,-47 z m -436,-595 c 18,-37 37,-63 41,-59 5,4 5,1 1,-5 -6,-12 44,-116 67,-138 7,-7 7,-5 2,5 -7,13 -6,13 7,2 9,-7 26,-41 39,-75 12,-34 26,-67 30,-73 5,-6 22,-64 39,-130 23,-86 32,-148 35,-226 2,-59 6,-112 9,-117 5,-8 42,-297 48,-373 4,-55 -8,-56 -26,-1 l -15,48 4,-60 c 2,-33 2,-53 -1,-45 -3,8 -9,24 -14,35 -7,17 -17,61 -26,115 -2,8 -7,29 -12,45 -8,23 -11,25 -12,10 -2,-24 -19,32 -25,85 -5,42 -38,149 -64,205 -10,22 -26,82 -36,133 -11,50 -22,92 -27,92 -4,0 -8,11 -8,24 0,13 -15,86 -34,162 -42,170 -86,367 -93,413 l -6,34 22,-20 c 12,-11 36,-50 55,-86 z"
             id="path14"
             inkstitch:row_spacing_mm="0.15"
             inkstitch:fill_method="0"
             inkstitch:fill_underlay="False"
             inkstitch:angle="90" />
        </g>
        <g
           id="g20">
          <path
             d="m 2054,2910 c -6,-6 -62,-35 -124,-65 -62,-30 -116,-58 -119,-62 -3,-5 -13,-9 -21,-10 -8,-1 -58,-16 -110,-35 l -95,-33 -27,-80 c -15,-44 -25,-85 -23,-92 2,-7 -2,-25 -10,-40 -7,-15 -25,-89 -39,-163 -15,-74 -31,-157 -36,-185 -12,-59 -16,-92 -30,-205 -11,-100 -32,-491 -26,-498 3,-2 9,13 14,34 49,202 69,278 88,334 51,144 69,187 81,183 9,-3 9,-12 2,-29 -5,-14 -9,-36 -9,-49 0,-13 -4,-25 -8,-27 -4,-1 -16,-32 -27,-68 -15,-53 -19,-104 -20,-280 -1,-118 1,-237 4,-265 6,-47 8,-41 28,90 13,77 29,194 38,260 23,181 33,237 76,397 37,137 105,342 128,385 5,10 20,43 33,73 37,90 96,199 163,300 80,124 101,162 69,130 z"
             id="path18"
             inkstitch:row_spacing_mm="0.15"
             inkstitch:fill_method="0"
             inkstitch:fill_underlay="False"
             inkstitch:angle="90" />
        </g>
        <g
           id="g24">
          <path
             d="m 4870,2757 c 0,-2 13,-51 30,-109 35,-126 92,-278 103,-278 5,0 5,10 1,22 -3,12 -12,72 -18,132 -11,108 -12,113 -53,168 -38,50 -63,77 -63,65 z"
             id="path22"
             inkstitch:row_spacing_mm="0.15"
             inkstitch:fill_method="0"
             inkstitch:fill_underlay="False"
             inkstitch:angle="90" />
        </g>
        <g
           id="g28">
          <path
             d="m 5076,2459 c 19,-55 41,-110 49,-122 15,-21 15,-21 16,8 1,17 3,42 4,57 3,19 -10,45 -43,92 -26,36 -50,65 -53,66 -4,0 9,-45 27,-101 z"
             id="path26"
             inkstitch:row_spacing_mm="0.15"
             inkstitch:fill_method="0"
             inkstitch:fill_underlay="False"
             inkstitch:angle="90" />
        </g>
        <g
           id="g32">
          <path
             d="m 6488,1912 c -2,-9 0,-44 3,-77 4,-33 11,-124 15,-203 4,-78 11,-145 15,-148 5,-3 10,10 11,28 0,18 3,44 4,58 2,14 6,47 8,73 3,26 7,60 10,75 3,15 8,59 11,97 l 6,70 -40,22 c -36,21 -40,21 -43,5 z"
             id="path30"
             inkstitch:row_spacing_mm="0.15"
             inkstitch:fill_method="0"
             inkstitch:fill_underlay="False"
             inkstitch:angle="90" />
        </g>
        <g
           id="g36">
          <path
             d="m 5287,1101 c -30,-11 1,-30 41,-24 37,6 42,18 10,27 -27,7 -28,7 -51,-3 z"
             id="path34"
             inkstitch:row_spacing_mm="0.15"
             inkstitch:fill_method="0"
             inkstitch:fill_underlay="False"
             inkstitch:angle="90" />
        </g>
      </g>
    </g>
    <g
       id="g174">
      <metadata
         id="metadata42">
Created by potrace 1.16, written by Peter Selinger 2001-2019
</metadata>
      <g
         transform="matrix(0.069138 0 0 -0.069138 0 430.728)"
         fill="#d3d3d3"
         stroke="none"
         id="g172">
        <g
           id="g46">
          <path
             d="m 4238,6184 c -3,-3 -127,-7 -275,-8 -281,-3 -400,-16 -578,-66 -80,-23 -63,-21 123,15 239,45 521,59 541,27 6,-11 23,-11 85,-3 177,25 534,8 654,-30 18,-6 43,-12 55,-13 59,-8 147,-31 192,-51 27,-13 87,-36 132,-51 45,-15 80,-31 77,-36 -3,-4 1,-8 9,-8 8,0 26,-9 40,-20 14,-11 33,-20 44,-20 21,-1 55,-24 47,-33 -3,-3 8,-8 25,-12 17,-4 33,-11 37,-16 3,-5 21,-16 39,-24 19,-7 40,-19 47,-25 17,-14 170,-114 201,-132 39,-22 149,-95 193,-127 23,-17 48,-31 57,-31 10,0 17,-4 17,-10 0,-5 7,-10 15,-10 8,0 15,-6 15,-12 0,-7 19,-22 43,-33 46,-21 95,-55 81,-56 -5,0 1,-4 14,-10 13,-5 20,-13 17,-19 -4,-6 -2,-9 3,-8 11,4 102,-62 102,-74 0,-4 5,-8 11,-8 18,0 149,-132 142,-143 -3,-6 -1,-7 5,-3 12,7 129,-111 124,-126 -1,-5 1,-7 6,-4 9,5 97,-84 227,-230 177,-199 345,-358 488,-460 50,-35 87,-64 84,-64 -4,0 -28,10 -54,21 -27,12 -59,27 -73,33 -14,6 -28,15 -32,21 -4,5 -8,7 -8,3 0,-11 -182,84 -218,114 -30,25 -88,46 -102,38 -10,-6 -8,-15 11,-41 27,-38 98,-109 109,-109 15,0 114,-144 102,-148 -19,-6 -14,-21 6,-16 12,2 30,-15 60,-55 23,-32 42,-62 42,-66 0,-13 42,-60 53,-60 7,0 12,-7 12,-16 0,-8 8,-23 18,-33 9,-10 24,-31 32,-47 9,-16 18,-29 20,-29 8,0 -59,130 -118,225 -59,99 -82,172 -50,162 139,-45 383,-81 405,-59 6,6 -9,12 -39,16 -162,21 -398,207 -746,588 -283,309 -481,498 -707,675 -79,62 -469,319 -601,395 -278,164 -602,270 -949,314 -114,14 -302,19 -312,8 z"
             id="path44"
             inkstitch:row_spacing_mm="0.15"
             inkstitch:fill_method="0"
             inkstitch:fill_underlay="False"
             inkstitch:angle="90" />
        </g>
        <g
           id="g50">
          <path
             d="m 3125,6036 c -140,-49 -311,-131 -445,-212 -161,-97 -429,-277 -560,-376 -69,-52 -154,-114 -190,-138 -79,-53 -330,-297 -488,-475 -334,-375 -612,-598 -764,-613 -27,-2 -51,-9 -55,-15 -4,-7 34,-8 118,-4 116,5 161,15 313,64 15,5 17,2 11,-18 -4,-13 -31,-64 -60,-114 -85,-146 -153,-279 -148,-292 6,-15 17,-6 53,47 13,19 27,37 31,40 10,8 192,235 297,370 53,69 100,127 104,128 16,7 8,34 -8,28 -9,-3 -19,-6 -24,-6 -5,0 -15,-6 -22,-13 -119,-113 -294,-194 -480,-220 -46,-7 -60,9 -22,24 31,11 160,97 214,141 139,115 269,240 394,381 138,156 188,207 199,200 6,-3 7,-1 3,5 -3,6 3,16 14,22 11,6 20,17 20,24 0,20 47,49 53,33 3,-7 6,-5 6,6 1,9 6,17 11,17 6,0 10,9 10,20 0,11 5,20 10,20 6,0 12,0 15,0 4,0 38,29 146,128 29,27 53,41 60,36 7,-4 9,-3 6,3 -4,6 21,32 54,58 33,26 75,60 92,76 17,16 36,29 42,29 6,0 25,13 42,30 28,27 341,238 502,338 105,65 314,169 384,191 78,25 199,70 205,76 13,13 -33,0 -143,-39 z"
             id="path48"
             inkstitch:row_spacing_mm="0.15"
             inkstitch:fill_method="0"
             inkstitch:fill_underlay="False"
             inkstitch:angle="90" />
        </g>
        <g
           id="g54">
          <path
             d="m 3952,5980 c -35,-5 -85,-16 -110,-24 -26,-8 -94,-26 -152,-41 -58,-14 -141,-38 -185,-52 -91,-29 -279,-116 -302,-138 -8,-8 -19,-15 -24,-15 -6,0 -44,-22 -86,-50 -42,-27 -79,-50 -83,-50 -4,0 -18,-10 -32,-22 -14,-13 -52,-38 -84,-55 -32,-18 -58,-37 -57,-42 2,-6 -10,-19 -25,-31 -81,-62 -632,-605 -632,-622 0,-6 7,-5 15,2 21,18 19,-2 -2,-21 -10,-8 -29,-30 -43,-48 -14,-18 -31,-39 -38,-47 -7,-8 -9,-14 -3,-14 10,0 14,3 79,65 44,41 58,38 20,-6 -13,-14 -30,-36 -37,-49 -8,-14 -37,-63 -64,-110 -102,-174 -149,-285 -92,-215 23,29 24,29 18,5 -6,-23 -5,-24 11,-10 10,8 22,23 27,35 30,64 180,281 278,401 13,16 140,162 185,214 76,85 224,225 292,275 445,324 950,530 1383,564 106,8 255,-2 275,-18 6,-5 27,-13 46,-19 20,-5 34,-15 32,-22 -2,-8 3,-10 14,-6 11,4 15,2 11,-8 -3,-8 1,-17 9,-20 9,-3 12,-1 9,4 -3,6 -1,10 4,10 13,0 14,-23 2,-35 -6,-6 11,-32 43,-67 54,-58 129,-177 164,-258 11,-25 28,-65 39,-90 21,-46 35,-85 39,-108 1,-7 12,-34 25,-60 18,-39 66,-183 109,-327 5,-16 18,-61 30,-100 46,-153 179,-679 180,-708 0,-29 24,-14 31,19 4,16 7,23 8,15 0,-8 4,-12 7,-9 18,19 -55,636 -81,678 -8,14 -84,260 -80,260 11,0 75,-133 69,-143 -4,-6 -3,-9 1,-4 5,4 14,-5 21,-20 l 12,-28 1,27 c 1,15 -8,51 -20,80 -11,29 -34,91 -51,138 -31,86 -91,207 -143,290 -26,42 -63,90 -202,268 l -52,67 25,13 c 20,10 57,11 187,3 89,-6 191,-10 227,-9 47,1 87,-6 143,-25 91,-31 124,-35 89,-12 -12,9 -36,21 -53,27 -17,6 -56,26 -87,44 -102,62 -257,99 -405,97 -60,0 -105,3 -100,6 12,11 149,52 227,67 38,8 71,16 74,18 2,3 -7,10 -20,18 -16,9 -63,13 -154,13 -128,0 -131,-1 -193,-33 -35,-18 -70,-40 -78,-48 -20,-20 -28,-18 -41,12 -14,30 -68,56 -179,86 -62,17 -112,22 -243,24 -91,1 -194,-1 -228,-6 z m 460,-60 c 59,-9 128,-36 128,-50 0,-4 -19,0 -42,9 -69,25 -321,22 -468,-7 -340,-67 -546,-147 -950,-367 -63,-35 -126,-66 -140,-70 -52,-16 -187,-119 -357,-274 -62,-57 -113,-108 -113,-114 0,-8 -4,-7 -12,1 -19,19 6,53 106,150 299,288 632,486 994,593 414,121 669,160 854,129 z m 402,-328 c 21,-26 68,-98 104,-159 37,-62 70,-113 75,-113 29,0 106,-139 173,-313 39,-101 43,-120 13,-62 -32,62 -101,176 -105,172 -2,-1 19,-66 46,-144 69,-200 97,-317 81,-346 -9,-17 -7,-49 9,-152 29,-191 23,-193 -15,-5 -19,91 -48,207 -64,258 -31,93 -142,378 -185,475 -42,95 -59,146 -53,168 9,32 -61,171 -124,248 -36,45 -43,58 -23,42 16,-12 46,-44 68,-69 z"
             id="path52"
             inkstitch:row_spacing_mm="0.15"
             inkstitch:fill_method="0"
             inkstitch:fill_underlay="False"
             inkstitch:angle="90" />
        </g>
        <g
           id="g58">
          <path
             d="m 4498,5746 c -20,-7 -57,-26 -83,-42 -26,-16 -58,-36 -73,-44 -14,-8 -33,-22 -42,-30 -178,-155 -351,-324 -435,-425 -27,-33 -55,-64 -61,-70 -6,-5 -22,-26 -35,-45 -13,-19 -30,-41 -37,-49 -8,-8 -25,-33 -39,-55 -14,-23 -29,-43 -32,-46 -11,-8 -135,-218 -178,-300 -21,-41 -56,-115 -77,-165 -21,-49 -47,-109 -57,-132 -11,-23 -19,-45 -19,-48 0,-4 -6,-21 -14,-38 -13,-29 -83,-240 -120,-364 -18,-57 -21,-93 -8,-77 5,5 32,68 60,139 28,72 75,182 105,245 30,63 62,133 71,154 28,66 29,32 2,-46 -45,-130 -83,-295 -125,-543 -35,-203 -38,-230 -51,-410 -10,-140 -11,-150 -29,-215 -9,-30 -10,-26 -8,33 2,37 -1,67 -5,67 -10,0 -35,-91 -44,-160 -3,-30 -10,-64 -14,-75 -4,-11 -10,-40 -14,-65 -3,-25 -19,-97 -35,-160 l -29,-115 -3,70 c -3,90 -4,142 -7,423 -1,127 -6,232 -10,232 -9,0 -68,-130 -108,-235 -40,-109 -110,-394 -135,-560 -21,-130 -25,-144 -31,-110 -14,74 -18,526 -6,635 6,58 12,146 12,195 1,80 -1,90 -16,87 -12,-2 -16,2 -12,13 3,8 2,15 -2,15 -13,-1 -80,-143 -104,-220 -12,-36 -25,-74 -29,-85 -29,-66 -82,-247 -111,-377 -13,-54 -24,-98 -26,-98 -2,0 -1,39 2,86 7,81 6,86 -12,82 -38,-7 -144,-362 -181,-606 -9,-55 -23,-35 -18,26 3,31 10,116 16,187 22,269 66,504 143,760 48,161 57,197 53,208 -3,7 -10,-1 -16,-17 -6,-16 -22,-43 -34,-60 -27,-38 -35,-52 -107,-196 -155,-307 -268,-696 -317,-1095 -14,-109 -18,-219 -18,-493 0,-194 -3,-338 -7,-320 -6,28 -18,185 -31,403 -2,35 -4,28 -5,-25 -2,-103 15,-327 33,-435 15,-91 81,-315 91,-315 4,0 3,7 0,16 -16,42 -46,337 -46,452 0,137 21,340 45,435 8,32 15,84 16,115 0,31 4,80 8,107 5,30 6,-1 3,-80 -4,-129 10,-353 27,-410 8,-25 10,-16 11,45 4,178 32,242 43,98 7,-93 49,-275 72,-316 11,-18 14,-21 11,-7 -38,156 -41,407 -8,585 24,129 66,278 119,420 43,117 58,135 48,60 -3,-30 -10,-156 -15,-280 -8,-219 -24,-343 -55,-431 -19,-51 -19,-54 -1,-39 46,38 173,264 206,365 7,22 17,45 22,50 12,13 4,-41 -28,-173 -27,-111 -27,-136 -1,-75 40,93 69,356 57,508 -11,140 -11,210 0,175 4,-14 9,-43 9,-65 1,-30 4,-36 11,-25 5,8 10,58 10,110 0,94 24,327 35,338 15,15 19,-29 26,-256 8,-254 10,-272 35,-456 28,-195 137,-535 231,-721 41,-80 41,-80 48,-73 3,3 -10,38 -28,79 -87,191 -102,273 -102,564 0,193 4,260 19,342 10,56 22,100 27,98 4,-3 9,3 12,12 2,10 4,-72 4,-182 0,-288 43,-563 120,-760 69,-178 81,-176 28,6 -35,121 -58,302 -50,399 13,155 29,287 35,299 19,36 123,-227 160,-403 22,-102 49,-320 51,-401 1,-48 2,-47 16,30 16,85 22,390 9,458 -13,70 9,37 31,-46 22,-86 70,-204 78,-195 3,3 0,18 -6,34 -16,39 -23,275 -10,294 10,13 12,13 21,0 16,-25 12,4 -15,98 -32,112 -56,255 -45,262 5,3 5,65 0,145 -14,233 -20,371 -15,360 2,-5 23,-120 45,-255 65,-390 103,-529 221,-807 114,-268 325,-673 352,-673 14,0 7,22 -42,123 -59,124 -162,425 -191,561 -11,55 -30,185 -40,290 -23,223 -23,209 -10,201 6,-3 10,-17 10,-31 0,-13 4,-24 9,-24 11,0 15,-13 70,-217 8,-28 16,-40 25,-37 20,8 97,302 135,521 11,59 20,92 20,73 0,-19 -6,-71 -14,-115 -19,-105 -19,-130 1,-85 8,19 17,62 19,95 3,33 12,119 20,190 22,177 32,450 16,459 -8,5 -11,-14 -12,-66 0,-76 -3,-105 -39,-373 -23,-177 -68,-426 -79,-438 -13,-14 -137,511 -166,703 -22,150 -64,535 -65,603 -1,80 -53,-27 -93,-193 -39,-159 -75,-429 -78,-580 l -1,-55 -9,50 c -15,84 -16,678 -1,775 7,47 21,171 32,275 18,168 59,395 91,495 6,19 23,80 39,135 27,96 91,263 124,322 8,15 42,86 75,157 33,70 73,149 89,175 16,25 31,55 35,66 l 7,20 -16,-20 c -52,-67 -216,-386 -279,-543 -34,-87 -75,-239 -139,-518 -14,-61 -35,-191 -46,-290 -11,-98 -27,-187 -34,-199 -7,-11 -19,-61 -25,-110 -7,-49 -14,-92 -17,-94 -10,-10 -2,317 11,440 36,340 97,590 195,793 22,45 41,93 44,108 3,15 7,31 9,35 3,5 1,31 -3,58 -7,46 -5,55 27,110 134,231 350,467 642,703 63,51 178,118 187,109 2,-2 -24,-21 -58,-42 -78,-48 -268,-231 -362,-350 -70,-87 -159,-215 -117,-166 12,13 21,19 21,15 0,-5 13,11 28,36 49,81 75,111 85,98 6,-9 7,-8 3,4 -3,12 6,30 27,52 141,147 225,228 260,253 23,15 50,35 60,44 17,15 67,39 110,53 9,3 17,12 17,21 0,18 -31,19 -82,1 z"
             id="path56"
             inkstitch:row_spacing_mm="0.15"
             inkstitch:fill_method="0"
             inkstitch:fill_underlay="False"
             inkstitch:angle="90" />
        </g>
        <g
           id="g62">
          <path
             d="m 4473,5482 c -25,-16 -98,-361 -108,-512 -9,-141 -8,-220 5,-235 15,-18 32,-16 35,6 2,7 7,32 13,54 6,22 16,78 22,125 6,47 15,105 21,130 19,89 59,324 59,351 0,35 -32,90 -47,81 z m -38,-244 c -9,-51 -26,-154 -36,-228 l -19,-135 5,95 c 4,88 19,193 46,319 19,89 22,47 4,-51 z"
             id="path60"
             inkstitch:row_spacing_mm="0.15"
             inkstitch:fill_method="0"
             inkstitch:fill_underlay="False"
             inkstitch:angle="90" />
        </g>
        <g
           id="g66">
          <path
             d="m 5314,5276 c 9,-21 13,-43 9,-49 -3,-6 -1,-7 5,-3 7,4 12,1 12,-8 0,-9 5,-16 10,-16 6,0 10,-4 10,-10 0,-5 12,-35 26,-67 14,-32 34,-76 43,-98 10,-22 22,-56 26,-75 4,-19 11,-39 15,-45 4,-5 20,-48 35,-95 15,-47 35,-110 45,-140 36,-110 59,-186 75,-250 9,-36 20,-76 25,-90 5,-14 18,-59 30,-100 12,-41 32,-109 45,-150 13,-41 35,-133 50,-205 15,-71 31,-138 36,-148 5,-10 7,-22 4,-27 -4,-6 1,-10 10,-10 13,0 16,6 12,23 -5,21 -46,274 -68,427 -30,199 -103,514 -139,595 -5,11 -14,38 -20,60 -7,22 -18,54 -25,70 -7,17 -28,66 -45,109 -64,153 -108,219 -209,311 l -33,30 z m 296,-636 c 62,-202 146,-547 136,-557 -2,-2 -11,31 -21,74 -35,155 -118,458 -161,591 -8,23 -14,46 -14,50 1,20 22,-36 60,-158 z"
             id="path64"
             inkstitch:row_spacing_mm="0.15"
             inkstitch:fill_method="0"
             inkstitch:fill_underlay="False"
             inkstitch:angle="90" />
        </g>
        <g
           id="g70">
          <path
             d="m 3322,4992 c -124,-126 -259,-356 -332,-566 -47,-133 -90,-323 -95,-426 -2,-41 -2,-66 1,-55 11,38 22,37 13,-1 -4,-22 -8,-55 -8,-74 l 1,-35 8,30 c 4,17 22,84 39,150 18,66 41,148 52,183 12,35 19,65 17,68 -3,2 -12,-21 -22,-52 -10,-31 -19,-54 -21,-52 -7,7 55,210 91,297 43,104 146,306 174,341 11,14 -11,-36 -49,-110 -64,-125 -151,-331 -165,-390 -5,-21 -4,-20 9,5 8,17 35,80 61,140 40,96 68,151 134,267 8,14 25,44 37,66 12,21 37,59 55,83 69,90 128,181 122,190 -3,5 -16,9 -30,9 -18,0 -45,-20 -92,-68 z"
             id="path68"
             inkstitch:row_spacing_mm="0.15"
             inkstitch:fill_method="0"
             inkstitch:fill_underlay="False"
             inkstitch:angle="90" />
        </g>
        <g
           id="g74">
          <path
             d="m 4108,4791 c 0,-9 0,-25 0,-36 2,-14 0,-16 -6,-7 -10,15 -34,-35 -89,-188 -19,-52 -37,-97 -41,-100 -23,-17 -143,-457 -141,-517 0,-15 9,13 20,62 32,154 105,376 206,632 20,51 38,92 39,90 2,-1 -8,-47 -22,-101 -13,-55 -23,-101 -21,-102 2,-2 14,29 26,69 13,39 37,98 53,129 30,59 29,82 -4,84 -10,1 -19,-6 -20,-15 z"
             id="path72"
             inkstitch:row_spacing_mm="0.15"
             inkstitch:fill_method="0"
             inkstitch:fill_underlay="False"
             inkstitch:angle="90" />
        </g>
        <g
           id="g78">
          <path
             d="m 2543,4433 c -27,-27 -65,-68 -85,-93 -39,-49 -112,-175 -123,-212 -4,-13 -36,-75 -71,-139 -35,-64 -64,-121 -64,-128 0,-21 17,-11 36,23 40,73 127,211 138,221 6,5 28,35 49,65 20,30 48,68 62,84 14,16 25,32 25,36 0,3 8,15 18,26 41,45 112,141 112,152 0,28 -50,10 -97,-35 z"
             id="path76"
             inkstitch:row_spacing_mm="0.15"
             inkstitch:fill_method="0"
             inkstitch:fill_underlay="False"
             inkstitch:angle="90" />
        </g>
        <g
           id="g82">
          <path
             d="m 4444,4185 c -4,-8 -5,-121 -3,-250 3,-171 7,-238 16,-243 7,-4 19,-50 28,-102 18,-108 41,-188 61,-211 8,-8 14,-19 14,-23 0,-13 33,-81 43,-87 5,-4 7,-11 3,-17 -3,-6 -2,-13 4,-17 10,-6 48,-84 78,-160 9,-22 27,-57 41,-78 l 25,-39 2,-276 c 1,-153 9,-367 18,-477 17,-218 21,-442 7,-464 -19,-30 -29,30 -35,211 -12,379 -70,736 -168,1032 -27,82 -62,177 -78,210 l -29,61 4,-86 c 3,-47 7,-154 10,-237 2,-84 7,-162 10,-175 16,-72 41,-586 28,-572 -22,23 -136,353 -127,367 4,7 2,8 -4,4 -8,-5 -12,1 -12,18 0,14 -5,28 -12,32 -29,18 37,-248 99,-396 73,-173 197,-409 250,-475 5,-5 19,-26 33,-45 13,-19 27,-37 30,-40 3,-3 24,-27 45,-55 22,-27 60,-69 85,-93 l 45,-44 -64,43 c -35,24 -66,49 -68,56 -3,7 -11,13 -19,13 -7,0 -19,10 -25,23 -7,12 -34,45 -61,72 -27,28 -51,62 -55,78 -3,15 -10,27 -15,27 -11,0 -31,19 -41,40 -14,29 -32,56 -69,107 -21,28 -38,54 -38,57 0,4 -21,44 -47,89 -27,45 -53,91 -60,102 -6,11 -28,55 -49,98 -20,42 -40,77 -43,77 -3,0 -14,21 -24,48 -11,26 -29,67 -42,92 -13,25 -32,68 -44,96 -11,28 -29,71 -39,95 -37,81 -52,142 -52,206 0,82 -15,73 -25,-14 -8,-74 -54,-274 -86,-371 -12,-35 -19,-65 -17,-67 2,-3 14,27 27,66 12,39 25,69 27,66 6,-6 -77,-290 -126,-429 l -41,-117 9,-208 c 8,-180 13,-227 42,-348 46,-199 41,-193 84,-105 46,98 80,218 101,360 9,63 18,116 20,118 2,2 6,-40 10,-94 12,-161 -11,-358 -64,-543 -17,-58 -29,-106 -27,-108 13,-13 129,317 172,485 32,124 46,136 19,16 -11,-51 -14,-92 -10,-127 12,-94 44,-215 79,-301 36,-89 93,-191 82,-146 -25,101 -88,439 -84,451 2,5 29,-41 60,-103 120,-237 211,-317 123,-110 -19,46 -53,140 -76,209 -23,69 -64,178 -91,242 -28,64 -68,172 -90,241 -22,69 -55,166 -74,215 -47,127 -53,165 -13,90 30,-56 33,-58 42,-37 9,20 -7,130 -29,185 -4,12 -1,17 11,17 12,0 15,5 10,18 -10,23 -34,136 -30,140 2,2 17,-34 35,-80 18,-46 49,-119 70,-163 21,-44 49,-105 63,-135 81,-180 225,-388 354,-510 97,-92 217,-198 261,-230 46,-34 42,-61 -11,-88 -36,-18 -90,-62 -76,-62 2,0 33,10 69,21 166,52 375,69 580,45 84,-9 138,-12 144,-6 15,15 5,19 -75,35 -48,9 -147,14 -282,15 h -208 l -72,54 c -40,29 -98,81 -129,115 -112,121 -273,386 -352,581 -31,76 -34,106 -4,35 62,-144 250,-474 275,-482 7,-3 14,15 19,44 7,45 -1,448 -11,593 l -4,65 9,-60 c 5,-33 14,-96 20,-140 14,-96 63,-297 84,-346 20,-46 20,-32 -4,70 -34,146 -50,261 -56,381 -6,139 1,132 49,-45 41,-149 89,-285 142,-400 41,-90 46,-89 63,13 10,54 8,76 -8,145 -24,103 -63,343 -58,359 3,7 10,-21 17,-62 12,-73 66,-210 82,-210 5,0 9,3 9,6 0,3 7,60 15,127 15,125 33,454 37,677 2,101 3,84 8,-85 l 6,-210 1,225 c 1,288 -12,512 -22,365 0,-11 -4,-168 -9,-350 -8,-336 -10,-370 -27,-359 -5,3 -7,10 -4,15 3,5 0,6 -8,4 -8,-4 -19,6 -28,22 -8,15 -20,34 -26,41 -7,7 -13,19 -13,27 0,7 -7,16 -16,19 -9,4 -14,9 -11,12 3,4 -5,18 -19,32 -13,15 -24,30 -24,34 0,3 -18,37 -39,75 -44,76 -131,274 -131,298 0,9 -6,26 -14,38 -8,12 -19,40 -25,62 -6,22 -19,76 -31,120 -26,103 -46,218 -67,380 -14,115 -19,166 -22,255 -1,14 -6,32 -11,40 -9,13 -11,13 -19,0 -5,-8 -7,-18 -4,-24 3,-5 7,-52 9,-105 3,-88 9,-160 29,-326 11,-86 0,-65 -24,45 -11,52 -27,122 -36,155 -9,33 -22,79 -28,102 -8,30 -14,39 -22,33 -7,-6 -15,-6 -20,-2 -4,4 -5,-3 -2,-16 3,-12 1,-20 -4,-16 -5,3 -9,-1 -10,-8 0,-7 -5,-2 -10,11 -5,13 -12,86 -16,163 -3,76 -10,138 -15,138 -4,0 -8,14 -8,30 0,31 -16,41 -26,15 z m 36,-193 c 0,-65 16,-166 46,-302 60,-273 151,-519 274,-740 49,-89 139,-230 147,-230 5,0 -26,71 -48,109 -43,73 -112,250 -150,385 -21,78 -39,148 -38,156 0,8 9,-16 20,-55 76,-272 178,-500 313,-701 47,-71 70,-111 51,-90 -49,55 -44,35 9,-35 33,-43 44,-67 42,-87 -2,-15 -4,-40 -5,-57 -1,-29 -1,-29 -16,-8 -21,30 -85,223 -74,223 5,0 -19,33 -53,74 -209,244 -336,491 -453,876 -26,85 -53,196 -62,245 -17,106 -32,265 -25,282 9,26 22,0 22,-45 z m 453,-1300 c 41,-55 42,-60 53,-168 6,-60 15,-120 18,-132 4,-12 4,-22 -1,-22 -11,0 -68,152 -103,278 -17,58 -30,107 -30,109 0,12 25,-15 63,-65 z"
             id="path80"
             inkstitch:row_spacing_mm="0.15"
             inkstitch:fill_method="0"
             inkstitch:fill_underlay="False"
             inkstitch:angle="90" />
        </g>
        <g
           id="g86">
          <path
             d="m 6600,4136 c 0,-3 14,-38 30,-79 17,-42 30,-82 30,-91 0,-8 5,-18 11,-21 6,-4 8,-14 4,-23 -3,-8 -2,-18 2,-21 4,-3 16,-27 25,-53 14,-40 15,-48 3,-48 -11,0 -12,-6 -5,-25 5,-14 17,-69 25,-123 18,-105 32,-151 52,-167 7,-6 18,-71 27,-170 9,-88 17,-173 19,-190 l 3,-30 11,25 c 9,22 11,15 17,-50 3,-41 7,-96 9,-123 1,-26 7,-48 12,-50 15,-3 29,182 30,371 0,134 2,159 13,145 7,-10 17,-34 22,-55 20,-71 32,-56 25,28 -10,113 -59,296 -105,390 -57,118 -223,362 -247,363 -7,1 -13,-1 -13,-3 z m 150,-296 c 20,-45 35,-70 42,-70 5,0 8,-7 8,-17 0,-15 1,-15 19,1 17,16 19,14 46,-46 32,-71 65,-189 64,-227 0,-22 -4,-19 -24,22 -12,26 -25,48 -29,48 -3,-1 -8,-65 -11,-143 -3,-78 -7,-143 -9,-145 -1,-1 -12,52 -24,120 -11,67 -32,156 -46,197 -14,42 -32,114 -41,160 -8,47 -26,118 -40,159 -14,41 -25,77 -24,80 1,6 49,-90 69,-139 z"
             id="path84"
             inkstitch:row_spacing_mm="0.15"
             inkstitch:fill_method="0"
             inkstitch:fill_underlay="False"
             inkstitch:angle="90" />
        </g>
        <g
           id="g90">
          <path
             d="m 2043,3934 c -44,-55 -64,-86 -129,-211 -27,-51 -50,-89 -52,-85 -1,5 14,55 33,113 20,57 39,118 44,134 4,17 11,41 16,54 5,17 4,21 -4,16 -24,-14 -218,-433 -251,-540 -6,-22 -27,-80 -46,-130 -18,-49 -41,-124 -50,-165 -14,-67 -58,-169 -128,-300 -13,-25 -30,-58 -37,-74 -8,-16 -28,-36 -46,-44 -36,-17 -44,-42 -13,-42 22,0 21,-6 -12,-80 -12,-25 -38,-90 -60,-145 -21,-55 -52,-131 -68,-170 -16,-38 -59,-144 -95,-235 -37,-91 -64,-151 -62,-135 10,71 74,300 123,439 38,108 19,114 -36,11 -153,-287 -210,-405 -281,-580 l -29,-70 6,50 c 20,171 46,270 119,440 17,40 47,146 43,151 -8,7 -111,-224 -147,-329 -42,-121 -54,-153 -61,-162 -4,-5 -8,-27 -8,-47 -1,-21 -8,-50 -15,-65 -8,-16 -20,-59 -26,-98 -7,-38 -17,-84 -22,-101 -5,-17 -9,-48 -9,-70 0,-74 -12,-144 -25,-144 -17,0 -29,156 -20,258 17,207 35,335 50,366 8,16 15,33 15,38 0,4 13,36 29,70 16,35 36,87 46,116 9,29 23,58 30,66 8,7 12,16 9,19 -3,3 1,18 10,34 23,41 76,161 76,171 0,4 9,18 20,30 11,12 25,32 30,44 13,28 3,-84 -10,-117 -5,-12 -4,-28 0,-36 7,-11 10,-9 16,6 4,11 13,36 21,55 48,117 113,379 128,519 4,35 17,87 30,115 12,28 35,96 50,151 49,184 57,210 75,248 10,20 15,37 10,37 -4,0 -20,-17 -36,-37 -15,-21 -49,-63 -75,-93 -25,-30 -58,-73 -72,-95 -13,-22 -33,-50 -43,-62 -11,-12 -37,-51 -59,-87 -22,-37 -63,-103 -92,-148 -29,-45 -60,-98 -70,-117 -10,-20 -20,-38 -23,-41 -5,-5 -40,-71 -132,-250 -24,-47 -49,-94 -56,-105 -20,-36 -114,-239 -128,-280 -8,-21 -21,-46 -28,-55 -7,-8 -19,-33 -26,-55 -22,-73 -53,-156 -56,-152 -13,13 56,211 126,362 23,50 57,122 74,160 28,60 72,189 130,381 17,55 45,201 53,277 10,84 -16,61 -119,-108 -34,-55 -90,-137 -124,-182 -34,-45 -72,-100 -85,-122 -12,-22 -27,-37 -32,-34 -6,3 -7,1 -3,-5 4,-6 -3,-26 -15,-44 -13,-18 -31,-45 -41,-60 -10,-16 -28,-41 -39,-57 -12,-16 -30,-53 -40,-83 -22,-63 -23,-49 -4,47 22,114 33,151 81,272 25,63 42,118 39,121 -4,4 -20,-9 -37,-28 -117,-136 -194,-189 -116,-80 24,33 55,79 70,102 36,57 197,359 225,423 54,121 131,264 138,257 5,-4 5,-2 2,5 -4,6 8,44 27,85 19,40 35,64 35,54 1,-19 2,-19 21,2 11,12 25,34 30,49 l 10,28 -27,-30 c -15,-16 -24,-22 -20,-12 42,106 9,44 -178,-331 -272,-547 -345,-661 -495,-773 -72,-53 -87,-87 -22,-47 98,58 163,107 230,171 39,39 72,68 72,64 0,-3 -14,-43 -31,-89 -59,-161 -82,-278 -83,-433 -1,-115 2,-140 13,-140 8,0 18,11 22,25 83,288 134,392 279,565 95,114 143,183 135,195 -4,6 -1,9 7,8 7,-2 13,4 12,13 -1,9 4,16 11,16 9,0 8,-21 -6,-83 -36,-166 -84,-296 -204,-559 -47,-104 -97,-228 -111,-275 -40,-138 -58,-370 -24,-309 5,9 23,65 40,125 38,133 79,220 161,345 73,111 124,213 113,230 -4,8 -3,9 4,5 7,-4 12,-2 12,5 0,7 2,10 4,8 3,-2 -1,-36 -9,-74 -19,-103 -27,-217 -18,-251 5,-21 10,7 19,107 l 11,136 94,159 c 51,87 121,221 156,298 34,76 71,148 80,160 10,12 18,22 19,24 1,1 8,0 16,-3 13,-5 13,-14 1,-73 -11,-49 -11,-72 -4,-85 13,-21 -4,-113 -46,-245 -18,-59 -28,-80 -31,-64 -2,13 1,37 7,54 6,17 11,45 11,62 0,26 -9,14 -51,-68 -50,-97 -178,-385 -214,-480 -11,-27 -21,-44 -23,-38 -2,6 24,92 58,192 76,222 93,277 81,265 -14,-15 -137,-341 -160,-425 -44,-162 -63,-307 -68,-530 -5,-235 3,-323 28,-328 14,-2 19,14 29,95 20,160 82,435 119,523 13,29 12,25 -16,-160 -23,-146 -26,-731 -5,-875 22,-152 63,-288 81,-269 5,5 14,61 20,124 18,185 67,344 145,471 18,30 56,92 84,138 29,46 52,89 51,95 0,6 -6,3 -12,-8 -7,-10 -47,-72 -90,-137 -43,-65 -98,-161 -121,-213 -24,-53 -45,-93 -48,-91 -2,2 -5,-5 -5,-17 -2,-26 -9,-32 -25,-22 -7,4 -21,9 -30,9 -29,3 -33,13 -33,98 0,94 -5,81 163,458 61,135 118,272 128,303 13,43 20,53 27,41 8,-14 4,-50 -18,-170 -5,-26 -3,-25 19,15 35,61 89,232 121,381 15,68 31,131 36,139 11,20 11,-346 -1,-470 -4,-52 -11,-126 -15,-165 l -6,-70 26,78 c 14,42 29,77 33,77 4,0 5,-100 4,-222 -4,-215 2,-262 19,-161 4,27 13,75 19,108 6,33 15,92 20,130 12,82 28,135 41,135 5,0 9,-44 9,-97 1,-174 32,-415 50,-382 4,8 11,46 14,84 23,237 85,481 151,603 24,42 35,76 36,105 0,35 6,20 37,-86 27,-95 39,-122 44,-105 6,23 6,23 7,-2 2,-23 2,-24 13,-6 6,10 15,77 20,149 5,71 14,139 19,150 17,31 49,149 49,179 0,15 5,30 10,33 6,3 10,23 10,43 0,43 25,193 40,237 9,27 9,25 5,-15 -29,-271 -36,-364 -40,-545 l -4,-210 9,168 c 5,93 13,205 19,250 6,45 17,152 26,237 18,178 39,297 67,388 11,35 17,66 15,69 -3,2 -15,-26 -27,-64 -37,-111 -51,-106 -18,7 14,47 58,133 64,127 3,-3 0,-15 -6,-27 -6,-12 -10,-24 -7,-26 2,-3 10,9 17,26 7,16 16,30 21,30 5,0 9,5 9,12 0,6 7,20 17,30 10,11 12,18 4,18 -6,0 -20,-14 -30,-31 -10,-17 -20,-26 -22,-20 -2,5 -42,-12 -88,-39 -80,-47 -268,-129 -376,-165 -27,-9 -55,-22 -62,-28 -11,-11 -68,-209 -112,-392 -11,-44 -20,-70 -20,-59 -1,32 27,163 61,289 46,166 45,159 17,151 -13,-3 -46,-9 -74,-12 l -50,-5 40,22 c 126,68 132,74 160,166 22,73 25,90 14,109 -10,19 -9,39 6,106 21,98 58,211 93,288 21,45 26,51 29,33 4,-22 23,-33 23,-13 0,6 6,10 13,10 8,0 22,18 33,40 10,22 22,40 26,40 3,0 43,71 88,158 90,173 122,221 65,97 -73,-158 -117,-261 -181,-417 -35,-87 -77,-187 -93,-221 -43,-93 -105,-266 -98,-274 16,-16 237,167 367,304 103,109 211,248 260,336 46,83 49,63 3,-25 -54,-103 -140,-216 -257,-337 -121,-124 -221,-206 -376,-309 -145,-96 -145,-95 -80,-76 143,42 433,169 553,242 37,23 74,39 81,36 14,-5 89,62 84,75 -2,5 -35,-13 -75,-39 -39,-27 -75,-45 -79,-42 -4,4 -4,2 -1,-4 5,-9 -133,-81 -240,-126 -18,-7 -33,-16 -33,-20 0,-5 -3,-7 -7,-6 -5,0 -17,-2 -28,-7 -31,-12 -138,-52 -157,-59 -10,-3 -18,-2 -18,2 0,9 51,44 65,44 6,0 16,9 23,19 7,11 17,19 23,19 5,0 28,18 51,40 24,22 46,40 50,40 4,0 22,15 41,33 18,17 53,50 78,72 93,85 279,308 279,335 0,6 5,8 10,5 6,-3 10,0 10,8 0,8 13,39 29,69 30,55 61,148 61,180 0,36 -17,16 -50,-58 -18,-42 -39,-78 -46,-81 -8,-3 -12,-9 -9,-13 5,-9 -101,-171 -139,-213 -14,-15 -26,-30 -26,-32 0,-11 -217,-225 -228,-225 -6,0 -12,-6 -12,-14 0,-8 -43,-46 -95,-84 -52,-39 -95,-68 -95,-65 0,15 55,154 91,231 23,48 49,110 59,137 10,28 31,79 48,115 28,61 102,248 117,298 3,12 13,22 21,22 8,0 13,4 10,9 -6,9 36,109 100,236 19,39 34,73 34,78 0,21 -33,2 -67,-39 z M 689,2885 c -26,-38 -69,-95 -95,-125 -86,-101 -166,-222 -205,-310 -9,-19 -21,-46 -27,-60 l -12,-25 6,25 c 4,14 17,49 30,78 13,29 24,56 24,60 0,19 117,203 198,311 70,93 92,117 102,108 10,-9 11,-7 5,12 -6,21 -5,22 7,10 13,-11 8,-23 -33,-84 z m 1370,13 c -7,-13 -40,-66 -74,-118 -67,-101 -126,-210 -163,-300 -13,-30 -28,-63 -33,-73 -23,-43 -91,-248 -128,-385 -43,-160 -53,-216 -76,-397 -9,-66 -25,-183 -38,-260 -20,-131 -22,-137 -28,-90 -3,28 -5,147 -4,265 1,176 5,227 20,280 11,36 23,67 27,68 4,2 8,14 8,27 0,13 4,35 9,49 7,17 7,26 -2,29 -12,4 -30,-39 -81,-183 -19,-56 -39,-132 -88,-334 -5,-21 -11,-36 -14,-34 -6,7 15,398 26,498 14,113 18,146 30,205 5,28 21,111 36,185 14,74 32,148 39,163 8,15 12,33 10,40 -2,7 8,48 23,92 l 27,80 95,33 c 52,19 102,34 110,35 8,1 18,5 21,10 3,4 57,32 119,62 62,30 118,59 124,65 16,16 18,12 5,-12 z"
             id="path88"
             inkstitch:row_spacing_mm="0.15"
             inkstitch:fill_method="0"
             inkstitch:fill_underlay="False"
             inkstitch:angle="90" />
        </g>
        <g
           id="g94">
          <path
             d="m 5350,3958 c 0,-2 -2,-149 -5,-328 -2,-179 -8,-359 -14,-400 -6,-41 -14,-108 -18,-148 -3,-40 -9,-69 -13,-63 -3,6 -6,-26 -7,-71 0,-46 -7,-121 -16,-168 -9,-47 -21,-134 -27,-195 -6,-60 -16,-140 -22,-176 -6,-36 -9,-72 -6,-79 4,-14 34,143 63,335 22,142 52,416 65,580 16,211 17,217 18,120 2,-83 -10,-236 -39,-503 -11,-104 -11,-112 19,-262 57,-287 74,-429 81,-680 l 6,-235 32,145 c 37,166 79,403 89,505 4,39 10,77 15,85 11,19 2,-105 -17,-237 l -15,-101 82,-154 c 75,-142 113,-203 94,-153 -32,86 -49,161 -84,375 -24,150 -42,297 -45,379 -4,74 -9,151 -12,172 -8,47 -34,54 -34,9 0,-16 -4,-39 -9,-52 -15,-38 -38,-126 -71,-271 -18,-76 -34,-136 -37,-134 -2,3 -15,76 -29,164 -13,87 -31,187 -39,223 -17,69 -16,80 21,345 28,203 39,355 39,535 0,156 -4,205 -25,313 -13,70 -28,127 -32,127 -4,0 -8,-1 -8,-2 z"
             id="path92"
             inkstitch:row_spacing_mm="0.15"
             inkstitch:fill_method="0"
             inkstitch:fill_underlay="False"
             inkstitch:angle="90" />
        </g>
        <g
           id="g98">
          <path
             d="m 3817,3880 c -11,-58 -15,-236 -6,-252 5,-9 11,-85 13,-169 2,-85 5,-188 7,-229 1,-41 4,-65 6,-52 4,19 6,20 19,8 9,-10 14,-36 14,-77 0,-47 3,-60 11,-52 8,8 14,95 19,250 5,131 13,277 20,326 17,125 8,129 -14,6 -10,-57 -24,-135 -31,-174 l -13,-70 -1,135 c -1,74 -6,153 -12,175 -6,22 -14,78 -18,125 -6,69 -8,78 -14,50 z"
             id="path96"
             inkstitch:row_spacing_mm="0.15"
             inkstitch:fill_method="0"
             inkstitch:fill_underlay="False"
             inkstitch:angle="90" />
        </g>
        <g
           id="g102">
          <path
             d="m 7375,3818 c 7,-18 45,-97 84,-175 39,-78 71,-144 71,-147 0,-2 46,-96 101,-208 56,-112 117,-234 136,-271 37,-74 139,-239 185,-298 29,-38 34,-49 21,-49 -13,0 -97,82 -138,133 -46,58 -64,49 -35,-18 23,-54 20,-70 -5,-31 -10,14 -57,66 -106,115 -83,84 -91,96 -131,193 -46,114 -58,134 -58,97 l -1,-24 -14,25 -14,25 -1,-33 c 0,-47 -12,-34 -50,55 -18,43 -39,92 -46,110 -8,17 -14,37 -14,45 -1,7 -8,24 -16,38 -15,24 -15,23 -10,-27 4,-43 2,-51 -10,-46 -21,8 -18,-27 10,-127 34,-120 66,-212 80,-230 7,-8 20,-51 30,-95 10,-44 36,-135 58,-203 22,-68 38,-126 35,-129 -3,-2 -8,5 -12,16 -3,12 -11,21 -16,21 -5,0 -9,6 -9,13 0,6 -16,30 -35,52 -20,22 -46,55 -58,72 -22,32 -37,42 -37,24 0,-15 62,-184 71,-197 5,-6 11,-51 13,-100 3,-49 10,-105 16,-124 6,-23 7,-36 0,-38 -16,-6 -13,-223 4,-263 16,-38 43,-224 50,-344 6,-107 -8,-32 -23,121 -10,105 -38,211 -61,240 -6,6 -23,36 -39,66 -36,69 -93,166 -148,250 -23,37 -43,70 -43,73 0,4 -9,19 -21,33 l -20,26 6,-54 6,-55 -30,34 c -17,19 -34,31 -38,27 -8,-7 58,-214 88,-276 64,-132 118,-289 134,-385 9,-59 22,-76 31,-41 4,16 3,31 -2,35 -5,3 -9,25 -9,48 -1,23 0,41 2,39 14,-14 102,-361 104,-408 0,-22 1,-22 9,-3 6,14 8,3 5,-35 -3,-38 -2,-46 3,-25 6,21 8,3 8,-57 0,-92 12,-124 36,-100 9,9 14,73 16,215 4,220 -12,415 -48,565 -22,91 -25,115 -11,93 26,-41 23,116 -5,264 -8,47 -9,73 -3,80 7,7 8,5 4,-5 -5,-15 68,-180 81,-180 3,0 3,7 0,16 -3,9 -2,12 5,9 6,-4 8,-14 4,-22 -3,-9 19,-54 56,-110 78,-120 103,-182 163,-396 34,-118 49,-13 21,145 -22,127 -48,202 -140,402 -83,181 -129,295 -165,411 -23,72 -60,228 -55,233 1,2 14,-16 28,-40 14,-24 77,-108 141,-187 151,-188 218,-320 282,-561 6,-20 16,-35 24,-35 13,0 15,23 14,140 -1,154 -23,269 -83,434 -17,47 -29,86 -28,88 2,1 28,-23 58,-54 62,-64 129,-116 212,-163 68,-38 84,-35 30,6 -170,127 -236,231 -524,812 -205,412 -267,531 -224,430 z m 137,-826 c 8,24 55,-9 84,-59 15,-26 64,-104 110,-173 89,-134 176,-300 192,-365 14,-57 23,-165 14,-165 -5,0 -18,33 -31,73 -29,91 -89,221 -132,284 -18,26 -67,91 -109,143 -110,136 -170,228 -163,247 4,11 3,14 -5,9 -7,-4 -12,-3 -12,2 0,18 14,21 31,6 13,-12 18,-12 21,-2 z m -334,-659 c 11,-21 29,-69 42,-108 12,-38 42,-121 67,-184 24,-62 42,-118 41,-123 -3,-9 -72,143 -109,242 -34,90 -69,193 -69,202 0,17 10,7 28,-29 z m 140,-223 c 58,-109 122,-265 162,-395 32,-103 43,-221 31,-315 -4,-36 -9,-53 -10,-38 -2,51 -51,282 -80,383 -28,99 -110,326 -150,418 -43,100 -19,73 47,-53 z"
             id="path100"
             inkstitch:row_spacing_mm="0.15"
             inkstitch:fill_method="0"
             inkstitch:fill_underlay="False"
             inkstitch:angle="90" />
        </g>
        <g
           id="g106">
          <path
             d="m 6153,3569 c 7,-46 51,-243 93,-413 19,-76 34,-149 34,-162 0,-13 4,-24 8,-24 5,0 16,-42 27,-92 10,-51 26,-111 36,-133 26,-56 59,-163 64,-205 6,-53 23,-109 25,-85 1,15 4,13 12,-10 5,-16 10,-37 12,-45 9,-54 19,-98 26,-115 5,-11 11,-27 14,-35 3,-8 3,12 1,45 l -4,60 15,-48 c 18,-55 30,-54 26,1 -6,76 -43,365 -48,373 -3,5 -7,58 -9,117 -3,78 -12,140 -35,226 -17,66 -34,124 -39,130 -4,6 -18,39 -30,73 -13,34 -30,68 -39,75 -13,11 -14,11 -7,-2 5,-10 5,-12 -2,-5 -23,22 -73,126 -67,138 4,6 4,9 -1,5 -4,-4 -23,22 -41,59 -19,36 -43,75 -55,86 l -22,20 z m 102,-240 c 4,-17 13,-33 20,-35 7,-3 19,-19 25,-35 7,-16 18,-33 25,-37 7,-4 28,-50 48,-102 35,-91 47,-98 28,-16 -15,61 4,28 22,-39 27,-105 28,-125 11,-118 -14,5 -15,1 -10,-25 6,-23 3,-33 -10,-40 -16,-9 -16,-17 5,-137 12,-70 20,-129 18,-131 -2,-2 -12,31 -22,74 -10,42 -28,100 -41,129 -13,28 -24,61 -24,72 0,29 -19,73 -28,67 -10,-6 -59,193 -60,240 -1,17 -15,77 -31,134 -17,56 -31,108 -30,114 0,17 47,-80 54,-115 z"
             id="path104"
             inkstitch:row_spacing_mm="0.15"
             inkstitch:fill_method="0"
             inkstitch:fill_underlay="False"
             inkstitch:angle="90" />
        </g>
        <g
           id="g110">
          <path
             d="m 5543,3559 c -13,-16 -6,-84 22,-229 8,-41 17,-86 19,-100 3,-14 10,-43 15,-65 6,-22 22,-89 37,-150 25,-107 58,-219 88,-300 8,-22 15,-57 16,-78 0,-21 4,-36 9,-33 21,13 26,-521 6,-654 -3,-19 -9,-66 -15,-105 -5,-38 -11,-77 -12,-85 -2,-8 1,-17 7,-20 10,-5 24,62 48,240 11,82 15,94 16,55 3,-131 -46,-412 -99,-557 -28,-80 -29,-82 -6,-54 30,36 96,155 96,172 0,33 21,17 79,-61 35,-47 66,-85 71,-85 9,0 36,140 46,240 9,90 23,110 17,24 -7,-108 -32,-270 -59,-377 -26,-104 -90,-291 -118,-346 -16,-30 -14,-59 2,-35 4,5 29,41 57,79 27,38 69,107 92,154 48,95 51,98 25,20 -11,-30 -25,-85 -32,-124 -28,-158 -104,-415 -146,-497 -9,-17 -10,-28 -4,-28 15,0 144,199 195,300 23,47 56,124 73,171 29,83 83,304 98,404 4,28 9,45 11,39 2,-7 -5,-67 -17,-134 -23,-134 -21,-185 11,-330 19,-84 70,-243 76,-237 1,2 -4,35 -12,73 -27,128 -14,349 36,588 19,89 48,186 35,116 -3,-14 -8,-42 -11,-62 -5,-23 -3,-38 3,-38 15,0 58,-116 77,-210 9,-46 22,-152 29,-235 l 11,-150 18,105 c 28,174 40,337 35,490 -4,103 -2,138 5,120 5,-14 11,-124 13,-245 3,-200 5,-225 26,-280 21,-55 23,-76 23,-272 0,-117 3,-213 6,-213 16,0 42,75 58,165 l 17,100 51,-130 c 72,-185 93,-276 93,-407 0,-61 4,-108 9,-108 31,0 106,147 116,225 16,131 14,130 51,28 35,-97 128,-269 151,-277 18,-7 17,-1 -16,91 -62,168 -87,359 -101,768 -6,165 -13,315 -16,333 -4,17 -2,32 2,32 15,-1 201,-311 228,-380 39,-99 66,-213 77,-335 16,-159 31,-165 68,-25 14,49 19,94 16,130 -3,46 -3,50 5,20 7,-27 8,-18 5,40 -2,49 -1,63 4,40 21,-102 33,534 12,685 -8,61 -9,54 -5,-60 2,-71 2,-125 0,-120 -2,6 -14,44 -26,85 -56,188 -77,243 -136,362 -61,125 -158,278 -175,278 -17,0 -9,-95 20,-250 16,-85 32,-186 35,-225 l 6,-70 -21,55 c -12,30 -35,89 -51,131 -37,96 -70,151 -76,126 -2,-9 1,-49 8,-88 6,-40 9,-73 7,-75 -12,-12 -59,122 -86,246 -30,135 -43,172 -56,158 -3,-3 -1,-54 5,-114 14,-137 16,-299 5,-434 l -9,-105 -12,80 c -21,134 -64,347 -72,359 -4,6 -9,25 -10,41 -2,17 -10,55 -19,85 -8,30 -21,75 -28,100 -7,25 -20,72 -30,105 -9,33 -21,70 -26,83 -5,13 -9,36 -9,52 0,17 -5,30 -10,30 -6,0 -10,-21 -10,-47 1,-93 -25,-326 -36,-330 -11,-4 -42,31 -131,147 -55,72 -78,110 -66,110 4,0 0,5 -10,11 -9,6 -28,31 -42,57 -13,26 -34,58 -45,72 -21,25 -21,24 1,-20 53,-110 174,-277 266,-368 101,-100 95,-110 -8,-14 -107,98 -208,249 -328,487 -39,77 -70,137 -71,134 0,-8 44,-115 69,-166 12,-23 21,-46 21,-52 0,-5 4,-11 8,-13 9,-3 132,-212 132,-224 0,-4 8,-13 18,-21 10,-9 11,-12 2,-7 -9,4 -7,-2 5,-14 134,-137 132,-135 95,-115 -19,10 -37,21 -40,24 -3,3 -27,20 -55,39 -27,19 -57,42 -66,52 -9,10 -20,18 -25,18 -5,0 -18,12 -29,27 -11,14 -37,45 -57,67 -21,23 -38,46 -38,52 0,6 -11,23 -25,38 -13,15 -30,36 -36,47 -6,12 -33,51 -60,89 -34,46 -48,73 -43,86 4,13 3,15 -3,7 -11,-15 -20,-5 -85,93 -74,113 -86,154 -118,409 -11,86 -22,117 -36,102 -9,-9 14,-237 37,-373 17,-102 52,-230 99,-364 11,-30 18,-56 16,-57 -9,-9 -123,260 -166,392 -12,39 -26,78 -32,88 -15,30 -77,290 -71,300 3,5 1,12 -5,16 -5,3 -19,49 -31,101 -11,52 -27,126 -36,165 -9,38 -13,75 -11,82 3,7 1,13 -4,13 -5,0 -10,10 -12,22 -3,18 -5,19 -15,7 z m 113,-494 c 63,-250 117,-409 196,-584 107,-236 209,-423 343,-631 94,-147 97,-157 13,-45 -250,331 -455,789 -573,1280 -18,77 -36,163 -39,190 l -5,50 11,-45 c 5,-25 30,-121 54,-215 z m 329,-739 c 49,-115 172,-363 226,-456 42,-72 23,-53 -30,30 -100,155 -235,454 -295,651 -40,130 -30,129 13,-1 21,-63 60,-164 86,-224 z m 50,94 c 154,-230 322,-385 540,-500 75,-39 32,-28 -50,13 -87,43 -190,115 -268,187 -77,71 -210,244 -258,334 -40,77 -33,71 36,-34 z m 530,-605 c -3,-38 -8,-82 -11,-97 -3,-15 -7,-49 -10,-75 -2,-26 -6,-59 -8,-73 -1,-14 -4,-40 -4,-58 -1,-18 -6,-31 -11,-28 -4,3 -11,70 -15,148 -4,79 -11,170 -15,203 -10,94 -7,99 40,72 l 40,-22 z m 374,-223 c 0,-31 5,-78 10,-106 6,-28 15,-218 21,-422 6,-226 16,-414 25,-483 9,-62 14,-118 12,-124 -9,-28 -68,297 -92,513 -22,194 -32,644 -15,665 7,8 9,15 4,15 -5,0 -2,4 6,10 21,13 28,-4 29,-68 z m 104,31 c -4,-10 -2,-14 4,-10 12,8 16,0 94,-200 66,-169 154,-438 189,-573 19,-74 20,-91 10,-145 -18,-94 -27,-96 -35,-9 -16,175 -85,370 -182,517 -93,139 -143,250 -156,342 -3,22 -3,33 -1,24 4,-14 9,-12 33,10 15,14 30,34 34,44 3,9 9,17 11,17 3,0 2,-7 -1,-17 z"
             id="path108"
             inkstitch:row_spacing_mm="0.15"
             inkstitch:fill_method="0"
             inkstitch:fill_underlay="False"
             inkstitch:angle="90" />
        </g>
        <g
           id="g114">
          <path
             d="m 6020,3060 c 0,-76 87,-401 111,-416 8,-4 9,2 4,17 -3,13 21,-32 55,-101 35,-69 64,-120 67,-113 2,6 -10,36 -27,67 -17,30 -40,77 -50,103 -10,26 -31,77 -46,113 -15,36 -42,125 -60,199 -33,131 -54,183 -54,131 z"
             id="path112"
             inkstitch:row_spacing_mm="0.15"
             inkstitch:fill_method="0"
             inkstitch:fill_underlay="False"
             inkstitch:angle="90" />
        </g>
        <g
           id="g118">
          <path
             d="m 5307,2655 c -10,-56 -9,-107 2,-101 5,4 12,0 14,-6 8,-19 6,82 -2,117 l -7,30 z"
             id="path116"
             inkstitch:row_spacing_mm="0.15"
             inkstitch:fill_method="0"
             inkstitch:fill_underlay="False"
             inkstitch:angle="90" />
        </g>
        <g
           id="g122">
          <path
             d="m 5203,2139 -29,-123 47,-70 c 54,-80 149,-186 167,-186 12,0 16,25 12,63 -1,10 -14,47 -30,83 -16,35 -50,126 -76,202 -26,75 -50,141 -54,145 -4,4 -20,-47 -37,-114 z"
             id="path120"
             inkstitch:row_spacing_mm="0.15"
             inkstitch:fill_method="0"
             inkstitch:fill_underlay="False"
             inkstitch:angle="90" />
        </g>
        <g
           id="g126">
          <path
             d="m 5177,2143 c -4,-3 -7,-16 -7,-29 0,-12 -3,-31 -7,-41 -6,-16 -8,-15 -14,7 l -7,25 -1,-26 c -1,-14 -12,-82 -26,-150 -15,-68 -26,-136 -27,-150 -1,-17 24,-61 72,-130 81,-115 111,-151 154,-182 25,-18 22,-10 -24,58 -57,85 -117,207 -145,297 l -18,57 32,131 c 30,125 34,149 18,133 z"
             id="path124"
             inkstitch:row_spacing_mm="0.15"
             inkstitch:fill_method="0"
             inkstitch:fill_underlay="False"
             inkstitch:angle="90" />
        </g>
        <g
           id="g130">
          <path
             d="m 3441,1905 c -2,-33 47,-202 80,-278 35,-81 79,-160 85,-154 3,2 -11,40 -29,83 -19,43 -49,122 -67,174 -18,52 -38,109 -45,125 -7,17 -15,39 -18,50 l -5,20 z"
             id="path128"
             inkstitch:row_spacing_mm="0.15"
             inkstitch:fill_method="0"
             inkstitch:fill_underlay="False"
             inkstitch:angle="90" />
        </g>
        <g
           id="g134">
          <path
             d="m 3355,1538 c 1,-94 8,-152 29,-248 16,-69 37,-170 47,-225 17,-96 18,-98 13,-31 -3,57 -41,372 -70,584 -11,82 -21,40 -19,-80 z"
             id="path132"
             inkstitch:row_spacing_mm="0.15"
             inkstitch:fill_method="0"
             inkstitch:fill_underlay="False"
             inkstitch:angle="90" />
        </g>
        <g
           id="g138">
          <path
             d="m 4697,1498 c -3,-57 -4,-105 -2,-106 2,-2 16,35 31,82 26,83 26,87 9,106 -10,11 -21,20 -25,20 -4,0 -10,-46 -13,-102 z"
             id="path136"
             inkstitch:row_spacing_mm="0.15"
             inkstitch:fill_method="0"
             inkstitch:fill_underlay="False"
             inkstitch:angle="90" />
        </g>
        <g
           id="g142">
          <path
             d="m 3730,1169 c -14,-6 -46,-15 -72,-20 -27,-6 -48,-16 -48,-22 0,-7 9,-57 19,-112 11,-55 23,-133 27,-174 6,-69 8,-72 20,-49 11,21 11,46 -3,154 -24,193 -28,174 45,197 34,11 62,24 62,28 0,11 -18,10 -50,-2 z"
             id="path140"
             inkstitch:row_spacing_mm="0.15"
             inkstitch:fill_method="0"
             inkstitch:fill_underlay="False"
             inkstitch:angle="90" />
        </g>
        <g
           id="g146">
          <path
             d="m 2860,987 c 8,-8 67,-43 130,-79 102,-58 195,-112 338,-194 66,-39 49,-20 -30,34 -93,62 -384,227 -433,246 -18,6 -18,5 -5,-7 z"
             id="path144"
             inkstitch:row_spacing_mm="0.15"
             inkstitch:fill_method="0"
             inkstitch:fill_underlay="False"
             inkstitch:angle="90" />
        </g>
        <g
           id="g150">
          <path
             d="M 2549,868 C 2393,678 2261,500 2277,500 c 4,0 46,51 93,113 47,61 119,154 161,207 137,173 151,210 18,48 z"
             id="path148"
             inkstitch:row_spacing_mm="0.15"
             inkstitch:fill_method="0"
             inkstitch:fill_underlay="False"
             inkstitch:angle="90" />
        </g>
        <g
           id="g154">
          <path
             d="m 3662,748 c -8,-8 -12,-46 -12,-103 0,-118 -19,-183 -65,-224 -20,-17 -42,-31 -49,-31 -7,0 -33,-9 -58,-20 -24,-10 -136,-42 -249,-71 -112,-28 -250,-68 -305,-89 -56,-22 -159,-57 -230,-80 -71,-22 -111,-38 -89,-35 56,9 124,29 310,91 88,29 215,67 282,84 67,16 175,46 240,66 209,63 233,92 236,294 1,72 2,130 2,130 -1,0 -6,-5 -13,-12 z"
             id="path152"
             inkstitch:row_spacing_mm="0.15"
             inkstitch:fill_method="0"
             inkstitch:fill_underlay="False"
             inkstitch:angle="90" />
        </g>
        <g
           id="g158">
          <path
             d="m 3420,651 c -13,-25 -3,-51 20,-51 25,0 33,16 26,46 -8,29 -31,32 -46,5 z"
             id="path156"
             inkstitch:row_spacing_mm="0.15"
             inkstitch:fill_method="0"
             inkstitch:fill_underlay="False"
             inkstitch:angle="90" />
        </g>
        <g
           id="g162">
          <path
             d="m 1940,558 c 0,-21 99,-287 100,-268 0,19 -71,232 -84,251 -9,13 -16,21 -16,17 z"
             id="path160"
             inkstitch:row_spacing_mm="0.15"
             inkstitch:fill_method="0"
             inkstitch:fill_underlay="False"
             inkstitch:angle="90" />
        </g>
        <g
           id="g166">
          <path
             d="m 2337,393 c -4,-3 -7,-17 -7,-30 0,-16 6,-23 19,-23 25,0 34,26 15,45 -18,17 -18,17 -27,8 z"
             id="path164"
             inkstitch:row_spacing_mm="0.15"
             inkstitch:fill_method="0"
             inkstitch:fill_underlay="False"
             inkstitch:angle="90" />
        </g>
        <g
           id="g170">
          <path
             d="m 2760,284 c -90,-18 -451,-64 -505,-64 -25,0 -72,9 -106,21 -33,12 -62,19 -64,17 -2,-2 4,-18 15,-35 31,-52 90,-59 260,-32 85,13 504,99 509,105 8,7 -42,2 -109,-12 z"
             id="path168"
             inkstitch:row_spacing_mm="0.15"
             inkstitch:fill_method="0"
             inkstitch:fill_underlay="False"
             inkstitch:angle="90" />
        </g>
      </g>
    </g>
  </g>
</svg>
