<?xml version="1.0" encoding="UTF-8" standalone="no"?>
<!-- Created with Inkscape (http://www.inkscape.org/) -->

<svg
   xmlns:osb="http://www.openswatchbook.org/uri/2009/osb"
   xmlns:dc="http://purl.org/dc/elements/1.1/"
   xmlns:cc="http://creativecommons.org/ns#"
   xmlns:rdf="http://www.w3.org/1999/02/22-rdf-syntax-ns#"
   xmlns:svg="http://www.w3.org/2000/svg"
   xmlns="http://www.w3.org/2000/svg"
   xmlns:sodipodi="http://sodipodi.sourceforge.net/DTD/sodipodi-0.dtd"
   xmlns:inkscape="http://www.inkscape.org/namespaces/inkscape"
   width="297mm"
   height="210mm"
   id="svg2"
   version="1.1"
   inkscape:version="0.91 r13725"
   sodipodi:docname="Chassis.svg">
  <defs
     id="defs4">
    <linearGradient
       id="linearGradient12736"
       osb:paint="solid">
      <stop
         style="stop-color:#ff0000;stop-opacity:1;"
         offset="0"
         id="stop12738" />
    </linearGradient>
    <linearGradient
       id="linearGradient12722"
       osb:paint="solid">
      <stop
         style="stop-color:#ff0000;stop-opacity:1;"
         offset="0"
         id="stop12724" />
    </linearGradient>
    <linearGradient
       id="linearGradient11107"
       osb:paint="solid">
      <stop
         style="stop-color:#ff0000;stop-opacity:1;"
         offset="0"
         id="stop11109" />
    </linearGradient>
    <linearGradient
       id="linearGradient9497"
       osb:paint="solid">
      <stop
         style="stop-color:#000000;stop-opacity:0;"
         offset="0"
         id="stop9499" />
    </linearGradient>
  </defs>
  <sodipodi:namedview
     id="base"
     pagecolor="#ffffff"
     bordercolor="#666666"
     borderopacity="1.0"
     inkscape:pageopacity="0.0"
     inkscape:pageshadow="2"
     inkscape:zoom="1.2224789"
     inkscape:cx="332.20267"
     inkscape:cy="279.04273"
     inkscape:document-units="px"
     inkscape:current-layer="layer2"
     showgrid="true"
     inkscape:snap-grids="false"
     inkscape:snap-global="false"
     inkscape:window-width="1920"
     inkscape:window-height="1062"
     inkscape:window-x="0"
     inkscape:window-y="0"
     inkscape:window-maximized="1">
    <inkscape:grid
       type="xygrid"
       id="grid7403" />
  </sodipodi:namedview>
  <metadata
     id="metadata7">
    <rdf:RDF>
      <cc:Work
         rdf:about="">
        <dc:format>image/svg+xml</dc:format>
        <dc:type
           rdf:resource="http://purl.org/dc/dcmitype/StillImage" />
        <dc:title></dc:title>
      </cc:Work>
    </rdf:RDF>
  </metadata>
  <g
     inkscape:groupmode="layer"
     id="layer2"
     inkscape:label="Bois"
     style="display:none"
     sodipodi:insensitive="true">
    <path
       transform="translate(0,-308.26772)"
       style="display:inline;fill:none;fill-rule:evenodd;stroke:#00ff00;stroke-width:1px;stroke-linecap:butt;stroke-linejoin:miter;stroke-opacity:1"
       d="m 1052.817,504.21142 -159.4526,-159.6294 -726.02184,0 -166.84877716,159.8536 0.1609,389.59963 L 167.69606,1053.4566 893.54118,1053.103 1052.9938,894.00402 Z"
       id="path5254"
       inkscape:connector-curvature="0"
       sodipodi:nodetypes="ccccccccc" />
  </g>
  <g
     inkscape:label="Calque 1"
     inkscape:groupmode="layer"
     id="layer1"
     transform="translate(0,-308.26772)">
    <path
       sodipodi:nodetypes="ccccccccc"
       inkscape:connector-curvature="0"
       id="path3080"
       d="m 45.704292,724.65697 0,177.16535 141.732268,0 0,-177.16535 -35.43307,0 0,-7.08662 -70.866124,0 0,7.08662 z"
       style="fill:#ff0000;fill-opacity:0;stroke:#ff0000;stroke-width:0.60236222;stroke-miterlimit:4;stroke-dasharray:none;stroke-opacity:1" />
    <g
       id="g3107"
       transform="matrix(0,1,-1,0,1176.6053,183.79553)">
      <path
         sodipodi:nodetypes="ccccccccc"
         inkscape:connector-curvature="0"
         id="path3103"
         d="m 191.78662,768.89762 0,177.16535 141.73228,0 0,-177.16535 -35.43307,0 0,-7.08662 -70.86614,0 0,7.08662 z"
         style="fill:#ff0000;fill-opacity:0;stroke:#ff0000;stroke-width:0.60236222;stroke-miterlimit:4;stroke-dasharray:none;stroke-opacity:1" />
      <rect
         y="785.25977"
         x="209.68459"
         height="6.7205782"
         width="105.93317"
         id="rect3105"
         style="fill:#ff0000;fill-opacity:0;fill-rule:nonzero;stroke:#ff0000;stroke-width:0.36603579;stroke-miterlimit:4;stroke-dasharray:none;stroke-opacity:1" />
    </g>
    <g
       id="g3115"
       transform="matrix(0,1,1,0,-529.38398,457.2388)">
      <path
         sodipodi:nodetypes="ccccccccc"
         inkscape:connector-curvature="0"
         id="path3111"
         d="m 35.43307,570.89762 0,177.16535 212.59843,0 0,-177.16535 -70.86615,0 0,-7.08662 -70.86614,0 0,7.08662 z"
         style="fill:#ff0000;fill-opacity:0;stroke:#ff0000;stroke-width:0.60236222;stroke-miterlimit:4;stroke-dasharray:none;stroke-opacity:1" />
      <circle
         transform="matrix(1.4906,0,0,1.4905999,-38.504001,-304.00925)"
         id="path3113"
         style="fill:#ff0000;fill-opacity:0;fill-rule:nonzero;stroke:#ff0000;stroke-width:0.60236222;stroke-miterlimit:4;stroke-dasharray:none;stroke-opacity:1"
         cx="120.91526"
         cy="636.58337"
         r="35.355339" />
    </g>
    <g
       id="g3119"
       transform="matrix(0,1,-1,0,980.50999,491.94403)">
      <path
         style="fill:#ff0000;fill-opacity:0;stroke:#ff0000;stroke-width:0.60236222;stroke-miterlimit:4;stroke-dasharray:none;stroke-opacity:1"
         d="m 35.43307,570.89762 0,177.16535 212.59843,0 0,-177.16535 -70.86615,0 0,-7.08662 -70.86614,0 0,7.08662 z"
         id="path3121"
         inkscape:connector-curvature="0"
         sodipodi:nodetypes="ccccccccc" />
      <circle
         style="fill:#ff0000;fill-opacity:0;fill-rule:nonzero;stroke:#ff0000;stroke-width:0.60236222;stroke-miterlimit:4;stroke-dasharray:none;stroke-opacity:1"
         id="path3123"
         transform="matrix(1.4906,0,0,1.4905999,-38.504001,-304.00925)"
         cx="120.91526"
         cy="636.58337"
         r="35.355339" />
    </g>
    <path
       style="fill:#ff0000;fill-opacity:0;stroke:#ff0000;stroke-width:0.60236222;stroke-miterlimit:4;stroke-dasharray:none;stroke-opacity:1"
       d="m 200.33052,748.95063 0,53.1496 7.08661,0 0,70.86614 -7.08661,0 0,53.14961 70.86614,0 0,-7.08661 70.86614,0 0,7.08661 70.86614,0 0,-53.14961 -7.08661,0 0,-70.86614 7.08661,0 0,-53.1496 -70.86614,0 0,7.08661 -70.86614,0 0,-7.08661 z"
       id="path3125"
       inkscape:connector-curvature="0"
       sodipodi:nodetypes="ccccccccccccccccccccc" />
    <g
       id="g3134"
       transform="matrix(1,0,0,-1,103.97533,1968.8953)">
      <path
         sodipodi:nodetypes="ccccccccc"
         inkscape:connector-curvature="0"
         id="path12857"
         d="m 17.433071,978.33069 0,53.14961 318.897639,0 0,-53.14961 -106.29921,0 0,-7.08662 -106.29922,0 0,7.08662 z"
         style="fill:#ff0000;fill-opacity:0;stroke:#ff0000;stroke-width:0.60236222;stroke-miterlimit:4;stroke-dasharray:none;stroke-opacity:1" />
      <g
         id="g3118">
        <circle
           id="path3069"
           style="fill:#ff0000;fill-opacity:0;fill-rule:nonzero;stroke:#ff0000;stroke-width:0.60236222;stroke-miterlimit:4;stroke-dasharray:none;stroke-opacity:1"
           transform="matrix(0.12940221,0,0,0.12938374,58.381896,877.82247)"
           cx="94.285713"
           cy="842.36218"
           r="13.214286" />
        <circle
           transform="matrix(0.12940221,0,0,0.12938374,58.381896,888.45239)"
           style="fill:#ff0000;fill-opacity:0;fill-rule:nonzero;stroke:#ff0000;stroke-width:0.60236222;stroke-miterlimit:4;stroke-dasharray:none;stroke-opacity:1"
           id="path3063"
           cx="94.285713"
           cy="842.36218"
           r="13.214286" />
        <circle
           id="path3066"
           style="fill:#ff0000;fill-opacity:0;fill-rule:nonzero;stroke:#ff0000;stroke-width:0.60236222;stroke-miterlimit:4;stroke-dasharray:none;stroke-opacity:1"
           transform="matrix(0.12940221,0,0,0.12938374,58.381896,916.79885)"
           cx="94.285713"
           cy="842.36218"
           r="13.214286" />
        <circle
           transform="matrix(0.12940221,0,0,0.12938374,58.381896,906.16893)"
           style="fill:#ff0000;fill-opacity:0;fill-rule:nonzero;stroke:#ff0000;stroke-width:0.60236222;stroke-miterlimit:4;stroke-dasharray:none;stroke-opacity:1"
           id="path3105"
           cx="94.285713"
           cy="842.36218"
           r="13.214286" />
      </g>
      <g
         transform="translate(212.59923,0)"
         id="g3124">
        <circle
           transform="matrix(0.12940221,0,0,0.12938374,58.381896,877.82247)"
           style="fill:#ff0000;fill-opacity:0;fill-rule:nonzero;stroke:#ff0000;stroke-width:0.60236222;stroke-miterlimit:4;stroke-dasharray:none;stroke-opacity:1"
           id="path3126"
           cx="94.285713"
           cy="842.36218"
           r="13.214286" />
        <circle
           id="path3128"
           style="fill:#ff0000;fill-opacity:0;fill-rule:nonzero;stroke:#ff0000;stroke-width:0.60236222;stroke-miterlimit:4;stroke-dasharray:none;stroke-opacity:1"
           transform="matrix(0.12940221,0,0,0.12938374,58.381896,888.45239)"
           cx="94.285713"
           cy="842.36218"
           r="13.214286" />
        <circle
           transform="matrix(0.12940221,0,0,0.12938374,58.381896,916.79885)"
           style="fill:#ff0000;fill-opacity:0;fill-rule:nonzero;stroke:#ff0000;stroke-width:0.60236222;stroke-miterlimit:4;stroke-dasharray:none;stroke-opacity:1"
           id="path3130"
           cx="94.285713"
           cy="842.36218"
           r="13.214286" />
        <circle
           id="path3132"
           style="fill:#ff0000;fill-opacity:0;fill-rule:nonzero;stroke:#ff0000;stroke-width:0.60236222;stroke-miterlimit:4;stroke-dasharray:none;stroke-opacity:1"
           transform="matrix(0.12940221,0,0,0.12938374,58.381896,906.16893)"
           cx="94.285713"
           cy="842.36218"
           r="13.214286" />
      </g>
    </g>
  </g>
</svg>
